<mxfile host="app.diagrams.net" modified="2020-10-09T07:29:36.952Z" agent="5.0 (Windows NT 10.0; Win64; x64) AppleWebKit/537.36 (KHTML, like Gecko) Chrome/85.0.4183.121 Safari/537.36" etag="QOFinmtu47f_vYpIyZhE" version="13.7.4" type="github">
  <diagram id="kY5YWBlgTMxsOmcofP_N" name="Page-1">
    <mxGraphModel dx="1341" dy="746" grid="1" gridSize="10" guides="1" tooltips="1" connect="1" arrows="1" fold="1" page="1" pageScale="1" pageWidth="1654" pageHeight="1169" math="0" shadow="0">
      <root>
        <mxCell id="0" />
        <mxCell id="1" parent="0" />
        <mxCell id="keo_O-B1GyqZ8fwBsUim-4" style="edgeStyle=orthogonalEdgeStyle;rounded=0;orthogonalLoop=1;jettySize=auto;html=1;entryX=0;entryY=0.5;entryDx=0;entryDy=0;" edge="1" parent="1" source="keo_O-B1GyqZ8fwBsUim-1" target="keo_O-B1GyqZ8fwBsUim-2">
          <mxGeometry relative="1" as="geometry" />
        </mxCell>
        <mxCell id="keo_O-B1GyqZ8fwBsUim-1" value="" style="shape=image;verticalLabelPosition=bottom;labelBackgroundColor=#ffffff;verticalAlign=top;aspect=fixed;imageAspect=0;image=data:image/svg+xml,PHN2ZyB4bWxuczpkYz0iaHR0cDovL3B1cmwub3JnL2RjL2VsZW1lbnRzLzEuMS8iIHhtbG5zOmNjPSJodHRwOi8vY3JlYXRpdmVjb21tb25zLm9yZy9ucyMiIHhtbG5zOnJkZj0iaHR0cDovL3d3dy53My5vcmcvMTk5OS8wMi8yMi1yZGYtc3ludGF4LW5zIyIgeG1sbnM6c3ZnPSJodHRwOi8vd3d3LnczLm9yZy8yMDAwL3N2ZyIgeG1sbnM9Imh0dHA6Ly93d3cudzMub3JnLzIwMDAvc3ZnIiB4bWxuczpzb2RpcG9kaT0iaHR0cDovL3NvZGlwb2RpLnNvdXJjZWZvcmdlLm5ldC9EVEQvc29kaXBvZGktMC5kdGQiIHhtbG5zOmlua3NjYXBlPSJodHRwOi8vd3d3Lmlua3NjYXBlLm9yZy9uYW1lc3BhY2VzL2lua3NjYXBlIiB2ZXJzaW9uPSIxLjEiIGlkPSJzdmc5NzA4NCIgaW5rc2NhcGU6dmVyc2lvbj0iMC45Mi4zICgyNDA1NTQ2LCAyMDE4LTAzLTExKSIgc29kaXBvZGk6ZG9jbmFtZT0ic3FsX2RhdGFiYXNlLnN2ZyIgeD0iMHB4IiB5PSIwcHgiIHZpZXdCb3g9IjAgMCA3NS41MiAxMDAuMTEiIHhtbDpzcGFjZT0icHJlc2VydmUiIHdpZHRoPSI3NS41MTk5OTciIGhlaWdodD0iMTAwLjExIj48bWV0YWRhdGEgaWQ9Im1ldGFkYXRhMTcyNiI+PHJkZjpSREY+PGNjOldvcmsgcmRmOmFib3V0PSIiPjxkYzpmb3JtYXQ+aW1hZ2Uvc3ZnK3htbDwvZGM6Zm9ybWF0PjxkYzp0eXBlIHJkZjpyZXNvdXJjZT0iaHR0cDovL3B1cmwub3JnL2RjL2RjbWl0eXBlL1N0aWxsSW1hZ2UiLz48ZGM6dGl0bGUvPjwvY2M6V29yaz48L3JkZjpSREY+PC9tZXRhZGF0YT48ZGVmcyBpZD0iZGVmczE3MjQiPiYjeGE7CSYjeGE7JiN4YTsJJiN4YTsmI3hhOwkmI3hhOyYjeGE7CSYjeGE7JiN4YTsJJiN4YTsmI3hhOwkmI3hhOyYjeGE7CSYjeGE7JiN4YTsJJiN4YTsmI3hhOwkmI3hhOyYjeGE7CQkmI3hhOwkmI3hhOwkJJiN4YTsJJiN4YTsJCSYjeGE7CSYjeGE7CQkmI3hhOwkmI3hhOwkJJiN4YTsJJiN4YTsJCSYjeGE7CSYjeGE7CQkmI3hhOwkmI3hhOwkJJiN4YTsJPC9kZWZzPiYjeGE7PGZpbHRlciBpZD0iZmlsdGVyXzIiPiYjeGE7CTxmZUdhdXNzaWFuQmx1ciBpZD0iZmVHYXVzc2lhbkJsdXI5NzAwMSIgc3RkRGV2aWF0aW9uPSIyIi8+JiN4YTs8L2ZpbHRlcj4mI3hhOzxzb2RpcG9kaTpuYW1lZHZpZXcgYm9yZGVyY29sb3I9IiM2NjY2NjYiIGJvcmRlcm9wYWNpdHk9IjEiIGZpdC1tYXJnaW4tYm90dG9tPSIwIiBmaXQtbWFyZ2luLWxlZnQ9IjAiIGZpdC1tYXJnaW4tcmlnaHQ9IjAiIGZpdC1tYXJnaW4tdG9wPSIwIiBncmlkdG9sZXJhbmNlPSIxMCIgZ3VpZGV0b2xlcmFuY2U9IjEwIiBpZD0ibmFtZWR2aWV3OTcwODYiIGlua3NjYXBlOmN1cnJlbnQtbGF5ZXI9InN2Zzk3MDg0IiBpbmtzY2FwZTpjeD0iLTQ2LjkyMDI2NSIgaW5rc2NhcGU6Y3k9IjM4LjczMTY2NiIgaW5rc2NhcGU6cGFnZW9wYWNpdHk9IjAiIGlua3NjYXBlOnBhZ2VzaGFkb3c9IjIiIGlua3NjYXBlOndpbmRvdy1oZWlnaHQ9IjEwMTciIGlua3NjYXBlOndpbmRvdy1tYXhpbWl6ZWQ9IjEiIGlua3NjYXBlOndpbmRvdy13aWR0aD0iMTkyMCIgaW5rc2NhcGU6d2luZG93LXg9Ii04IiBpbmtzY2FwZTp3aW5kb3cteT0iLTgiIGlua3NjYXBlOnpvb209IjUuMjE5MzE5NyIgb2JqZWN0dG9sZXJhbmNlPSIxMCIgcGFnZWNvbG9yPSIjZmZmZmZmIiBzaG93Z3JpZD0iZmFsc2UiPiYjeGE7CTwvc29kaXBvZGk6bmFtZWR2aWV3PiYjeGE7JiN4YTs8cGF0aCBpZD0icGF0aDk3MDE0IiBpbmtzY2FwZTpjb25uZWN0b3ItY3VydmF0dXJlPSIwIiBzdHlsZT0iZmlsbDojMDA3MmM2IiBkPSJtIDAsMTMuNjggdiA3Mi43NSBjIDAsNy41NSAxNi45MSwxMy42OCAzNy43NiwxMy42OCBWIDEzLjY4IGMgMCwwIC0zNy43NiwwIC0zNy43NiwwIHoiLz4mI3hhOyYjeGE7PHBhdGggaWQ9InBhdGg5NzAyMiIgaW5rc2NhcGU6Y29ubmVjdG9yLWN1cnZhdHVyZT0iMCIgc3R5bGU9ImZpbGw6IzAwNzJjNiIgZD0ibSAzNy4yNCwxMDAuMTEgaCAwLjUyIGMgMjAuODUsMCAzNy43NiwtNi4xMyAzNy43NiwtMTMuNjggViAxMy42OCBIIDM3LjI0IFoiLz4mI3hhOyYjeGE7PHBhdGggaWQ9InBhdGg5NzAzMCIgaW5rc2NhcGU6Y29ubmVjdG9yLWN1cnZhdHVyZT0iMCIgc3R5bGU9ImZpbGw6I2ZmZmZmZjtmaWxsLW9wYWNpdHk6MC4xNSIgZD0ibSAzNy4yNCwxMDAuMTEgaCAwLjUyIGMgMjAuODUsMCAzNy43NiwtNi4xMyAzNy43NiwtMTMuNjggViAxMy42OCBIIDM3LjI0IFoiLz4mI3hhOyYjeGE7PHBhdGggaWQ9InBhdGg5NzAzOCIgaW5rc2NhcGU6Y29ubmVjdG9yLWN1cnZhdHVyZT0iMCIgc3R5bGU9ImZpbGw6I2ZmZmZmZiIgZD0ibSA3NS41MiwxMy42OCBjIDAsNy41NSAtMTYuOTEsMTMuNjggLTM3Ljc2LDEzLjY4IEMgMTYuOTEsMjcuMzYgMCwyMS4yMyAwLDEzLjY4IDAsNi4xMyAxNi45MSwwIDM3Ljc2LDAgNTguNjEsMCA3NS41Miw2LjEzIDc1LjUyLDEzLjY4IFoiLz4mI3hhOyYjeGE7PHBhdGggaWQ9InBhdGg5NzA0NiIgaW5rc2NhcGU6Y29ubmVjdG9yLWN1cnZhdHVyZT0iMCIgc3R5bGU9ImZpbGw6IzdmYmEwMCIgZD0ibSA2Ny44LDEyLjg5IGMgMCw0Ljk5IC0xMy40NSw5LjAzIC0zMC4wNCw5LjAzIC0xNi41OSwwIC0zMC4wNCwtNC4wNCAtMzAuMDQsLTkuMDMgMCwtNC45OCAxMy40NSwtOS4wMiAzMC4wNCwtOS4wMiAxNi41OSwwIDMwLjA0LDQuMDQgMzAuMDQsOS4wMiB6Ii8+JiN4YTsmI3hhOzxwYXRoIGlkPSJwYXRoOTcwNTQiIGlua3NjYXBlOmNvbm5lY3Rvci1jdXJ2YXR1cmU9IjAiIHN0eWxlPSJmaWxsOiNiOGQ0MzIiIGQ9Ik0gNjEuNTEsMTguNDEgQyA2NS40NCwxNi44OCA2Ny44LDE0Ljk3IDY3LjgsMTIuOSA2Ny44LDcuOTEgNTQuMzUsMy44NyAzNy43NiwzLjg3IDIxLjE3LDMuODcgNy43Miw3LjkxIDcuNzIsMTIuOSBjIDAsMi4wNyAyLjM2LDMuOTggNi4zLDUuNTEgNS40OSwtMi4xNCAxNC4wNywtMy41MSAyMy43NCwtMy41MSA5LjY3LDAgMTguMjUsMS4zNyAyMy43NSwzLjUxIHoiLz4mI3hhOyYjeGE7PHBhdGggaWQ9InBhdGg5NzA2MiIgaW5rc2NhcGU6Y29ubmVjdG9yLWN1cnZhdHVyZT0iMCIgc3R5bGU9ImZpbGw6I2ZmZmZmZiIgZD0ibSAyNS43Nyw2NC4xOCBjIDAsMi4yNiAtMC44Miw0LjAxIC0yLjQ2LDUuMjUgLTEuNjQsMS4yNCAtMy45LDEuODcgLTYuNzksMS44NyAtMi40NiwwIC00LjUyLC0wLjQ1IC02LjE3LC0xLjMzIHYgLTUuMzIgYyAxLjksMS42MSA0LDIuNDIgNi4zLDIuNDIgMS4xLDAgMS45NiwtMC4yMiAyLjU3LC0wLjY2IDAuNiwtMC40NCAwLjksLTEuMDMgMC45LC0xLjc2IDAsLTAuNzIgLTAuMjksLTEuMzUgLTAuODcsLTEuODggLTAuNTgsLTAuNTMgLTEuNzcsLTEuMjIgLTMuNTUsLTIuMDYgLTMuNjMsLTEuNzEgLTUuNDUsLTQuMDQgLTUuNDUsLTYuOTggMCwtMi4xNCAwLjc5LC0zLjg1IDIuMzgsLTUuMTQgMS41OCwtMS4yOSAzLjY5LC0xLjk0IDYuMzEsLTEuOTQgMi4zMywwIDQuMjUsMC4zMSA1Ljc5LDAuOTEgdiA0Ljk3IGMgLTEuNjEsLTEuMTEgLTMuNDQsLTEuNjYgLTUuNDksLTEuNjYgLTEuMDMsMCAtMS44NCwwLjIyIC0yLjQ0LDAuNjYgLTAuNiwwLjQzIC0wLjksMS4wMiAtMC45LDEuNzUgMCwwLjc1IDAuMjQsMS4zNyAwLjczLDEuODUgMC40OCwwLjQ4IDEuNDcsMS4wOCAyLjk2LDEuNzkgMi4yMywxLjA1IDMuODIsMi4xMiA0Ljc2LDMuMjEgMC45NSwxLjA4IDEuNDIsMi40NCAxLjQyLDQuMDUgeiIvPiYjeGE7JiN4YTs8cGF0aCBpZD0icGF0aDk3MDcwIiBpbmtzY2FwZTpjb25uZWN0b3ItY3VydmF0dXJlPSIwIiBzdHlsZT0iZmlsbDojZmZmZmZmIiBkPSJtIDUxLjQxLDU4Ljc5IGMgMCwyLjgxIC0wLjY0LDUuMjQgLTEuOTEsNy4zIC0xLjI4LDIuMDYgLTMuMDcsMy41IC01LjM5LDQuMzQgbCA2LjkyLDYuNCBIIDQ0LjA1IEwgMzkuMTEsNzEuMjkgQyAzNyw3MS4yMSAzNS4wOSw3MC42NSAzMy4zOSw2OS42MSBjIC0xLjcsLTEuMDQgLTMuMDIsLTIuNDcgLTMuOTQsLTQuMjggLTAuOTMsLTEuODEgLTEuMzksLTMuODMgLTEuMzksLTYuMDUgMCwtMi40NyAwLjUsLTQuNjggMS41LC02LjYxIDEuMDEsLTEuOTMgMi40MSwtMy40MiA0LjIzLC00LjQ2IDEuODIsLTEuMDQgMy45LC0xLjU2IDYuMjUsLTEuNTYgMi4xOSwwIDQuMTYsMC41IDUuODksMS41MSAxLjczLDEuMDEgMy4wOCwyLjQ0IDQuMDQsNC4zIDAuOTYsMS44NiAxLjQ0LDMuOTcgMS40NCw2LjMzIHogbSAtNS42NSwwLjMgYyAwLC0yLjQxIC0wLjUyLC00LjMyIC0xLjU4LC01LjcyIC0xLjA1LC0xLjQgLTIuNDksLTIuMSAtNC4zMiwtMi4xIC0xLjg2LDAgLTMuMzUsMC43IC00LjQ3LDIuMSAtMS4xMiwxLjQxIC0xLjY4LDMuMjggLTEuNjgsNS42MiAwLDIuMzMgMC41NSw0LjE5IDEuNjUsNS41OCAxLjA5LDEuMzkgMi41NSwyLjA4IDQuMzYsMi4wOCAxLjg2LDAgMy4zMiwtMC42NyA0LjQxLC0yLjAyIDEuMDksLTEuMzQgMS42MywtMy4xOSAxLjYzLC01LjU0IHoiLz4mI3hhOyYjeGE7PHBhdGggaWQ9InBhdGg5NzA3OCIgaW5rc2NhcGU6Y29ubmVjdG9yLWN1cnZhdHVyZT0iMCIgc3R5bGU9ImZpbGw6I2ZmZmZmZiIgZD0iTSA2OS41NCw3MC44OCBIIDU1LjM1IFYgNDcuMDUgaCA1LjM3IHYgMTkuNDcgaCA4LjgyIHoiLz4mI3hhOzwvc3ZnPg==;" vertex="1" parent="1">
          <mxGeometry x="160" y="351" width="41" height="53" as="geometry" />
        </mxCell>
        <mxCell id="keo_O-B1GyqZ8fwBsUim-9" style="edgeStyle=orthogonalEdgeStyle;rounded=0;orthogonalLoop=1;jettySize=auto;html=1;exitX=1;exitY=0.5;exitDx=0;exitDy=0;entryX=0;entryY=0.5;entryDx=0;entryDy=0;" edge="1" parent="1" source="keo_O-B1GyqZ8fwBsUim-2" target="keo_O-B1GyqZ8fwBsUim-8">
          <mxGeometry relative="1" as="geometry">
            <mxPoint x="380" y="377.5" as="targetPoint" />
          </mxGeometry>
        </mxCell>
        <mxCell id="keo_O-B1GyqZ8fwBsUim-2" value="" style="shape=image;verticalLabelPosition=bottom;labelBackgroundColor=#ffffff;verticalAlign=top;aspect=fixed;imageAspect=0;image=data:image/svg+xml,PHN2ZyB4bWxuczpjYz0iaHR0cDovL2NyZWF0aXZlY29tbW9ucy5vcmcvbnMjIiB4bWxuczpkYz0iaHR0cDovL3B1cmwub3JnL2RjL2VsZW1lbnRzLzEuMS8iIHhtbG5zOmlua3NjYXBlPSJodHRwOi8vd3d3Lmlua3NjYXBlLm9yZy9uYW1lc3BhY2VzL2lua3NjYXBlIiB4bWxuczpyZGY9Imh0dHA6Ly93d3cudzMub3JnLzE5OTkvMDIvMjItcmRmLXN5bnRheC1ucyMiIHhtbG5zOnNvZGlwb2RpPSJodHRwOi8vc29kaXBvZGkuc291cmNlZm9yZ2UubmV0L0RURC9zb2RpcG9kaS0wLmR0ZCIgeG1sbnM6c3ZnPSJodHRwOi8vd3d3LnczLm9yZy8yMDAwL3N2ZyIgeG1sbnM9Imh0dHA6Ly93d3cudzMub3JnLzIwMDAvc3ZnIiB4bWxuczp4bGluaz0iaHR0cDovL3d3dy53My5vcmcvMTk5OS94bGluayIgdmVyc2lvbj0iMS4xIiBpZD0ic3ZnNzY2MjIiIGlua3NjYXBlOnZlcnNpb249IjAuOTIuMyAoMjQwNTU0NiwgMjAxOC0wMy0xMSkiIHNvZGlwb2RpOmRvY25hbWU9ImRhdGFfY29ubmVjdGlvbnMuc3ZnIiB4PSIwcHgiIHk9IjBweCIgdmlld0JveD0iMCAwIDE4LjE2IDI0LjA0IiBzdHlsZT0iZW5hYmxlLWJhY2tncm91bmQ6bmV3IDAgMCAxOC4xNiAyNC4wNDsiIHhtbDpzcGFjZT0icHJlc2VydmUiPiYjeGE7PHNvZGlwb2RpOm5hbWVkdmlldyBib3JkZXJjb2xvcj0iIzY2NjY2NiIgYm9yZGVyb3BhY2l0eT0iMSIgZml0LW1hcmdpbi1ib3R0b209IjAiIGZpdC1tYXJnaW4tbGVmdD0iMCIgZml0LW1hcmdpbi1yaWdodD0iMCIgZml0LW1hcmdpbi10b3A9IjAiIGdyaWR0b2xlcmFuY2U9IjEwIiBndWlkZXRvbGVyYW5jZT0iMTAiIGlkPSJuYW1lZHZpZXc3NjYyNCIgaW5rc2NhcGU6Y3VycmVudC1sYXllcj0ic3ZnNzY2MjIiIGlua3NjYXBlOmN4PSIxMy42MDI3NzEiIGlua3NjYXBlOmN5PSIxMi40OTI5OTMiIGlua3NjYXBlOnBhZ2VvcGFjaXR5PSIwIiBpbmtzY2FwZTpwYWdlc2hhZG93PSIyIiBpbmtzY2FwZTp3aW5kb3ctaGVpZ2h0PSIxMDE3IiBpbmtzY2FwZTp3aW5kb3ctbWF4aW1pemVkPSIxIiBpbmtzY2FwZTp3aW5kb3ctd2lkdGg9IjE5MjAiIGlua3NjYXBlOndpbmRvdy14PSItOCIgaW5rc2NhcGU6d2luZG93LXk9Ii04IiBpbmtzY2FwZTp6b29tPSIxOS4xMjI1MTEiIG9iamVjdHRvbGVyYW5jZT0iMTAiIHBhZ2Vjb2xvcj0iI2ZmZmZmZiIgc2hvd2dyaWQ9ImZhbHNlIj4mI3hhOwk8L3NvZGlwb2RpOm5hbWVkdmlldz4mI3hhOzxnIGlkPSJnNzY2MjAiIHRyYW5zZm9ybT0idHJhbnNsYXRlKDAsLTAuMDAxODYzOCkiPiYjeGE7CTx0aXRsZSBpZD0idGl0bGU3NjU3MCI+UGFnZS0xPC90aXRsZT4mI3hhOwk8ZyBpZD0iZ3JvdXA0NTY5LTEiPiYjeGE7CQk8dGl0bGUgaWQ9InRpdGxlNzY1NzIiPkRhdGEgQ29ubmVjdGlvbnM8L3RpdGxlPiYjeGE7CQk8ZyBpZD0ic2hhcGU0NTcwLTIiPiYjeGE7CQkJPHRpdGxlIGlkPSJ0aXRsZTc2NTc0Ij5TaGVldC40NTcwPC90aXRsZT4mI3hhOwkJCTxwYXRoIGlkPSJwYXRoNzY1NzYiIGlua3NjYXBlOmNvbm5lY3Rvci1jdXJ2YXR1cmU9IjAiIHN0eWxlPSJmaWxsOiMwMEJDRjI7IiBkPSJNMCwzLjMyYzAsMTcuNDUsMCwxNy40NSwwLDE3LjQ1ICAgICBjMCwxLjgsNC4xMywzLjI3LDkuMTgsMy4yN2MwLTIwLjcyLDAtMjAuNzIsMC0yMC43MkwwLDMuMzJ6Ii8+JiN4YTsJCTwvZz4mI3hhOwkJPGcgaWQ9InNoYXBlNDU3MS00IiB0cmFuc2Zvcm09InRyYW5zbGF0ZSg4Ljk4NDU3KSI+JiN4YTsJCQk8dGl0bGUgaWQ9InRpdGxlNzY1NzkiPlNoZWV0LjQ1NzE8L3RpdGxlPiYjeGE7CQkJPHBhdGggaWQ9InBhdGg3NjU4MSIgaW5rc2NhcGU6Y29ubmVjdG9yLWN1cnZhdHVyZT0iMCIgc3R5bGU9ImZpbGw6IzI5QzdGNDsiIGQ9Ik0wLDI0LjA0YzAuMTIsMCwwLjEyLDAsMC4xMiwwICAgICBjNS4wMSwwLDkuMDYtMS40Nyw5LjA2LTMuMjdjMC0xNy40NSwwLTE3LjQ1LDAtMTcuNDVDMCwzLjMyLDAsMy4zMiwwLDMuMzJWMjQuMDR6Ii8+JiN4YTsJCTwvZz4mI3hhOwkJPGcgaWQ9InNoYXBlNDU3Mi02IiB0cmFuc2Zvcm09InRyYW5zbGF0ZSgwLC0xNy4zOTgyKSI+JiN4YTsJCQk8dGl0bGUgaWQ9InRpdGxlNzY1ODQiPlNoZWV0LjQ1NzI8L3RpdGxlPiYjeGE7CQkJPHBhdGggaWQ9InBhdGg3NjU4NiIgaW5rc2NhcGU6Y29ubmVjdG9yLWN1cnZhdHVyZT0iMCIgc3R5bGU9ImZpbGw6I0ZGRkZGRjsiIGQ9Ik0wLDIwLjcyYzAtMS44Myw0LjA4LTMuMzIsOS4wOC0zLjMyICAgICBjNS4wMiwwLDkuMDgsMS40OSw5LjA4LDMuMzJjMCwxLjg1LTQuMDYsMy4zMi05LjA4LDMuMzJDNC4wOCwyNC4wNCwwLDIyLjU3LDAsMjAuNzJ6Ii8+JiN4YTsJCTwvZz4mI3hhOwkJPGcgaWQ9InNoYXBlNDU3My04IiB0cmFuc2Zvcm09InRyYW5zbGF0ZSgxLjk1MzE3LC0xOC43NjY2KSI+JiN4YTsJCQk8dGl0bGUgaWQ9InRpdGxlNzY1ODkiPlNoZWV0LjQ1NzM8L3RpdGxlPiYjeGE7CQkJPHBhdGggaWQ9InBhdGg3NjU5MSIgaW5rc2NhcGU6Y29ubmVjdG9yLWN1cnZhdHVyZT0iMCIgc3R5bGU9ImZpbGw6Izg1QjM1MTsiIGQ9Ik0wLDIxLjg5YzAtMS4xOCwzLjItMi4xNSw3LjEzLTIuMTUgICAgIGMzLjk0LDAsNy4xMywwLjk3LDcuMTMsMi4xNWMwLDEuMi0zLjE5LDIuMTUtNy4xMywyLjE1QzMuMiwyNC4wNCwwLDIzLjA5LDAsMjEuODl6Ii8+JiN4YTsJCTwvZz4mI3hhOwkJPGcgaWQ9InNoYXBlNDU3NC0xMCIgdHJhbnNmb3JtPSJ0cmFuc2xhdGUoMS45NTMxNywtMTkuNTQ4NikiPiYjeGE7CQkJPHRpdGxlIGlkPSJ0aXRsZTc2NTk0Ij5TaGVldC40NTc0PC90aXRsZT4mI3hhOwkJCTxwYXRoIGlkPSJwYXRoNzY1OTYiIGlua3NjYXBlOmNvbm5lY3Rvci1jdXJ2YXR1cmU9IjAiIHN0eWxlPSJmaWxsOiNCQUM4NEE7IiBkPSJNMTIuNzYsMjQuMDRjMC45Mi0wLjM5LDEuNS0wLjgxLDEuNS0xLjMxICAgICBjMC0xLjIzLTMuMi0yLjItNy4xMy0yLjJTMCwyMS41LDAsMjIuNzNjMCwwLjUsMC41OSwwLjkyLDEuNTEsMS4zMWMxLjMxLTAuNSwzLjMxLTAuODUsNS42Mi0wLjg1ICAgICBDOS40MSwyMy4xOSwxMS40NSwyMy41NCwxMi43NiwyNC4wNHoiLz4mI3hhOwkJPC9nPiYjeGE7CQk8ZyBpZD0ic2hhcGU0NTc1LTEyIiB0cmFuc2Zvcm09InRyYW5zbGF0ZSgyLjUzOTEyLC02LjA2MDA2KSI+JiN4YTsJCQk8dGl0bGUgaWQ9InRpdGxlNzY1OTkiPlNoZWV0LjQ1NzU8L3RpdGxlPiYjeGE7CQkJPHBhdGggaWQ9InBhdGg3NjYwMSIgaW5rc2NhcGU6Y29ubmVjdG9yLWN1cnZhdHVyZT0iMCIgc3R5bGU9ImZpbGw6I0ZGRkZGRjsiIGQ9Ik0xMi4zNSwyMy40MmMtMC41LDAuNDMtMS4xMiwwLjYyLTEuOTcsMC42MiAgICAgYy0yLjgyLDAtMi44MiwwLTIuODIsMGMwLTcuNDIsMC03LjQyLDAtNy40MmMyLjY3LDAsMi42NywwLDIuNjcsMGMwLjg1LDAsMS40NiwwLjEyLDEuOTMsMC40N2MwLjQzLDAuMjcsMC42MiwwLjcsMC42MiwxLjI1ICAgICBjMCwwLjQzLTAuMTYsMC43OC0wLjQ2LDEuMTRjLTAuMjcsMC4yMy0wLjU5LDAuNDItMC45NywwLjU1bDAsMGMwLjU0LDAuMDcsMC45NywwLjI2LDEuMjcsMC42MmMwLjMyLDAuMzIsMC40NywwLjcxLDAuNDcsMS4xNyAgICAgQzEzLjA5LDIyLjQ4LDEyLjgyLDIzLjAzLDEyLjM1LDIzLjQyeiBNNS40NywyMi45OWMtMC43LDAuNzEtMS42NywxLjA1LTIuODMsMS4wNWMtMi42NCwwLTIuNjQsMC0yLjY0LDBjMC03LjQyLDAtNy40MiwwLTcuNDIgICAgIGMyLjY0LDAsMi42NCwwLDIuNjQsMGMyLjYsMCwzLjksMS4xNywzLjksMy42QzYuNTQsMjEuMzksNi4yLDIyLjI5LDUuNDcsMjIuOTl6Ii8+JiN4YTsJCTwvZz4mI3hhOwkJPGcgaWQ9InNoYXBlNDU3Ni0xNCIgdHJhbnNmb3JtPSJ0cmFuc2xhdGUoNC4xMDE2NSwtNy40Mjg0NikiPiYjeGE7CQkJPHRpdGxlIGlkPSJ0aXRsZTc2NjA0Ij5TaGVldC40NTc2PC90aXRsZT4mI3hhOwkJCTxwYXRoIGlkPSJwYXRoNzY2MDYiIGlua3NjYXBlOmNvbm5lY3Rvci1jdXJ2YXR1cmU9IjAiIHN0eWxlPSJmaWxsOiMwMEJDRjI7IiBkPSJNMC44NywxOS4zNWMtMC44NywwLTAuODcsMC0wLjg3LDAgICAgIGMwLDQuNjksMCw0LjY5LDAsNC42OWMwLjg3LDAsMC44NywwLDAuODcsMGMwLjc4LDAsMS4zOS0wLjIzLDEuOC0wLjY0YzAuNDYtMC40MywwLjY1LTEuMDIsMC42NS0xLjc1YzAtMC43LTAuMTktMS4yNS0wLjYxLTEuNjcgICAgIEMyLjI2LDE5LjYsMS42NSwxOS4zNSwwLjg3LDE5LjM1eiIvPiYjeGE7CQk8L2c+JiN4YTsJCTxnIGlkPSJzaGFwZTQ1NzctMTYiIHRyYW5zZm9ybT0idHJhbnNsYXRlKDExLjcxOSwtMTAuMzYwNykiPiYjeGE7CQkJPHRpdGxlIGlkPSJ0aXRsZTc2NjA5Ij5TaGVldC40NTc3PC90aXRsZT4mI3hhOwkJCTxwYXRoIGlkPSJwYXRoNzY2MTEiIGlua3NjYXBlOmNvbm5lY3Rvci1jdXJ2YXR1cmU9IjAiIHN0eWxlPSJmaWxsOiMyOUM3RjQ7IiBkPSJNMS42MiwyMy44MWMwLjIxLTAuMTksMC4zMy0wLjQzLDAuMzMtMC42OSAgICAgYzAtMC41NS0wLjQxLTAuODMtMS4yOC0wLjgzYy0wLjY3LDAtMC42NywwLTAuNjcsMGMwLDEuNzUsMCwxLjc1LDAsMS43NWMwLjc5LDAsMC43OSwwLDAuNzksMEMxLjEyLDI0LjA0LDEuNDIsMjMuOTcsMS42MiwyMy44MSAgICAgeiIvPiYjeGE7CQk8L2c+JiN4YTsJCTxnIGlkPSJzaGFwZTQ1NzgtMTgiIHRyYW5zZm9ybT0idHJhbnNsYXRlKDExLjcxOSwtNy4yMzI5NykiPiYjeGE7CQkJPHRpdGxlIGlkPSJ0aXRsZTc2NjE0Ij5TaGVldC40NTc4PC90aXRsZT4mI3hhOwkJCTxwYXRoIGlkPSJwYXRoNzY2MTYiIGlua3NjYXBlOmNvbm5lY3Rvci1jdXJ2YXR1cmU9IjAiIHN0eWxlPSJmaWxsOiMyOUM3RjQ7IiBkPSJNMS44MSwyMi4zM2MtMC4yLTAuMTUtMC41LTAuMjQtMC44OC0wLjI0ICAgICBjLTAuOTMsMC0wLjkzLDAtMC45MywwYzAsMS45NSwwLDEuOTUsMCwxLjk1YzAuOTMsMCwwLjkzLDAsMC45MywwYzAuMzgsMCwwLjY4LTAuMDcsMC44OC0wLjI2YzAuMjMtMC4yLDAuMzQtMC40MywwLjM0LTAuNzUgICAgIEMyLjE1LDIyLjc2LDIuMDQsMjIuNTMsMS44MSwyMi4zM3oiLz4mI3hhOwkJPC9nPiYjeGE7CTwvZz4mI3hhOzwvZz4mI3hhOzwvc3ZnPg==;" vertex="1" parent="1">
          <mxGeometry x="270" y="350" width="42" height="55" as="geometry" />
        </mxCell>
        <mxCell id="keo_O-B1GyqZ8fwBsUim-5" value="Filter-out system designated tickets" style="text;html=1;strokeColor=none;fillColor=none;align=center;verticalAlign=middle;whiteSpace=wrap;rounded=0;" vertex="1" parent="1">
          <mxGeometry x="200" y="430" width="70" height="20" as="geometry" />
        </mxCell>
        <mxCell id="keo_O-B1GyqZ8fwBsUim-14" style="edgeStyle=orthogonalEdgeStyle;rounded=0;orthogonalLoop=1;jettySize=auto;html=1;exitX=1;exitY=0.5;exitDx=0;exitDy=0;entryX=0;entryY=0.5;entryDx=0;entryDy=0;" edge="1" parent="1" source="keo_O-B1GyqZ8fwBsUim-8" target="keo_O-B1GyqZ8fwBsUim-13">
          <mxGeometry relative="1" as="geometry">
            <Array as="points">
              <mxPoint x="460" y="378" />
              <mxPoint x="460" y="217" />
            </Array>
          </mxGeometry>
        </mxCell>
        <mxCell id="keo_O-B1GyqZ8fwBsUim-8" value="" style="shape=image;verticalLabelPosition=bottom;labelBackgroundColor=#ffffff;verticalAlign=top;aspect=fixed;imageAspect=0;image=data:image/svg+xml,PHN2ZyB4bWxuczpjYz0iaHR0cDovL2NyZWF0aXZlY29tbW9ucy5vcmcvbnMjIiB4bWxuczpkYz0iaHR0cDovL3B1cmwub3JnL2RjL2VsZW1lbnRzLzEuMS8iIHhtbG5zOmlua3NjYXBlPSJodHRwOi8vd3d3Lmlua3NjYXBlLm9yZy9uYW1lc3BhY2VzL2lua3NjYXBlIiB4bWxuczpyZGY9Imh0dHA6Ly93d3cudzMub3JnLzE5OTkvMDIvMjItcmRmLXN5bnRheC1ucyMiIHhtbG5zOnNvZGlwb2RpPSJodHRwOi8vc29kaXBvZGkuc291cmNlZm9yZ2UubmV0L0RURC9zb2RpcG9kaS0wLmR0ZCIgeG1sbnM6c3ZnPSJodHRwOi8vd3d3LnczLm9yZy8yMDAwL3N2ZyIgeG1sbnM9Imh0dHA6Ly93d3cudzMub3JnLzIwMDAvc3ZnIiB4bWxuczp4bGluaz0iaHR0cDovL3d3dy53My5vcmcvMTk5OS94bGluayIgdmVyc2lvbj0iMS4xIiBpZD0ic3ZnNzY2MjIiIGlua3NjYXBlOnZlcnNpb249IjAuOTIuMyAoMjQwNTU0NiwgMjAxOC0wMy0xMSkiIHNvZGlwb2RpOmRvY25hbWU9ImRhdGFfY29ubmVjdGlvbnMuc3ZnIiB4PSIwcHgiIHk9IjBweCIgdmlld0JveD0iMCAwIDE4LjE2IDI0LjA0IiBzdHlsZT0iZW5hYmxlLWJhY2tncm91bmQ6bmV3IDAgMCAxOC4xNiAyNC4wNDsiIHhtbDpzcGFjZT0icHJlc2VydmUiPiYjeGE7PHNvZGlwb2RpOm5hbWVkdmlldyBib3JkZXJjb2xvcj0iIzY2NjY2NiIgYm9yZGVyb3BhY2l0eT0iMSIgZml0LW1hcmdpbi1ib3R0b209IjAiIGZpdC1tYXJnaW4tbGVmdD0iMCIgZml0LW1hcmdpbi1yaWdodD0iMCIgZml0LW1hcmdpbi10b3A9IjAiIGdyaWR0b2xlcmFuY2U9IjEwIiBndWlkZXRvbGVyYW5jZT0iMTAiIGlkPSJuYW1lZHZpZXc3NjYyNCIgaW5rc2NhcGU6Y3VycmVudC1sYXllcj0ic3ZnNzY2MjIiIGlua3NjYXBlOmN4PSIxMy42MDI3NzEiIGlua3NjYXBlOmN5PSIxMi40OTI5OTMiIGlua3NjYXBlOnBhZ2VvcGFjaXR5PSIwIiBpbmtzY2FwZTpwYWdlc2hhZG93PSIyIiBpbmtzY2FwZTp3aW5kb3ctaGVpZ2h0PSIxMDE3IiBpbmtzY2FwZTp3aW5kb3ctbWF4aW1pemVkPSIxIiBpbmtzY2FwZTp3aW5kb3ctd2lkdGg9IjE5MjAiIGlua3NjYXBlOndpbmRvdy14PSItOCIgaW5rc2NhcGU6d2luZG93LXk9Ii04IiBpbmtzY2FwZTp6b29tPSIxOS4xMjI1MTEiIG9iamVjdHRvbGVyYW5jZT0iMTAiIHBhZ2Vjb2xvcj0iI2ZmZmZmZiIgc2hvd2dyaWQ9ImZhbHNlIj4mI3hhOwk8L3NvZGlwb2RpOm5hbWVkdmlldz4mI3hhOzxnIGlkPSJnNzY2MjAiIHRyYW5zZm9ybT0idHJhbnNsYXRlKDAsLTAuMDAxODYzOCkiPiYjeGE7CTx0aXRsZSBpZD0idGl0bGU3NjU3MCI+UGFnZS0xPC90aXRsZT4mI3hhOwk8ZyBpZD0iZ3JvdXA0NTY5LTEiPiYjeGE7CQk8dGl0bGUgaWQ9InRpdGxlNzY1NzIiPkRhdGEgQ29ubmVjdGlvbnM8L3RpdGxlPiYjeGE7CQk8ZyBpZD0ic2hhcGU0NTcwLTIiPiYjeGE7CQkJPHRpdGxlIGlkPSJ0aXRsZTc2NTc0Ij5TaGVldC40NTcwPC90aXRsZT4mI3hhOwkJCTxwYXRoIGlkPSJwYXRoNzY1NzYiIGlua3NjYXBlOmNvbm5lY3Rvci1jdXJ2YXR1cmU9IjAiIHN0eWxlPSJmaWxsOiMwMEJDRjI7IiBkPSJNMCwzLjMyYzAsMTcuNDUsMCwxNy40NSwwLDE3LjQ1ICAgICBjMCwxLjgsNC4xMywzLjI3LDkuMTgsMy4yN2MwLTIwLjcyLDAtMjAuNzIsMC0yMC43MkwwLDMuMzJ6Ii8+JiN4YTsJCTwvZz4mI3hhOwkJPGcgaWQ9InNoYXBlNDU3MS00IiB0cmFuc2Zvcm09InRyYW5zbGF0ZSg4Ljk4NDU3KSI+JiN4YTsJCQk8dGl0bGUgaWQ9InRpdGxlNzY1NzkiPlNoZWV0LjQ1NzE8L3RpdGxlPiYjeGE7CQkJPHBhdGggaWQ9InBhdGg3NjU4MSIgaW5rc2NhcGU6Y29ubmVjdG9yLWN1cnZhdHVyZT0iMCIgc3R5bGU9ImZpbGw6IzI5QzdGNDsiIGQ9Ik0wLDI0LjA0YzAuMTIsMCwwLjEyLDAsMC4xMiwwICAgICBjNS4wMSwwLDkuMDYtMS40Nyw5LjA2LTMuMjdjMC0xNy40NSwwLTE3LjQ1LDAtMTcuNDVDMCwzLjMyLDAsMy4zMiwwLDMuMzJWMjQuMDR6Ii8+JiN4YTsJCTwvZz4mI3hhOwkJPGcgaWQ9InNoYXBlNDU3Mi02IiB0cmFuc2Zvcm09InRyYW5zbGF0ZSgwLC0xNy4zOTgyKSI+JiN4YTsJCQk8dGl0bGUgaWQ9InRpdGxlNzY1ODQiPlNoZWV0LjQ1NzI8L3RpdGxlPiYjeGE7CQkJPHBhdGggaWQ9InBhdGg3NjU4NiIgaW5rc2NhcGU6Y29ubmVjdG9yLWN1cnZhdHVyZT0iMCIgc3R5bGU9ImZpbGw6I0ZGRkZGRjsiIGQ9Ik0wLDIwLjcyYzAtMS44Myw0LjA4LTMuMzIsOS4wOC0zLjMyICAgICBjNS4wMiwwLDkuMDgsMS40OSw5LjA4LDMuMzJjMCwxLjg1LTQuMDYsMy4zMi05LjA4LDMuMzJDNC4wOCwyNC4wNCwwLDIyLjU3LDAsMjAuNzJ6Ii8+JiN4YTsJCTwvZz4mI3hhOwkJPGcgaWQ9InNoYXBlNDU3My04IiB0cmFuc2Zvcm09InRyYW5zbGF0ZSgxLjk1MzE3LC0xOC43NjY2KSI+JiN4YTsJCQk8dGl0bGUgaWQ9InRpdGxlNzY1ODkiPlNoZWV0LjQ1NzM8L3RpdGxlPiYjeGE7CQkJPHBhdGggaWQ9InBhdGg3NjU5MSIgaW5rc2NhcGU6Y29ubmVjdG9yLWN1cnZhdHVyZT0iMCIgc3R5bGU9ImZpbGw6Izg1QjM1MTsiIGQ9Ik0wLDIxLjg5YzAtMS4xOCwzLjItMi4xNSw3LjEzLTIuMTUgICAgIGMzLjk0LDAsNy4xMywwLjk3LDcuMTMsMi4xNWMwLDEuMi0zLjE5LDIuMTUtNy4xMywyLjE1QzMuMiwyNC4wNCwwLDIzLjA5LDAsMjEuODl6Ii8+JiN4YTsJCTwvZz4mI3hhOwkJPGcgaWQ9InNoYXBlNDU3NC0xMCIgdHJhbnNmb3JtPSJ0cmFuc2xhdGUoMS45NTMxNywtMTkuNTQ4NikiPiYjeGE7CQkJPHRpdGxlIGlkPSJ0aXRsZTc2NTk0Ij5TaGVldC40NTc0PC90aXRsZT4mI3hhOwkJCTxwYXRoIGlkPSJwYXRoNzY1OTYiIGlua3NjYXBlOmNvbm5lY3Rvci1jdXJ2YXR1cmU9IjAiIHN0eWxlPSJmaWxsOiNCQUM4NEE7IiBkPSJNMTIuNzYsMjQuMDRjMC45Mi0wLjM5LDEuNS0wLjgxLDEuNS0xLjMxICAgICBjMC0xLjIzLTMuMi0yLjItNy4xMy0yLjJTMCwyMS41LDAsMjIuNzNjMCwwLjUsMC41OSwwLjkyLDEuNTEsMS4zMWMxLjMxLTAuNSwzLjMxLTAuODUsNS42Mi0wLjg1ICAgICBDOS40MSwyMy4xOSwxMS40NSwyMy41NCwxMi43NiwyNC4wNHoiLz4mI3hhOwkJPC9nPiYjeGE7CQk8ZyBpZD0ic2hhcGU0NTc1LTEyIiB0cmFuc2Zvcm09InRyYW5zbGF0ZSgyLjUzOTEyLC02LjA2MDA2KSI+JiN4YTsJCQk8dGl0bGUgaWQ9InRpdGxlNzY1OTkiPlNoZWV0LjQ1NzU8L3RpdGxlPiYjeGE7CQkJPHBhdGggaWQ9InBhdGg3NjYwMSIgaW5rc2NhcGU6Y29ubmVjdG9yLWN1cnZhdHVyZT0iMCIgc3R5bGU9ImZpbGw6I0ZGRkZGRjsiIGQ9Ik0xMi4zNSwyMy40MmMtMC41LDAuNDMtMS4xMiwwLjYyLTEuOTcsMC42MiAgICAgYy0yLjgyLDAtMi44MiwwLTIuODIsMGMwLTcuNDIsMC03LjQyLDAtNy40MmMyLjY3LDAsMi42NywwLDIuNjcsMGMwLjg1LDAsMS40NiwwLjEyLDEuOTMsMC40N2MwLjQzLDAuMjcsMC42MiwwLjcsMC42MiwxLjI1ICAgICBjMCwwLjQzLTAuMTYsMC43OC0wLjQ2LDEuMTRjLTAuMjcsMC4yMy0wLjU5LDAuNDItMC45NywwLjU1bDAsMGMwLjU0LDAuMDcsMC45NywwLjI2LDEuMjcsMC42MmMwLjMyLDAuMzIsMC40NywwLjcxLDAuNDcsMS4xNyAgICAgQzEzLjA5LDIyLjQ4LDEyLjgyLDIzLjAzLDEyLjM1LDIzLjQyeiBNNS40NywyMi45OWMtMC43LDAuNzEtMS42NywxLjA1LTIuODMsMS4wNWMtMi42NCwwLTIuNjQsMC0yLjY0LDBjMC03LjQyLDAtNy40MiwwLTcuNDIgICAgIGMyLjY0LDAsMi42NCwwLDIuNjQsMGMyLjYsMCwzLjksMS4xNywzLjksMy42QzYuNTQsMjEuMzksNi4yLDIyLjI5LDUuNDcsMjIuOTl6Ii8+JiN4YTsJCTwvZz4mI3hhOwkJPGcgaWQ9InNoYXBlNDU3Ni0xNCIgdHJhbnNmb3JtPSJ0cmFuc2xhdGUoNC4xMDE2NSwtNy40Mjg0NikiPiYjeGE7CQkJPHRpdGxlIGlkPSJ0aXRsZTc2NjA0Ij5TaGVldC40NTc2PC90aXRsZT4mI3hhOwkJCTxwYXRoIGlkPSJwYXRoNzY2MDYiIGlua3NjYXBlOmNvbm5lY3Rvci1jdXJ2YXR1cmU9IjAiIHN0eWxlPSJmaWxsOiMwMEJDRjI7IiBkPSJNMC44NywxOS4zNWMtMC44NywwLTAuODcsMC0wLjg3LDAgICAgIGMwLDQuNjksMCw0LjY5LDAsNC42OWMwLjg3LDAsMC44NywwLDAuODcsMGMwLjc4LDAsMS4zOS0wLjIzLDEuOC0wLjY0YzAuNDYtMC40MywwLjY1LTEuMDIsMC42NS0xLjc1YzAtMC43LTAuMTktMS4yNS0wLjYxLTEuNjcgICAgIEMyLjI2LDE5LjYsMS42NSwxOS4zNSwwLjg3LDE5LjM1eiIvPiYjeGE7CQk8L2c+JiN4YTsJCTxnIGlkPSJzaGFwZTQ1NzctMTYiIHRyYW5zZm9ybT0idHJhbnNsYXRlKDExLjcxOSwtMTAuMzYwNykiPiYjeGE7CQkJPHRpdGxlIGlkPSJ0aXRsZTc2NjA5Ij5TaGVldC40NTc3PC90aXRsZT4mI3hhOwkJCTxwYXRoIGlkPSJwYXRoNzY2MTEiIGlua3NjYXBlOmNvbm5lY3Rvci1jdXJ2YXR1cmU9IjAiIHN0eWxlPSJmaWxsOiMyOUM3RjQ7IiBkPSJNMS42MiwyMy44MWMwLjIxLTAuMTksMC4zMy0wLjQzLDAuMzMtMC42OSAgICAgYzAtMC41NS0wLjQxLTAuODMtMS4yOC0wLjgzYy0wLjY3LDAtMC42NywwLTAuNjcsMGMwLDEuNzUsMCwxLjc1LDAsMS43NWMwLjc5LDAsMC43OSwwLDAuNzksMEMxLjEyLDI0LjA0LDEuNDIsMjMuOTcsMS42MiwyMy44MSAgICAgeiIvPiYjeGE7CQk8L2c+JiN4YTsJCTxnIGlkPSJzaGFwZTQ1NzgtMTgiIHRyYW5zZm9ybT0idHJhbnNsYXRlKDExLjcxOSwtNy4yMzI5NykiPiYjeGE7CQkJPHRpdGxlIGlkPSJ0aXRsZTc2NjE0Ij5TaGVldC40NTc4PC90aXRsZT4mI3hhOwkJCTxwYXRoIGlkPSJwYXRoNzY2MTYiIGlua3NjYXBlOmNvbm5lY3Rvci1jdXJ2YXR1cmU9IjAiIHN0eWxlPSJmaWxsOiMyOUM3RjQ7IiBkPSJNMS44MSwyMi4zM2MtMC4yLTAuMTUtMC41LTAuMjQtMC44OC0wLjI0ICAgICBjLTAuOTMsMC0wLjkzLDAtMC45MywwYzAsMS45NSwwLDEuOTUsMCwxLjk1YzAuOTMsMCwwLjkzLDAsMC45MywwYzAuMzgsMCwwLjY4LTAuMDcsMC44OC0wLjI2YzAuMjMtMC4yLDAuMzQtMC40MywwLjM0LTAuNzUgICAgIEMyLjE1LDIyLjc2LDIuMDQsMjIuNTMsMS44MSwyMi4zM3oiLz4mI3hhOwkJPC9nPiYjeGE7CTwvZz4mI3hhOzwvZz4mI3hhOzwvc3ZnPg==;" vertex="1" parent="1">
          <mxGeometry x="380" y="350" width="42" height="55" as="geometry" />
        </mxCell>
        <mxCell id="keo_O-B1GyqZ8fwBsUim-10" value="Filter out (fuzzy) duplicates" style="text;html=1;strokeColor=none;fillColor=none;align=center;verticalAlign=middle;whiteSpace=wrap;rounded=0;" vertex="1" parent="1">
          <mxGeometry x="310" y="430" width="70" height="20" as="geometry" />
        </mxCell>
        <mxCell id="keo_O-B1GyqZ8fwBsUim-18" style="edgeStyle=orthogonalEdgeStyle;rounded=0;orthogonalLoop=1;jettySize=auto;html=1;exitX=1;exitY=0.5;exitDx=0;exitDy=0;entryX=0;entryY=0.5;entryDx=0;entryDy=0;" edge="1" parent="1" source="keo_O-B1GyqZ8fwBsUim-13" target="keo_O-B1GyqZ8fwBsUim-16">
          <mxGeometry relative="1" as="geometry" />
        </mxCell>
        <mxCell id="keo_O-B1GyqZ8fwBsUim-19" style="edgeStyle=orthogonalEdgeStyle;rounded=0;orthogonalLoop=1;jettySize=auto;html=1;exitX=1;exitY=0.5;exitDx=0;exitDy=0;entryX=0;entryY=0.5;entryDx=0;entryDy=0;" edge="1" parent="1" source="keo_O-B1GyqZ8fwBsUim-13" target="keo_O-B1GyqZ8fwBsUim-17">
          <mxGeometry relative="1" as="geometry" />
        </mxCell>
        <mxCell id="keo_O-B1GyqZ8fwBsUim-13" value="" style="shape=image;verticalLabelPosition=bottom;labelBackgroundColor=#ffffff;verticalAlign=top;aspect=fixed;imageAspect=0;image=data:image/svg+xml,PHN2ZyB4bWxuczpjYz0iaHR0cDovL2NyZWF0aXZlY29tbW9ucy5vcmcvbnMjIiB4bWxuczpkYz0iaHR0cDovL3B1cmwub3JnL2RjL2VsZW1lbnRzLzEuMS8iIHhtbG5zOmlua3NjYXBlPSJodHRwOi8vd3d3Lmlua3NjYXBlLm9yZy9uYW1lc3BhY2VzL2lua3NjYXBlIiB4bWxuczpyZGY9Imh0dHA6Ly93d3cudzMub3JnLzE5OTkvMDIvMjItcmRmLXN5bnRheC1ucyMiIHhtbG5zOnNvZGlwb2RpPSJodHRwOi8vc29kaXBvZGkuc291cmNlZm9yZ2UubmV0L0RURC9zb2RpcG9kaS0wLmR0ZCIgeG1sbnM6c3ZnPSJodHRwOi8vd3d3LnczLm9yZy8yMDAwL3N2ZyIgeG1sbnM9Imh0dHA6Ly93d3cudzMub3JnLzIwMDAvc3ZnIiB4bWxuczp4bGluaz0iaHR0cDovL3d3dy53My5vcmcvMTk5OS94bGluayIgdmVyc2lvbj0iMS4xIiBpZD0ic3ZnNzY2MjIiIGlua3NjYXBlOnZlcnNpb249IjAuOTIuMyAoMjQwNTU0NiwgMjAxOC0wMy0xMSkiIHNvZGlwb2RpOmRvY25hbWU9ImRhdGFfY29ubmVjdGlvbnMuc3ZnIiB4PSIwcHgiIHk9IjBweCIgdmlld0JveD0iMCAwIDE4LjE2IDI0LjA0IiBzdHlsZT0iZW5hYmxlLWJhY2tncm91bmQ6bmV3IDAgMCAxOC4xNiAyNC4wNDsiIHhtbDpzcGFjZT0icHJlc2VydmUiPiYjeGE7PHNvZGlwb2RpOm5hbWVkdmlldyBib3JkZXJjb2xvcj0iIzY2NjY2NiIgYm9yZGVyb3BhY2l0eT0iMSIgZml0LW1hcmdpbi1ib3R0b209IjAiIGZpdC1tYXJnaW4tbGVmdD0iMCIgZml0LW1hcmdpbi1yaWdodD0iMCIgZml0LW1hcmdpbi10b3A9IjAiIGdyaWR0b2xlcmFuY2U9IjEwIiBndWlkZXRvbGVyYW5jZT0iMTAiIGlkPSJuYW1lZHZpZXc3NjYyNCIgaW5rc2NhcGU6Y3VycmVudC1sYXllcj0ic3ZnNzY2MjIiIGlua3NjYXBlOmN4PSIxMy42MDI3NzEiIGlua3NjYXBlOmN5PSIxMi40OTI5OTMiIGlua3NjYXBlOnBhZ2VvcGFjaXR5PSIwIiBpbmtzY2FwZTpwYWdlc2hhZG93PSIyIiBpbmtzY2FwZTp3aW5kb3ctaGVpZ2h0PSIxMDE3IiBpbmtzY2FwZTp3aW5kb3ctbWF4aW1pemVkPSIxIiBpbmtzY2FwZTp3aW5kb3ctd2lkdGg9IjE5MjAiIGlua3NjYXBlOndpbmRvdy14PSItOCIgaW5rc2NhcGU6d2luZG93LXk9Ii04IiBpbmtzY2FwZTp6b29tPSIxOS4xMjI1MTEiIG9iamVjdHRvbGVyYW5jZT0iMTAiIHBhZ2Vjb2xvcj0iI2ZmZmZmZiIgc2hvd2dyaWQ9ImZhbHNlIj4mI3hhOwk8L3NvZGlwb2RpOm5hbWVkdmlldz4mI3hhOzxnIGlkPSJnNzY2MjAiIHRyYW5zZm9ybT0idHJhbnNsYXRlKDAsLTAuMDAxODYzOCkiPiYjeGE7CTx0aXRsZSBpZD0idGl0bGU3NjU3MCI+UGFnZS0xPC90aXRsZT4mI3hhOwk8ZyBpZD0iZ3JvdXA0NTY5LTEiPiYjeGE7CQk8dGl0bGUgaWQ9InRpdGxlNzY1NzIiPkRhdGEgQ29ubmVjdGlvbnM8L3RpdGxlPiYjeGE7CQk8ZyBpZD0ic2hhcGU0NTcwLTIiPiYjeGE7CQkJPHRpdGxlIGlkPSJ0aXRsZTc2NTc0Ij5TaGVldC40NTcwPC90aXRsZT4mI3hhOwkJCTxwYXRoIGlkPSJwYXRoNzY1NzYiIGlua3NjYXBlOmNvbm5lY3Rvci1jdXJ2YXR1cmU9IjAiIHN0eWxlPSJmaWxsOiMwMEJDRjI7IiBkPSJNMCwzLjMyYzAsMTcuNDUsMCwxNy40NSwwLDE3LjQ1ICAgICBjMCwxLjgsNC4xMywzLjI3LDkuMTgsMy4yN2MwLTIwLjcyLDAtMjAuNzIsMC0yMC43MkwwLDMuMzJ6Ii8+JiN4YTsJCTwvZz4mI3hhOwkJPGcgaWQ9InNoYXBlNDU3MS00IiB0cmFuc2Zvcm09InRyYW5zbGF0ZSg4Ljk4NDU3KSI+JiN4YTsJCQk8dGl0bGUgaWQ9InRpdGxlNzY1NzkiPlNoZWV0LjQ1NzE8L3RpdGxlPiYjeGE7CQkJPHBhdGggaWQ9InBhdGg3NjU4MSIgaW5rc2NhcGU6Y29ubmVjdG9yLWN1cnZhdHVyZT0iMCIgc3R5bGU9ImZpbGw6IzI5QzdGNDsiIGQ9Ik0wLDI0LjA0YzAuMTIsMCwwLjEyLDAsMC4xMiwwICAgICBjNS4wMSwwLDkuMDYtMS40Nyw5LjA2LTMuMjdjMC0xNy40NSwwLTE3LjQ1LDAtMTcuNDVDMCwzLjMyLDAsMy4zMiwwLDMuMzJWMjQuMDR6Ii8+JiN4YTsJCTwvZz4mI3hhOwkJPGcgaWQ9InNoYXBlNDU3Mi02IiB0cmFuc2Zvcm09InRyYW5zbGF0ZSgwLC0xNy4zOTgyKSI+JiN4YTsJCQk8dGl0bGUgaWQ9InRpdGxlNzY1ODQiPlNoZWV0LjQ1NzI8L3RpdGxlPiYjeGE7CQkJPHBhdGggaWQ9InBhdGg3NjU4NiIgaW5rc2NhcGU6Y29ubmVjdG9yLWN1cnZhdHVyZT0iMCIgc3R5bGU9ImZpbGw6I0ZGRkZGRjsiIGQ9Ik0wLDIwLjcyYzAtMS44Myw0LjA4LTMuMzIsOS4wOC0zLjMyICAgICBjNS4wMiwwLDkuMDgsMS40OSw5LjA4LDMuMzJjMCwxLjg1LTQuMDYsMy4zMi05LjA4LDMuMzJDNC4wOCwyNC4wNCwwLDIyLjU3LDAsMjAuNzJ6Ii8+JiN4YTsJCTwvZz4mI3hhOwkJPGcgaWQ9InNoYXBlNDU3My04IiB0cmFuc2Zvcm09InRyYW5zbGF0ZSgxLjk1MzE3LC0xOC43NjY2KSI+JiN4YTsJCQk8dGl0bGUgaWQ9InRpdGxlNzY1ODkiPlNoZWV0LjQ1NzM8L3RpdGxlPiYjeGE7CQkJPHBhdGggaWQ9InBhdGg3NjU5MSIgaW5rc2NhcGU6Y29ubmVjdG9yLWN1cnZhdHVyZT0iMCIgc3R5bGU9ImZpbGw6Izg1QjM1MTsiIGQ9Ik0wLDIxLjg5YzAtMS4xOCwzLjItMi4xNSw3LjEzLTIuMTUgICAgIGMzLjk0LDAsNy4xMywwLjk3LDcuMTMsMi4xNWMwLDEuMi0zLjE5LDIuMTUtNy4xMywyLjE1QzMuMiwyNC4wNCwwLDIzLjA5LDAsMjEuODl6Ii8+JiN4YTsJCTwvZz4mI3hhOwkJPGcgaWQ9InNoYXBlNDU3NC0xMCIgdHJhbnNmb3JtPSJ0cmFuc2xhdGUoMS45NTMxNywtMTkuNTQ4NikiPiYjeGE7CQkJPHRpdGxlIGlkPSJ0aXRsZTc2NTk0Ij5TaGVldC40NTc0PC90aXRsZT4mI3hhOwkJCTxwYXRoIGlkPSJwYXRoNzY1OTYiIGlua3NjYXBlOmNvbm5lY3Rvci1jdXJ2YXR1cmU9IjAiIHN0eWxlPSJmaWxsOiNCQUM4NEE7IiBkPSJNMTIuNzYsMjQuMDRjMC45Mi0wLjM5LDEuNS0wLjgxLDEuNS0xLjMxICAgICBjMC0xLjIzLTMuMi0yLjItNy4xMy0yLjJTMCwyMS41LDAsMjIuNzNjMCwwLjUsMC41OSwwLjkyLDEuNTEsMS4zMWMxLjMxLTAuNSwzLjMxLTAuODUsNS42Mi0wLjg1ICAgICBDOS40MSwyMy4xOSwxMS40NSwyMy41NCwxMi43NiwyNC4wNHoiLz4mI3hhOwkJPC9nPiYjeGE7CQk8ZyBpZD0ic2hhcGU0NTc1LTEyIiB0cmFuc2Zvcm09InRyYW5zbGF0ZSgyLjUzOTEyLC02LjA2MDA2KSI+JiN4YTsJCQk8dGl0bGUgaWQ9InRpdGxlNzY1OTkiPlNoZWV0LjQ1NzU8L3RpdGxlPiYjeGE7CQkJPHBhdGggaWQ9InBhdGg3NjYwMSIgaW5rc2NhcGU6Y29ubmVjdG9yLWN1cnZhdHVyZT0iMCIgc3R5bGU9ImZpbGw6I0ZGRkZGRjsiIGQ9Ik0xMi4zNSwyMy40MmMtMC41LDAuNDMtMS4xMiwwLjYyLTEuOTcsMC42MiAgICAgYy0yLjgyLDAtMi44MiwwLTIuODIsMGMwLTcuNDIsMC03LjQyLDAtNy40MmMyLjY3LDAsMi42NywwLDIuNjcsMGMwLjg1LDAsMS40NiwwLjEyLDEuOTMsMC40N2MwLjQzLDAuMjcsMC42MiwwLjcsMC42MiwxLjI1ICAgICBjMCwwLjQzLTAuMTYsMC43OC0wLjQ2LDEuMTRjLTAuMjcsMC4yMy0wLjU5LDAuNDItMC45NywwLjU1bDAsMGMwLjU0LDAuMDcsMC45NywwLjI2LDEuMjcsMC42MmMwLjMyLDAuMzIsMC40NywwLjcxLDAuNDcsMS4xNyAgICAgQzEzLjA5LDIyLjQ4LDEyLjgyLDIzLjAzLDEyLjM1LDIzLjQyeiBNNS40NywyMi45OWMtMC43LDAuNzEtMS42NywxLjA1LTIuODMsMS4wNWMtMi42NCwwLTIuNjQsMC0yLjY0LDBjMC03LjQyLDAtNy40MiwwLTcuNDIgICAgIGMyLjY0LDAsMi42NCwwLDIuNjQsMGMyLjYsMCwzLjksMS4xNywzLjksMy42QzYuNTQsMjEuMzksNi4yLDIyLjI5LDUuNDcsMjIuOTl6Ii8+JiN4YTsJCTwvZz4mI3hhOwkJPGcgaWQ9InNoYXBlNDU3Ni0xNCIgdHJhbnNmb3JtPSJ0cmFuc2xhdGUoNC4xMDE2NSwtNy40Mjg0NikiPiYjeGE7CQkJPHRpdGxlIGlkPSJ0aXRsZTc2NjA0Ij5TaGVldC40NTc2PC90aXRsZT4mI3hhOwkJCTxwYXRoIGlkPSJwYXRoNzY2MDYiIGlua3NjYXBlOmNvbm5lY3Rvci1jdXJ2YXR1cmU9IjAiIHN0eWxlPSJmaWxsOiMwMEJDRjI7IiBkPSJNMC44NywxOS4zNWMtMC44NywwLTAuODcsMC0wLjg3LDAgICAgIGMwLDQuNjksMCw0LjY5LDAsNC42OWMwLjg3LDAsMC44NywwLDAuODcsMGMwLjc4LDAsMS4zOS0wLjIzLDEuOC0wLjY0YzAuNDYtMC40MywwLjY1LTEuMDIsMC42NS0xLjc1YzAtMC43LTAuMTktMS4yNS0wLjYxLTEuNjcgICAgIEMyLjI2LDE5LjYsMS42NSwxOS4zNSwwLjg3LDE5LjM1eiIvPiYjeGE7CQk8L2c+JiN4YTsJCTxnIGlkPSJzaGFwZTQ1NzctMTYiIHRyYW5zZm9ybT0idHJhbnNsYXRlKDExLjcxOSwtMTAuMzYwNykiPiYjeGE7CQkJPHRpdGxlIGlkPSJ0aXRsZTc2NjA5Ij5TaGVldC40NTc3PC90aXRsZT4mI3hhOwkJCTxwYXRoIGlkPSJwYXRoNzY2MTEiIGlua3NjYXBlOmNvbm5lY3Rvci1jdXJ2YXR1cmU9IjAiIHN0eWxlPSJmaWxsOiMyOUM3RjQ7IiBkPSJNMS42MiwyMy44MWMwLjIxLTAuMTksMC4zMy0wLjQzLDAuMzMtMC42OSAgICAgYzAtMC41NS0wLjQxLTAuODMtMS4yOC0wLjgzYy0wLjY3LDAtMC42NywwLTAuNjcsMGMwLDEuNzUsMCwxLjc1LDAsMS43NWMwLjc5LDAsMC43OSwwLDAuNzksMEMxLjEyLDI0LjA0LDEuNDIsMjMuOTcsMS42MiwyMy44MSAgICAgeiIvPiYjeGE7CQk8L2c+JiN4YTsJCTxnIGlkPSJzaGFwZTQ1NzgtMTgiIHRyYW5zZm9ybT0idHJhbnNsYXRlKDExLjcxOSwtNy4yMzI5NykiPiYjeGE7CQkJPHRpdGxlIGlkPSJ0aXRsZTc2NjE0Ij5TaGVldC40NTc4PC90aXRsZT4mI3hhOwkJCTxwYXRoIGlkPSJwYXRoNzY2MTYiIGlua3NjYXBlOmNvbm5lY3Rvci1jdXJ2YXR1cmU9IjAiIHN0eWxlPSJmaWxsOiMyOUM3RjQ7IiBkPSJNMS44MSwyMi4zM2MtMC4yLTAuMTUtMC41LTAuMjQtMC44OC0wLjI0ICAgICBjLTAuOTMsMC0wLjkzLDAtMC45MywwYzAsMS45NSwwLDEuOTUsMCwxLjk1YzAuOTMsMCwwLjkzLDAsMC45MywwYzAuMzgsMCwwLjY4LTAuMDcsMC44OC0wLjI2YzAuMjMtMC4yLDAuMzQtMC40MywwLjM0LTAuNzUgICAgIEMyLjE1LDIyLjc2LDIuMDQsMjIuNTMsMS44MSwyMi4zM3oiLz4mI3hhOwkJPC9nPiYjeGE7CTwvZz4mI3hhOzwvZz4mI3hhOzwvc3ZnPg==;" vertex="1" parent="1">
          <mxGeometry x="660" y="190" width="42" height="55" as="geometry" />
        </mxCell>
        <mxCell id="keo_O-B1GyqZ8fwBsUim-15" value="1. Deep learning pipeline" style="text;html=1;strokeColor=none;fillColor=none;align=center;verticalAlign=middle;whiteSpace=wrap;rounded=0;" vertex="1" parent="1">
          <mxGeometry x="480" y="190" width="160" height="20" as="geometry" />
        </mxCell>
        <mxCell id="keo_O-B1GyqZ8fwBsUim-28" style="edgeStyle=orthogonalEdgeStyle;rounded=0;orthogonalLoop=1;jettySize=auto;html=1;exitX=1;exitY=0.5;exitDx=0;exitDy=0;entryX=0;entryY=0.5;entryDx=0;entryDy=0;" edge="1" parent="1">
          <mxGeometry relative="1" as="geometry">
            <mxPoint x="970" y="177.5" as="sourcePoint" />
            <mxPoint x="1028" y="177.5" as="targetPoint" />
          </mxGeometry>
        </mxCell>
        <mxCell id="keo_O-B1GyqZ8fwBsUim-16" value="" style="shape=image;verticalLabelPosition=bottom;labelBackgroundColor=#ffffff;verticalAlign=top;aspect=fixed;imageAspect=0;image=data:image/svg+xml,PHN2ZyB4bWxuczpjYz0iaHR0cDovL2NyZWF0aXZlY29tbW9ucy5vcmcvbnMjIiB4bWxuczpkYz0iaHR0cDovL3B1cmwub3JnL2RjL2VsZW1lbnRzLzEuMS8iIHhtbG5zOmlua3NjYXBlPSJodHRwOi8vd3d3Lmlua3NjYXBlLm9yZy9uYW1lc3BhY2VzL2lua3NjYXBlIiB4bWxuczpyZGY9Imh0dHA6Ly93d3cudzMub3JnLzE5OTkvMDIvMjItcmRmLXN5bnRheC1ucyMiIHhtbG5zOnNvZGlwb2RpPSJodHRwOi8vc29kaXBvZGkuc291cmNlZm9yZ2UubmV0L0RURC9zb2RpcG9kaS0wLmR0ZCIgeG1sbnM6c3ZnPSJodHRwOi8vd3d3LnczLm9yZy8yMDAwL3N2ZyIgeG1sbnM9Imh0dHA6Ly93d3cudzMub3JnLzIwMDAvc3ZnIiB4bWxuczp4bGluaz0iaHR0cDovL3d3dy53My5vcmcvMTk5OS94bGluayIgdmVyc2lvbj0iMS4xIiBpZD0ic3ZnNzY2MjIiIGlua3NjYXBlOnZlcnNpb249IjAuOTIuMyAoMjQwNTU0NiwgMjAxOC0wMy0xMSkiIHNvZGlwb2RpOmRvY25hbWU9ImRhdGFfY29ubmVjdGlvbnMuc3ZnIiB4PSIwcHgiIHk9IjBweCIgdmlld0JveD0iMCAwIDE4LjE2IDI0LjA0IiBzdHlsZT0iZW5hYmxlLWJhY2tncm91bmQ6bmV3IDAgMCAxOC4xNiAyNC4wNDsiIHhtbDpzcGFjZT0icHJlc2VydmUiPiYjeGE7PHNvZGlwb2RpOm5hbWVkdmlldyBib3JkZXJjb2xvcj0iIzY2NjY2NiIgYm9yZGVyb3BhY2l0eT0iMSIgZml0LW1hcmdpbi1ib3R0b209IjAiIGZpdC1tYXJnaW4tbGVmdD0iMCIgZml0LW1hcmdpbi1yaWdodD0iMCIgZml0LW1hcmdpbi10b3A9IjAiIGdyaWR0b2xlcmFuY2U9IjEwIiBndWlkZXRvbGVyYW5jZT0iMTAiIGlkPSJuYW1lZHZpZXc3NjYyNCIgaW5rc2NhcGU6Y3VycmVudC1sYXllcj0ic3ZnNzY2MjIiIGlua3NjYXBlOmN4PSIxMy42MDI3NzEiIGlua3NjYXBlOmN5PSIxMi40OTI5OTMiIGlua3NjYXBlOnBhZ2VvcGFjaXR5PSIwIiBpbmtzY2FwZTpwYWdlc2hhZG93PSIyIiBpbmtzY2FwZTp3aW5kb3ctaGVpZ2h0PSIxMDE3IiBpbmtzY2FwZTp3aW5kb3ctbWF4aW1pemVkPSIxIiBpbmtzY2FwZTp3aW5kb3ctd2lkdGg9IjE5MjAiIGlua3NjYXBlOndpbmRvdy14PSItOCIgaW5rc2NhcGU6d2luZG93LXk9Ii04IiBpbmtzY2FwZTp6b29tPSIxOS4xMjI1MTEiIG9iamVjdHRvbGVyYW5jZT0iMTAiIHBhZ2Vjb2xvcj0iI2ZmZmZmZiIgc2hvd2dyaWQ9ImZhbHNlIj4mI3hhOwk8L3NvZGlwb2RpOm5hbWVkdmlldz4mI3hhOzxnIGlkPSJnNzY2MjAiIHRyYW5zZm9ybT0idHJhbnNsYXRlKDAsLTAuMDAxODYzOCkiPiYjeGE7CTx0aXRsZSBpZD0idGl0bGU3NjU3MCI+UGFnZS0xPC90aXRsZT4mI3hhOwk8ZyBpZD0iZ3JvdXA0NTY5LTEiPiYjeGE7CQk8dGl0bGUgaWQ9InRpdGxlNzY1NzIiPkRhdGEgQ29ubmVjdGlvbnM8L3RpdGxlPiYjeGE7CQk8ZyBpZD0ic2hhcGU0NTcwLTIiPiYjeGE7CQkJPHRpdGxlIGlkPSJ0aXRsZTc2NTc0Ij5TaGVldC40NTcwPC90aXRsZT4mI3hhOwkJCTxwYXRoIGlkPSJwYXRoNzY1NzYiIGlua3NjYXBlOmNvbm5lY3Rvci1jdXJ2YXR1cmU9IjAiIHN0eWxlPSJmaWxsOiMwMEJDRjI7IiBkPSJNMCwzLjMyYzAsMTcuNDUsMCwxNy40NSwwLDE3LjQ1ICAgICBjMCwxLjgsNC4xMywzLjI3LDkuMTgsMy4yN2MwLTIwLjcyLDAtMjAuNzIsMC0yMC43MkwwLDMuMzJ6Ii8+JiN4YTsJCTwvZz4mI3hhOwkJPGcgaWQ9InNoYXBlNDU3MS00IiB0cmFuc2Zvcm09InRyYW5zbGF0ZSg4Ljk4NDU3KSI+JiN4YTsJCQk8dGl0bGUgaWQ9InRpdGxlNzY1NzkiPlNoZWV0LjQ1NzE8L3RpdGxlPiYjeGE7CQkJPHBhdGggaWQ9InBhdGg3NjU4MSIgaW5rc2NhcGU6Y29ubmVjdG9yLWN1cnZhdHVyZT0iMCIgc3R5bGU9ImZpbGw6IzI5QzdGNDsiIGQ9Ik0wLDI0LjA0YzAuMTIsMCwwLjEyLDAsMC4xMiwwICAgICBjNS4wMSwwLDkuMDYtMS40Nyw5LjA2LTMuMjdjMC0xNy40NSwwLTE3LjQ1LDAtMTcuNDVDMCwzLjMyLDAsMy4zMiwwLDMuMzJWMjQuMDR6Ii8+JiN4YTsJCTwvZz4mI3hhOwkJPGcgaWQ9InNoYXBlNDU3Mi02IiB0cmFuc2Zvcm09InRyYW5zbGF0ZSgwLC0xNy4zOTgyKSI+JiN4YTsJCQk8dGl0bGUgaWQ9InRpdGxlNzY1ODQiPlNoZWV0LjQ1NzI8L3RpdGxlPiYjeGE7CQkJPHBhdGggaWQ9InBhdGg3NjU4NiIgaW5rc2NhcGU6Y29ubmVjdG9yLWN1cnZhdHVyZT0iMCIgc3R5bGU9ImZpbGw6I0ZGRkZGRjsiIGQ9Ik0wLDIwLjcyYzAtMS44Myw0LjA4LTMuMzIsOS4wOC0zLjMyICAgICBjNS4wMiwwLDkuMDgsMS40OSw5LjA4LDMuMzJjMCwxLjg1LTQuMDYsMy4zMi05LjA4LDMuMzJDNC4wOCwyNC4wNCwwLDIyLjU3LDAsMjAuNzJ6Ii8+JiN4YTsJCTwvZz4mI3hhOwkJPGcgaWQ9InNoYXBlNDU3My04IiB0cmFuc2Zvcm09InRyYW5zbGF0ZSgxLjk1MzE3LC0xOC43NjY2KSI+JiN4YTsJCQk8dGl0bGUgaWQ9InRpdGxlNzY1ODkiPlNoZWV0LjQ1NzM8L3RpdGxlPiYjeGE7CQkJPHBhdGggaWQ9InBhdGg3NjU5MSIgaW5rc2NhcGU6Y29ubmVjdG9yLWN1cnZhdHVyZT0iMCIgc3R5bGU9ImZpbGw6Izg1QjM1MTsiIGQ9Ik0wLDIxLjg5YzAtMS4xOCwzLjItMi4xNSw3LjEzLTIuMTUgICAgIGMzLjk0LDAsNy4xMywwLjk3LDcuMTMsMi4xNWMwLDEuMi0zLjE5LDIuMTUtNy4xMywyLjE1QzMuMiwyNC4wNCwwLDIzLjA5LDAsMjEuODl6Ii8+JiN4YTsJCTwvZz4mI3hhOwkJPGcgaWQ9InNoYXBlNDU3NC0xMCIgdHJhbnNmb3JtPSJ0cmFuc2xhdGUoMS45NTMxNywtMTkuNTQ4NikiPiYjeGE7CQkJPHRpdGxlIGlkPSJ0aXRsZTc2NTk0Ij5TaGVldC40NTc0PC90aXRsZT4mI3hhOwkJCTxwYXRoIGlkPSJwYXRoNzY1OTYiIGlua3NjYXBlOmNvbm5lY3Rvci1jdXJ2YXR1cmU9IjAiIHN0eWxlPSJmaWxsOiNCQUM4NEE7IiBkPSJNMTIuNzYsMjQuMDRjMC45Mi0wLjM5LDEuNS0wLjgxLDEuNS0xLjMxICAgICBjMC0xLjIzLTMuMi0yLjItNy4xMy0yLjJTMCwyMS41LDAsMjIuNzNjMCwwLjUsMC41OSwwLjkyLDEuNTEsMS4zMWMxLjMxLTAuNSwzLjMxLTAuODUsNS42Mi0wLjg1ICAgICBDOS40MSwyMy4xOSwxMS40NSwyMy41NCwxMi43NiwyNC4wNHoiLz4mI3hhOwkJPC9nPiYjeGE7CQk8ZyBpZD0ic2hhcGU0NTc1LTEyIiB0cmFuc2Zvcm09InRyYW5zbGF0ZSgyLjUzOTEyLC02LjA2MDA2KSI+JiN4YTsJCQk8dGl0bGUgaWQ9InRpdGxlNzY1OTkiPlNoZWV0LjQ1NzU8L3RpdGxlPiYjeGE7CQkJPHBhdGggaWQ9InBhdGg3NjYwMSIgaW5rc2NhcGU6Y29ubmVjdG9yLWN1cnZhdHVyZT0iMCIgc3R5bGU9ImZpbGw6I0ZGRkZGRjsiIGQ9Ik0xMi4zNSwyMy40MmMtMC41LDAuNDMtMS4xMiwwLjYyLTEuOTcsMC42MiAgICAgYy0yLjgyLDAtMi44MiwwLTIuODIsMGMwLTcuNDIsMC03LjQyLDAtNy40MmMyLjY3LDAsMi42NywwLDIuNjcsMGMwLjg1LDAsMS40NiwwLjEyLDEuOTMsMC40N2MwLjQzLDAuMjcsMC42MiwwLjcsMC42MiwxLjI1ICAgICBjMCwwLjQzLTAuMTYsMC43OC0wLjQ2LDEuMTRjLTAuMjcsMC4yMy0wLjU5LDAuNDItMC45NywwLjU1bDAsMGMwLjU0LDAuMDcsMC45NywwLjI2LDEuMjcsMC42MmMwLjMyLDAuMzIsMC40NywwLjcxLDAuNDcsMS4xNyAgICAgQzEzLjA5LDIyLjQ4LDEyLjgyLDIzLjAzLDEyLjM1LDIzLjQyeiBNNS40NywyMi45OWMtMC43LDAuNzEtMS42NywxLjA1LTIuODMsMS4wNWMtMi42NCwwLTIuNjQsMC0yLjY0LDBjMC03LjQyLDAtNy40MiwwLTcuNDIgICAgIGMyLjY0LDAsMi42NCwwLDIuNjQsMGMyLjYsMCwzLjksMS4xNywzLjksMy42QzYuNTQsMjEuMzksNi4yLDIyLjI5LDUuNDcsMjIuOTl6Ii8+JiN4YTsJCTwvZz4mI3hhOwkJPGcgaWQ9InNoYXBlNDU3Ni0xNCIgdHJhbnNmb3JtPSJ0cmFuc2xhdGUoNC4xMDE2NSwtNy40Mjg0NikiPiYjeGE7CQkJPHRpdGxlIGlkPSJ0aXRsZTc2NjA0Ij5TaGVldC40NTc2PC90aXRsZT4mI3hhOwkJCTxwYXRoIGlkPSJwYXRoNzY2MDYiIGlua3NjYXBlOmNvbm5lY3Rvci1jdXJ2YXR1cmU9IjAiIHN0eWxlPSJmaWxsOiMwMEJDRjI7IiBkPSJNMC44NywxOS4zNWMtMC44NywwLTAuODcsMC0wLjg3LDAgICAgIGMwLDQuNjksMCw0LjY5LDAsNC42OWMwLjg3LDAsMC44NywwLDAuODcsMGMwLjc4LDAsMS4zOS0wLjIzLDEuOC0wLjY0YzAuNDYtMC40MywwLjY1LTEuMDIsMC42NS0xLjc1YzAtMC43LTAuMTktMS4yNS0wLjYxLTEuNjcgICAgIEMyLjI2LDE5LjYsMS42NSwxOS4zNSwwLjg3LDE5LjM1eiIvPiYjeGE7CQk8L2c+JiN4YTsJCTxnIGlkPSJzaGFwZTQ1NzctMTYiIHRyYW5zZm9ybT0idHJhbnNsYXRlKDExLjcxOSwtMTAuMzYwNykiPiYjeGE7CQkJPHRpdGxlIGlkPSJ0aXRsZTc2NjA5Ij5TaGVldC40NTc3PC90aXRsZT4mI3hhOwkJCTxwYXRoIGlkPSJwYXRoNzY2MTEiIGlua3NjYXBlOmNvbm5lY3Rvci1jdXJ2YXR1cmU9IjAiIHN0eWxlPSJmaWxsOiMyOUM3RjQ7IiBkPSJNMS42MiwyMy44MWMwLjIxLTAuMTksMC4zMy0wLjQzLDAuMzMtMC42OSAgICAgYzAtMC41NS0wLjQxLTAuODMtMS4yOC0wLjgzYy0wLjY3LDAtMC42NywwLTAuNjcsMGMwLDEuNzUsMCwxLjc1LDAsMS43NWMwLjc5LDAsMC43OSwwLDAuNzksMEMxLjEyLDI0LjA0LDEuNDIsMjMuOTcsMS42MiwyMy44MSAgICAgeiIvPiYjeGE7CQk8L2c+JiN4YTsJCTxnIGlkPSJzaGFwZTQ1NzgtMTgiIHRyYW5zZm9ybT0idHJhbnNsYXRlKDExLjcxOSwtNy4yMzI5NykiPiYjeGE7CQkJPHRpdGxlIGlkPSJ0aXRsZTc2NjE0Ij5TaGVldC40NTc4PC90aXRsZT4mI3hhOwkJCTxwYXRoIGlkPSJwYXRoNzY2MTYiIGlua3NjYXBlOmNvbm5lY3Rvci1jdXJ2YXR1cmU9IjAiIHN0eWxlPSJmaWxsOiMyOUM3RjQ7IiBkPSJNMS44MSwyMi4zM2MtMC4yLTAuMTUtMC41LTAuMjQtMC44OC0wLjI0ICAgICBjLTAuOTMsMC0wLjkzLDAtMC45MywwYzAsMS45NSwwLDEuOTUsMCwxLjk1YzAuOTMsMCwwLjkzLDAsMC45MywwYzAuMzgsMCwwLjY4LTAuMDcsMC44OC0wLjI2YzAuMjMtMC4yLDAuMzQtMC40MywwLjM0LTAuNzUgICAgIEMyLjE1LDIyLjc2LDIuMDQsMjIuNTMsMS44MSwyMi4zM3oiLz4mI3hhOwkJPC9nPiYjeGE7CTwvZz4mI3hhOzwvZz4mI3hhOzwvc3ZnPg==;" vertex="1" parent="1">
          <mxGeometry x="809" y="150" width="42" height="55" as="geometry" />
        </mxCell>
        <mxCell id="keo_O-B1GyqZ8fwBsUim-29" style="edgeStyle=orthogonalEdgeStyle;rounded=0;orthogonalLoop=1;jettySize=auto;html=1;exitX=1;exitY=0.5;exitDx=0;exitDy=0;entryX=0;entryY=0.5;entryDx=0;entryDy=0;" edge="1" parent="1">
          <mxGeometry relative="1" as="geometry">
            <mxPoint x="970" y="257.5" as="sourcePoint" />
            <mxPoint x="1028" y="257.5" as="targetPoint" />
          </mxGeometry>
        </mxCell>
        <mxCell id="keo_O-B1GyqZ8fwBsUim-17" value="" style="shape=image;verticalLabelPosition=bottom;labelBackgroundColor=#ffffff;verticalAlign=top;aspect=fixed;imageAspect=0;image=data:image/svg+xml,PHN2ZyB4bWxuczpjYz0iaHR0cDovL2NyZWF0aXZlY29tbW9ucy5vcmcvbnMjIiB4bWxuczpkYz0iaHR0cDovL3B1cmwub3JnL2RjL2VsZW1lbnRzLzEuMS8iIHhtbG5zOmlua3NjYXBlPSJodHRwOi8vd3d3Lmlua3NjYXBlLm9yZy9uYW1lc3BhY2VzL2lua3NjYXBlIiB4bWxuczpyZGY9Imh0dHA6Ly93d3cudzMub3JnLzE5OTkvMDIvMjItcmRmLXN5bnRheC1ucyMiIHhtbG5zOnNvZGlwb2RpPSJodHRwOi8vc29kaXBvZGkuc291cmNlZm9yZ2UubmV0L0RURC9zb2RpcG9kaS0wLmR0ZCIgeG1sbnM6c3ZnPSJodHRwOi8vd3d3LnczLm9yZy8yMDAwL3N2ZyIgeG1sbnM9Imh0dHA6Ly93d3cudzMub3JnLzIwMDAvc3ZnIiB4bWxuczp4bGluaz0iaHR0cDovL3d3dy53My5vcmcvMTk5OS94bGluayIgdmVyc2lvbj0iMS4xIiBpZD0ic3ZnNzY2MjIiIGlua3NjYXBlOnZlcnNpb249IjAuOTIuMyAoMjQwNTU0NiwgMjAxOC0wMy0xMSkiIHNvZGlwb2RpOmRvY25hbWU9ImRhdGFfY29ubmVjdGlvbnMuc3ZnIiB4PSIwcHgiIHk9IjBweCIgdmlld0JveD0iMCAwIDE4LjE2IDI0LjA0IiBzdHlsZT0iZW5hYmxlLWJhY2tncm91bmQ6bmV3IDAgMCAxOC4xNiAyNC4wNDsiIHhtbDpzcGFjZT0icHJlc2VydmUiPiYjeGE7PHNvZGlwb2RpOm5hbWVkdmlldyBib3JkZXJjb2xvcj0iIzY2NjY2NiIgYm9yZGVyb3BhY2l0eT0iMSIgZml0LW1hcmdpbi1ib3R0b209IjAiIGZpdC1tYXJnaW4tbGVmdD0iMCIgZml0LW1hcmdpbi1yaWdodD0iMCIgZml0LW1hcmdpbi10b3A9IjAiIGdyaWR0b2xlcmFuY2U9IjEwIiBndWlkZXRvbGVyYW5jZT0iMTAiIGlkPSJuYW1lZHZpZXc3NjYyNCIgaW5rc2NhcGU6Y3VycmVudC1sYXllcj0ic3ZnNzY2MjIiIGlua3NjYXBlOmN4PSIxMy42MDI3NzEiIGlua3NjYXBlOmN5PSIxMi40OTI5OTMiIGlua3NjYXBlOnBhZ2VvcGFjaXR5PSIwIiBpbmtzY2FwZTpwYWdlc2hhZG93PSIyIiBpbmtzY2FwZTp3aW5kb3ctaGVpZ2h0PSIxMDE3IiBpbmtzY2FwZTp3aW5kb3ctbWF4aW1pemVkPSIxIiBpbmtzY2FwZTp3aW5kb3ctd2lkdGg9IjE5MjAiIGlua3NjYXBlOndpbmRvdy14PSItOCIgaW5rc2NhcGU6d2luZG93LXk9Ii04IiBpbmtzY2FwZTp6b29tPSIxOS4xMjI1MTEiIG9iamVjdHRvbGVyYW5jZT0iMTAiIHBhZ2Vjb2xvcj0iI2ZmZmZmZiIgc2hvd2dyaWQ9ImZhbHNlIj4mI3hhOwk8L3NvZGlwb2RpOm5hbWVkdmlldz4mI3hhOzxnIGlkPSJnNzY2MjAiIHRyYW5zZm9ybT0idHJhbnNsYXRlKDAsLTAuMDAxODYzOCkiPiYjeGE7CTx0aXRsZSBpZD0idGl0bGU3NjU3MCI+UGFnZS0xPC90aXRsZT4mI3hhOwk8ZyBpZD0iZ3JvdXA0NTY5LTEiPiYjeGE7CQk8dGl0bGUgaWQ9InRpdGxlNzY1NzIiPkRhdGEgQ29ubmVjdGlvbnM8L3RpdGxlPiYjeGE7CQk8ZyBpZD0ic2hhcGU0NTcwLTIiPiYjeGE7CQkJPHRpdGxlIGlkPSJ0aXRsZTc2NTc0Ij5TaGVldC40NTcwPC90aXRsZT4mI3hhOwkJCTxwYXRoIGlkPSJwYXRoNzY1NzYiIGlua3NjYXBlOmNvbm5lY3Rvci1jdXJ2YXR1cmU9IjAiIHN0eWxlPSJmaWxsOiMwMEJDRjI7IiBkPSJNMCwzLjMyYzAsMTcuNDUsMCwxNy40NSwwLDE3LjQ1ICAgICBjMCwxLjgsNC4xMywzLjI3LDkuMTgsMy4yN2MwLTIwLjcyLDAtMjAuNzIsMC0yMC43MkwwLDMuMzJ6Ii8+JiN4YTsJCTwvZz4mI3hhOwkJPGcgaWQ9InNoYXBlNDU3MS00IiB0cmFuc2Zvcm09InRyYW5zbGF0ZSg4Ljk4NDU3KSI+JiN4YTsJCQk8dGl0bGUgaWQ9InRpdGxlNzY1NzkiPlNoZWV0LjQ1NzE8L3RpdGxlPiYjeGE7CQkJPHBhdGggaWQ9InBhdGg3NjU4MSIgaW5rc2NhcGU6Y29ubmVjdG9yLWN1cnZhdHVyZT0iMCIgc3R5bGU9ImZpbGw6IzI5QzdGNDsiIGQ9Ik0wLDI0LjA0YzAuMTIsMCwwLjEyLDAsMC4xMiwwICAgICBjNS4wMSwwLDkuMDYtMS40Nyw5LjA2LTMuMjdjMC0xNy40NSwwLTE3LjQ1LDAtMTcuNDVDMCwzLjMyLDAsMy4zMiwwLDMuMzJWMjQuMDR6Ii8+JiN4YTsJCTwvZz4mI3hhOwkJPGcgaWQ9InNoYXBlNDU3Mi02IiB0cmFuc2Zvcm09InRyYW5zbGF0ZSgwLC0xNy4zOTgyKSI+JiN4YTsJCQk8dGl0bGUgaWQ9InRpdGxlNzY1ODQiPlNoZWV0LjQ1NzI8L3RpdGxlPiYjeGE7CQkJPHBhdGggaWQ9InBhdGg3NjU4NiIgaW5rc2NhcGU6Y29ubmVjdG9yLWN1cnZhdHVyZT0iMCIgc3R5bGU9ImZpbGw6I0ZGRkZGRjsiIGQ9Ik0wLDIwLjcyYzAtMS44Myw0LjA4LTMuMzIsOS4wOC0zLjMyICAgICBjNS4wMiwwLDkuMDgsMS40OSw5LjA4LDMuMzJjMCwxLjg1LTQuMDYsMy4zMi05LjA4LDMuMzJDNC4wOCwyNC4wNCwwLDIyLjU3LDAsMjAuNzJ6Ii8+JiN4YTsJCTwvZz4mI3hhOwkJPGcgaWQ9InNoYXBlNDU3My04IiB0cmFuc2Zvcm09InRyYW5zbGF0ZSgxLjk1MzE3LC0xOC43NjY2KSI+JiN4YTsJCQk8dGl0bGUgaWQ9InRpdGxlNzY1ODkiPlNoZWV0LjQ1NzM8L3RpdGxlPiYjeGE7CQkJPHBhdGggaWQ9InBhdGg3NjU5MSIgaW5rc2NhcGU6Y29ubmVjdG9yLWN1cnZhdHVyZT0iMCIgc3R5bGU9ImZpbGw6Izg1QjM1MTsiIGQ9Ik0wLDIxLjg5YzAtMS4xOCwzLjItMi4xNSw3LjEzLTIuMTUgICAgIGMzLjk0LDAsNy4xMywwLjk3LDcuMTMsMi4xNWMwLDEuMi0zLjE5LDIuMTUtNy4xMywyLjE1QzMuMiwyNC4wNCwwLDIzLjA5LDAsMjEuODl6Ii8+JiN4YTsJCTwvZz4mI3hhOwkJPGcgaWQ9InNoYXBlNDU3NC0xMCIgdHJhbnNmb3JtPSJ0cmFuc2xhdGUoMS45NTMxNywtMTkuNTQ4NikiPiYjeGE7CQkJPHRpdGxlIGlkPSJ0aXRsZTc2NTk0Ij5TaGVldC40NTc0PC90aXRsZT4mI3hhOwkJCTxwYXRoIGlkPSJwYXRoNzY1OTYiIGlua3NjYXBlOmNvbm5lY3Rvci1jdXJ2YXR1cmU9IjAiIHN0eWxlPSJmaWxsOiNCQUM4NEE7IiBkPSJNMTIuNzYsMjQuMDRjMC45Mi0wLjM5LDEuNS0wLjgxLDEuNS0xLjMxICAgICBjMC0xLjIzLTMuMi0yLjItNy4xMy0yLjJTMCwyMS41LDAsMjIuNzNjMCwwLjUsMC41OSwwLjkyLDEuNTEsMS4zMWMxLjMxLTAuNSwzLjMxLTAuODUsNS42Mi0wLjg1ICAgICBDOS40MSwyMy4xOSwxMS40NSwyMy41NCwxMi43NiwyNC4wNHoiLz4mI3hhOwkJPC9nPiYjeGE7CQk8ZyBpZD0ic2hhcGU0NTc1LTEyIiB0cmFuc2Zvcm09InRyYW5zbGF0ZSgyLjUzOTEyLC02LjA2MDA2KSI+JiN4YTsJCQk8dGl0bGUgaWQ9InRpdGxlNzY1OTkiPlNoZWV0LjQ1NzU8L3RpdGxlPiYjeGE7CQkJPHBhdGggaWQ9InBhdGg3NjYwMSIgaW5rc2NhcGU6Y29ubmVjdG9yLWN1cnZhdHVyZT0iMCIgc3R5bGU9ImZpbGw6I0ZGRkZGRjsiIGQ9Ik0xMi4zNSwyMy40MmMtMC41LDAuNDMtMS4xMiwwLjYyLTEuOTcsMC42MiAgICAgYy0yLjgyLDAtMi44MiwwLTIuODIsMGMwLTcuNDIsMC03LjQyLDAtNy40MmMyLjY3LDAsMi42NywwLDIuNjcsMGMwLjg1LDAsMS40NiwwLjEyLDEuOTMsMC40N2MwLjQzLDAuMjcsMC42MiwwLjcsMC42MiwxLjI1ICAgICBjMCwwLjQzLTAuMTYsMC43OC0wLjQ2LDEuMTRjLTAuMjcsMC4yMy0wLjU5LDAuNDItMC45NywwLjU1bDAsMGMwLjU0LDAuMDcsMC45NywwLjI2LDEuMjcsMC42MmMwLjMyLDAuMzIsMC40NywwLjcxLDAuNDcsMS4xNyAgICAgQzEzLjA5LDIyLjQ4LDEyLjgyLDIzLjAzLDEyLjM1LDIzLjQyeiBNNS40NywyMi45OWMtMC43LDAuNzEtMS42NywxLjA1LTIuODMsMS4wNWMtMi42NCwwLTIuNjQsMC0yLjY0LDBjMC03LjQyLDAtNy40MiwwLTcuNDIgICAgIGMyLjY0LDAsMi42NCwwLDIuNjQsMGMyLjYsMCwzLjksMS4xNywzLjksMy42QzYuNTQsMjEuMzksNi4yLDIyLjI5LDUuNDcsMjIuOTl6Ii8+JiN4YTsJCTwvZz4mI3hhOwkJPGcgaWQ9InNoYXBlNDU3Ni0xNCIgdHJhbnNmb3JtPSJ0cmFuc2xhdGUoNC4xMDE2NSwtNy40Mjg0NikiPiYjeGE7CQkJPHRpdGxlIGlkPSJ0aXRsZTc2NjA0Ij5TaGVldC40NTc2PC90aXRsZT4mI3hhOwkJCTxwYXRoIGlkPSJwYXRoNzY2MDYiIGlua3NjYXBlOmNvbm5lY3Rvci1jdXJ2YXR1cmU9IjAiIHN0eWxlPSJmaWxsOiMwMEJDRjI7IiBkPSJNMC44NywxOS4zNWMtMC44NywwLTAuODcsMC0wLjg3LDAgICAgIGMwLDQuNjksMCw0LjY5LDAsNC42OWMwLjg3LDAsMC44NywwLDAuODcsMGMwLjc4LDAsMS4zOS0wLjIzLDEuOC0wLjY0YzAuNDYtMC40MywwLjY1LTEuMDIsMC42NS0xLjc1YzAtMC43LTAuMTktMS4yNS0wLjYxLTEuNjcgICAgIEMyLjI2LDE5LjYsMS42NSwxOS4zNSwwLjg3LDE5LjM1eiIvPiYjeGE7CQk8L2c+JiN4YTsJCTxnIGlkPSJzaGFwZTQ1NzctMTYiIHRyYW5zZm9ybT0idHJhbnNsYXRlKDExLjcxOSwtMTAuMzYwNykiPiYjeGE7CQkJPHRpdGxlIGlkPSJ0aXRsZTc2NjA5Ij5TaGVldC40NTc3PC90aXRsZT4mI3hhOwkJCTxwYXRoIGlkPSJwYXRoNzY2MTEiIGlua3NjYXBlOmNvbm5lY3Rvci1jdXJ2YXR1cmU9IjAiIHN0eWxlPSJmaWxsOiMyOUM3RjQ7IiBkPSJNMS42MiwyMy44MWMwLjIxLTAuMTksMC4zMy0wLjQzLDAuMzMtMC42OSAgICAgYzAtMC41NS0wLjQxLTAuODMtMS4yOC0wLjgzYy0wLjY3LDAtMC42NywwLTAuNjcsMGMwLDEuNzUsMCwxLjc1LDAsMS43NWMwLjc5LDAsMC43OSwwLDAuNzksMEMxLjEyLDI0LjA0LDEuNDIsMjMuOTcsMS42MiwyMy44MSAgICAgeiIvPiYjeGE7CQk8L2c+JiN4YTsJCTxnIGlkPSJzaGFwZTQ1NzgtMTgiIHRyYW5zZm9ybT0idHJhbnNsYXRlKDExLjcxOSwtNy4yMzI5NykiPiYjeGE7CQkJPHRpdGxlIGlkPSJ0aXRsZTc2NjE0Ij5TaGVldC40NTc4PC90aXRsZT4mI3hhOwkJCTxwYXRoIGlkPSJwYXRoNzY2MTYiIGlua3NjYXBlOmNvbm5lY3Rvci1jdXJ2YXR1cmU9IjAiIHN0eWxlPSJmaWxsOiMyOUM3RjQ7IiBkPSJNMS44MSwyMi4zM2MtMC4yLTAuMTUtMC41LTAuMjQtMC44OC0wLjI0ICAgICBjLTAuOTMsMC0wLjkzLDAtMC45MywwYzAsMS45NSwwLDEuOTUsMCwxLjk1YzAuOTMsMCwwLjkzLDAsMC45MywwYzAuMzgsMCwwLjY4LTAuMDcsMC44OC0wLjI2YzAuMjMtMC4yLDAuMzQtMC40MywwLjM0LTAuNzUgICAgIEMyLjE1LDIyLjc2LDIuMDQsMjIuNTMsMS44MSwyMi4zM3oiLz4mI3hhOwkJPC9nPiYjeGE7CTwvZz4mI3hhOzwvZz4mI3hhOzwvc3ZnPg==;" vertex="1" parent="1">
          <mxGeometry x="809" y="230" width="42" height="55" as="geometry" />
        </mxCell>
        <mxCell id="keo_O-B1GyqZ8fwBsUim-20" value="Dutch tickets" style="text;html=1;strokeColor=none;fillColor=none;align=center;verticalAlign=middle;whiteSpace=wrap;rounded=0;" vertex="1" parent="1">
          <mxGeometry x="785" y="120" width="90" height="20" as="geometry" />
        </mxCell>
        <mxCell id="keo_O-B1GyqZ8fwBsUim-21" value="+" style="text;html=1;strokeColor=none;fillColor=none;align=center;verticalAlign=middle;whiteSpace=wrap;rounded=0;" vertex="1" parent="1">
          <mxGeometry x="870" y="248.5" width="20" height="20" as="geometry" />
        </mxCell>
        <mxCell id="keo_O-B1GyqZ8fwBsUim-31" value="" style="group" vertex="1" connectable="0" parent="1">
          <mxGeometry x="1037.9950000000001" y="140" width="47.410000000000025" height="65" as="geometry" />
        </mxCell>
        <mxCell id="keo_O-B1GyqZ8fwBsUim-32" value="" style="group" vertex="1" connectable="0" parent="keo_O-B1GyqZ8fwBsUim-31">
          <mxGeometry width="47.41" height="65" as="geometry" />
        </mxCell>
        <mxCell id="keo_O-B1GyqZ8fwBsUim-33" value="" style="shape=image;verticalLabelPosition=bottom;labelBackgroundColor=#ffffff;verticalAlign=top;aspect=fixed;imageAspect=0;image=data:image/svg+xml,PHN2ZyB4bWxuczpjYz0iaHR0cDovL2NyZWF0aXZlY29tbW9ucy5vcmcvbnMjIiB4bWxuczpkYz0iaHR0cDovL3B1cmwub3JnL2RjL2VsZW1lbnRzLzEuMS8iIHhtbG5zOmlua3NjYXBlPSJodHRwOi8vd3d3Lmlua3NjYXBlLm9yZy9uYW1lc3BhY2VzL2lua3NjYXBlIiB4bWxuczpyZGY9Imh0dHA6Ly93d3cudzMub3JnLzE5OTkvMDIvMjItcmRmLXN5bnRheC1ucyMiIHhtbG5zOnNvZGlwb2RpPSJodHRwOi8vc29kaXBvZGkuc291cmNlZm9yZ2UubmV0L0RURC9zb2RpcG9kaS0wLmR0ZCIgeG1sbnM6c3ZnPSJodHRwOi8vd3d3LnczLm9yZy8yMDAwL3N2ZyIgeG1sbnM9Imh0dHA6Ly93d3cudzMub3JnLzIwMDAvc3ZnIiB4bWxuczp4bGluaz0iaHR0cDovL3d3dy53My5vcmcvMTk5OS94bGluayIgdmVyc2lvbj0iMS4xIiBpZD0ic3ZnNjc4MzQiIGlua3NjYXBlOnZlcnNpb249IjAuOTIuMyAoMjQwNTU0NiwgMjAxOC0wMy0xMSkiIHNvZGlwb2RpOmRvY25hbWU9ImJvdC5zdmciIHg9IjBweCIgeT0iMHB4IiB2aWV3Qm94PSIwIDAgNjEuNjcgODUuMTciIHN0eWxlPSJlbmFibGUtYmFja2dyb3VuZDpuZXcgMCAwIDYxLjY3IDg1LjE3OyIgeG1sOnNwYWNlPSJwcmVzZXJ2ZSI+JiN4YTs8c29kaXBvZGk6bmFtZWR2aWV3IGJvcmRlcmNvbG9yPSIjNjY2NjY2IiBib3JkZXJvcGFjaXR5PSIxIiBmaXQtbWFyZ2luLWJvdHRvbT0iMCIgZml0LW1hcmdpbi1sZWZ0PSIwIiBmaXQtbWFyZ2luLXJpZ2h0PSIwIiBmaXQtbWFyZ2luLXRvcD0iMCIgZ3JpZHRvbGVyYW5jZT0iMTAiIGd1aWRldG9sZXJhbmNlPSIxMCIgaWQ9Im5hbWVkdmlldzY3ODM2IiBpbmtzY2FwZTpjdXJyZW50LWxheWVyPSJzdmc2NzgzNCIgaW5rc2NhcGU6Y3g9IjMwLjgzNTY0OCIgaW5rc2NhcGU6Y3k9IjQ4LjE2MTg3MSIgaW5rc2NhcGU6cGFnZW9wYWNpdHk9IjAiIGlua3NjYXBlOnBhZ2VzaGFkb3c9IjIiIGlua3NjYXBlOndpbmRvdy1oZWlnaHQ9IjEwMTciIGlua3NjYXBlOndpbmRvdy1tYXhpbWl6ZWQ9IjEiIGlua3NjYXBlOndpbmRvdy13aWR0aD0iMTkyMCIgaW5rc2NhcGU6d2luZG93LXg9Ii04IiBpbmtzY2FwZTp3aW5kb3cteT0iLTgiIGlua3NjYXBlOnpvb209IjUuMjk2NDI0OCIgb2JqZWN0dG9sZXJhbmNlPSIxMCIgcGFnZWNvbG9yPSIjZmZmZmZmIiBzaG93Z3JpZD0iZmFsc2UiPiYjeGE7CTwvc29kaXBvZGk6bmFtZWR2aWV3PiYjeGE7PGcgaWQ9Imc2NzgzMiIgdHJhbnNmb3JtPSJ0cmFuc2xhdGUoLTEuNTI5ODkzLC0wLjg5NDUwOTgpIj4mI3hhOwk8dGl0bGUgaWQ9InRpdGxlNjc2OTYiPlBhZ2UtMTwvdGl0bGU+JiN4YTsJPGcgaWQ9Imdyb3VwNTcwOS0xIiB0cmFuc2Zvcm09InRyYW5zbGF0ZSgzLjg3NzUsLTAuNzUpIj4mI3hhOwkJPHRpdGxlIGlkPSJ0aXRsZTY3Njk4Ij5Cb3Q8L3RpdGxlPiYjeGE7CQk8ZyBpZD0iZ3JvdXA1NzEwLTIiPiYjeGE7CQkJPHRpdGxlIGlkPSJ0aXRsZTY3NzAwIj5nNzA3MTwvdGl0bGU+JiN4YTsJCQk8ZyBpZD0iZ3JvdXA1NzExLTMiIHRyYW5zZm9ybT0idHJhbnNsYXRlKDI0LjYxMzgsLTU5LjI0MjUpIj4mI3hhOwkJCQk8dGl0bGUgaWQ9InRpdGxlNjc3MDIiPmc3MDQxPC90aXRsZT4mI3hhOwkJCQk8ZyBpZD0ic2hhcGU1NzEyLTQiIHRyYW5zZm9ybT0idHJhbnNsYXRlKDEuODYxMTYpIj4mI3hhOwkJCQkJPHRpdGxlIGlkPSJ0aXRsZTY3NzA0Ij5yZWN0NzAzNzwvdGl0bGU+JiN4YTsJCQkJCTxwYXRoIGlkPSJwYXRoNjc3MDYiIGlua3NjYXBlOmNvbm5lY3Rvci1jdXJ2YXR1cmU9IjAiIHN0eWxlPSJmaWxsOiMwMDc4RDc7IiBkPSJNMCw4NS4zMWMwLDAuODMsMC42NywxLjUsMS41LDEuNWgwLjI3ICAgICAgIGMwLjgzLDAsMS41LTAuNjcsMS41LTEuNVY3NS4yNWMwLTAuODMtMC42Ny0xLjUtMS41LTEuNUgxLjVjLTAuODMsMC0xLjUsMC42Ny0xLjUsMS41Vjg1LjMxeiIvPiYjeGE7CQkJCTwvZz4mI3hhOwkJCQk8ZyBpZD0ic2hhcGU1NzEzLTYiIHRyYW5zZm9ybT0idHJhbnNsYXRlKDAsLTEyLjA3MjYpIj4mI3hhOwkJCQkJPHRpdGxlIGlkPSJ0aXRsZTY3NzA5Ij5wYXRoNzAzOTwvdGl0bGU+JiN4YTsJCQkJCTxwYXRoIGlkPSJwYXRoNjc3MTEiIGlua3NjYXBlOmNvbm5lY3Rvci1jdXJ2YXR1cmU9IjAiIHN0eWxlPSJmaWxsOiMwMDc4RDc7IiBkPSJNMy41LDc4LjQ2Yy0yLjctMC4wMi00LjkxLDIuMTctNC45Miw0Ljg3ICAgICAgIHMyLjE3LDQuOTEsNC44Nyw0LjkyczQuOTEtMi4xNyw0LjkyLTQuODdjMCwwLDAtMC4wMSwwLTAuMDFDOC4zOCw4MC42Nyw2LjIsNzguNDgsMy41LDc4LjQ2eiBNMy41LDg1LjgxICAgICAgIGMtMS4zNSwwLTIuNDUtMS4xLTIuNDUtMi40NWMwLTEuMzUsMS4xLTIuNDUsMi40NS0yLjQ2czIuNDUsMS4xLDIuNDUsMi40NWMwLDAsMCwwLDAsMEM1Ljk1LDg0LjcxLDQuODYsODUuODIsMy41LDg1LjgxICAgICAgIGMwLDAuMDEsMCwwLjAxLDAsMC4wMVY4NS44MXoiLz4mI3hhOwkJCQk8L2c+JiN4YTsJCQk8L2c+JiN4YTsJCQk8ZyBpZD0ic2hhcGU1NzE0LTgiIHRyYW5zZm9ybT0idHJhbnNsYXRlKDExLjk4NSwtNDQuOTI1KSI+JiN4YTsJCQkJPHRpdGxlIGlkPSJ0aXRsZTY3NzE1Ij5yZWN0NzA0MzwvdGl0bGU+JiN4YTsJCQkJJiN4YTsJCQkJCTxwYXRoIGlkPSJwYXRoNjc3MTciIGlua3NjYXBlOmNvbm5lY3Rvci1jdXJ2YXR1cmU9IjAiIHN0eWxlPSJmaWxsOiNFNkU2RTY7c3Ryb2tlOiM3MzczNzM7c3Ryb2tlLXdpZHRoOjEuNTtzdHJva2UtbWl0ZXJsaW1pdDozOyIgZD0iICAgICAgTTAsODMuODFjMCwxLjY2LDEuMzQsMywzLDNoMjcuNzVjMS42NiwwLDMtMS4zNCwzLTN2LTEwLjVjMC0xLjY2LTEuMzQtMy0zLTNIM2MtMS42NiwwLTMsMS4zNC0zLDNWODMuODF6Ii8+JiN4YTsJCQk8L2c+JiN4YTsJCQk8ZyBpZD0ic2hhcGU1NzE1LTEwIiB0cmFuc2Zvcm09InRyYW5zbGF0ZSgxNy45ODUsLTQuOTEyNSkiPiYjeGE7CQkJCTx0aXRsZSBpZD0idGl0bGU2NzcyMCI+cmVjdDcwNDU8L3RpdGxlPiYjeGE7CQkJCTxwYXRoIGlkPSJwYXRoNjc3MjIiIGlua3NjYXBlOmNvbm5lY3Rvci1jdXJ2YXR1cmU9IjAiIHN0eWxlPSJmaWxsOiM3MzczNzM7IiBkPSJNMCw4NS4zMWMwLDAuODMsMC42NywxLjUsMS41LDEuNWgyLjQgICAgICBjMC44MywwLDEuNS0wLjY3LDEuNS0xLjV2LTEzLjJjMC0wLjgzLTAuNjctMS41LTEuNS0xLjVIMS41Yy0wLjgzLDAtMS41LDAuNjctMS41LDEuNVY4NS4zMXoiLz4mI3hhOwkJCTwvZz4mI3hhOwkJCTxnIGlkPSJzaGFwZTU3MTYtMTIiIHRyYW5zZm9ybT0idHJhbnNsYXRlKDE0LjMxKSI+JiN4YTsJCQkJPHRpdGxlIGlkPSJ0aXRsZTY3NzI1Ij5wYXRoNzA0NzwvdGl0bGU+JiN4YTsJCQkJPHBhdGggaWQ9InBhdGg2NzcyNyIgaW5rc2NhcGU6Y29ubmVjdG9yLWN1cnZhdHVyZT0iMCIgc3R5bGU9ImZpbGw6IzAwNzhENzsiIGQ9Ik02LjUzLDgwLjA2QzIuODYsODAuMTItMC4wNiw4My4xNCwwLDg2LjgxICAgICAgaDEzLjA2QzEzLjEyLDgzLjE0LDEwLjIsODAuMTIsNi41Myw4MC4wNnoiLz4mI3hhOwkJCTwvZz4mI3hhOwkJCTxnIGlkPSJzaGFwZTU3MTctMTQiIHRyYW5zZm9ybT0idHJhbnNsYXRlKDMyLjk4NSwtNC45MTI1KSI+JiN4YTsJCQkJPHRpdGxlIGlkPSJ0aXRsZTY3NzMwIj5yZWN0NzA0OTwvdGl0bGU+JiN4YTsJCQkJPHBhdGggaWQ9InBhdGg2NzczMiIgaW5rc2NhcGU6Y29ubmVjdG9yLWN1cnZhdHVyZT0iMCIgc3R5bGU9ImZpbGw6IzczNzM3MzsiIGQ9Ik0wLDg1LjMxYzAsMC44MywwLjY3LDEuNSwxLjUsMS41aDIuNCAgICAgIGMwLjgzLDAsMS41LTAuNjcsMS41LTEuNXYtMTMuMmMwLTAuODMtMC42Ny0xLjUtMS41LTEuNUgxLjVjLTAuODMsMC0xLjUsMC42Ny0xLjUsMS41Vjg1LjMxeiIvPiYjeGE7CQkJPC9nPiYjeGE7CQkJPGcgaWQ9InNoYXBlNTcxOC0xNiIgdHJhbnNmb3JtPSJ0cmFuc2xhdGUoMjkuMTYpIj4mI3hhOwkJCQk8dGl0bGUgaWQ9InRpdGxlNjc3MzUiPnBhdGg3MDUxPC90aXRsZT4mI3hhOwkJCQk8cGF0aCBpZD0icGF0aDY3NzM3IiBpbmtzY2FwZTpjb25uZWN0b3ItY3VydmF0dXJlPSIwIiBzdHlsZT0iZmlsbDojMDA3OEQ3OyIgZD0iTTYuNTMsODAuMDZDMi44Niw4MC4xMi0wLjA2LDgzLjE0LDAsODYuODEgICAgICBoMTMuMDZDMTMuMTIsODMuMTQsMTAuMiw4MC4xMiw2LjUzLDgwLjA2eiIvPiYjeGE7CQkJPC9nPiYjeGE7CQkJPGcgaWQ9InNoYXBlNTcxOS0xOCIgdHJhbnNmb3JtPSJyb3RhdGUoLTg1LjA2LC0xNS43NTM3ODksNTAuMTA4NTQxKSI+JiN4YTsJCQkJPHRpdGxlIGlkPSJ0aXRsZTY3NzQwIj5jaXJjbGU3MDUzPC90aXRsZT4mI3hhOwkJCQk8Y2lyY2xlIGlkPSJlbGxpcHNlNjc3NDIiIHN0eWxlPSJmaWxsOiMwMDIwNTA7IiBjeD0iMi43IiBjeT0iODQuMTEiIHI9IjIuNyIvPiYjeGE7CQkJPC9nPiYjeGE7CQkJPGcgaWQ9InNoYXBlNTcyMC0yMCIgdHJhbnNmb3JtPSJyb3RhdGUoLTg1LjA2LC02LjY0MDIyOTksNDAuMTczNTA0KSI+JiN4YTsJCQkJPHRpdGxlIGlkPSJ0aXRsZTY3NzQ1Ij5jaXJjbGU3MDU1PC90aXRsZT4mI3hhOwkJCQk8Y2lyY2xlIGlkPSJlbGxpcHNlNjc3NDciIHN0eWxlPSJmaWxsOiMwMDIwNTA7IiBjeD0iMi43IiBjeT0iODQuMTEiIHI9IjIuNyIvPiYjeGE7CQkJPC9nPiYjeGE7CQkJPGcgaWQ9InNoYXBlNTcyMS0yMiIgdHJhbnNmb3JtPSJ0cmFuc2xhdGUoMzkuMjg1LC0yNS44Mzc1KSI+JiN4YTsJCQkJPHRpdGxlIGlkPSJ0aXRsZTY3NzUwIj5wYXRoNzA1NzwvdGl0bGU+JiN4YTsJCQkJPHBhdGggaWQ9InBhdGg2Nzc1MiIgaW5rc2NhcGU6Y29ubmVjdG9yLWN1cnZhdHVyZT0iMCIgc3R5bGU9ImZpbGw6IzZENkU3MTsiIGQ9Ik0xNS41Miw4MC43NHY2LjA3aC0zLjM3di02LjEzICAgICAgYzAtMC40My0wLjA0LTAuODYtMC4xLTEuMjljLTAuNS0zLjMtMi44My01LjUxLTUuODYtNS41MUgwdi0zLjIzaDYuMjFjNC43LDAsOC42LDMuOTUsOS4yMiw4Ljc3ICAgICAgQzE1LjQ5LDc5Ljg2LDE1LjUyLDgwLjMsMTUuNTIsODAuNzR6Ii8+JiN4YTsJCQk8L2c+JiN4YTsJCQk8ZyBpZD0ic2hhcGU1NzIyLTI0IiB0cmFuc2Zvcm09InRyYW5zbGF0ZSg0OS45NSwtMTkuNSkiPiYjeGE7CQkJCTx0aXRsZSBpZD0idGl0bGU2Nzc1NSI+cGF0aDcwNTk8L3RpdGxlPiYjeGE7CQkJCTxwYXRoIGlkPSJwYXRoNjc3NTciIGlua3NjYXBlOmNvbm5lY3Rvci1jdXJ2YXR1cmU9IjAiIHN0eWxlPSJmaWxsOm5vbmU7IiBkPSJNMCw4Ni44MWMtMS40NS0xLjk0LTEuMDYtNC42OSwwLjg4LTYuMTQgICAgICBzNC42OS0xLjA2LDYuMTQsMC44OGMxLjE3LDEuNTYsMS4xNywzLjcxLDAsNS4yNkgweiIvPiYjeGE7CQkJCSYjeGE7CQkJCQk8cGF0aCBpZD0icGF0aDY3NzU5IiBpbmtzY2FwZTpjb25uZWN0b3ItY3VydmF0dXJlPSIwIiBzdHlsZT0iZmlsbDpub25lO3N0cm9rZTojNkQ2RTcxO3N0cm9rZS13aWR0aDozO3N0cm9rZS1taXRlcmxpbWl0OjM7IiBkPSIgICAgICBNMCw4Ni44MWMtMS40NS0xLjk0LTEuMDYtNC42OSwwLjg4LTYuMTRzNC42OS0xLjA2LDYuMTQsMC44OGMxLjE3LDEuNTYsMS4xNywzLjcxLDAsNS4yNiIvPiYjeGE7CQkJPC9nPiYjeGE7CQkJPGcgaWQ9InNoYXBlNTcyMy0yNyIgdHJhbnNmb3JtPSJ0cmFuc2xhdGUoNDEuMzEsLTMzLjI2MjUpIj4mI3hhOwkJCQk8dGl0bGUgaWQ9InRpdGxlNjc3NjIiPnBhdGg3MDYxPC90aXRsZT4mI3hhOwkJCQk8cGF0aCBpZD0icGF0aDY3NzY0IiBpbmtzY2FwZTpjb25uZWN0b3ItY3VydmF0dXJlPSIwIiBzdHlsZT0iZmlsbDojMDA3OEQ3OyIgZD0iTTEzLjQyLDg2LjgxaC0zLjM3ICAgICAgYy0wLjUtMy4yOS0yLjgzLTUuNS01Ljg3LTUuNUgwdi0zLjI0aDQuMThDOC45Miw3OC4wNywxMi43OSw4MS45OSwxMy40Miw4Ni44MXoiLz4mI3hhOwkJCTwvZz4mI3hhOwkJCTxnIGlkPSJzaGFwZTU3MjQtMjkiIHRyYW5zZm9ybT0idHJhbnNsYXRlKDIuMTYsLTI1LjgzNzUpIj4mI3hhOwkJCQk8dGl0bGUgaWQ9InRpdGxlNjc3NjciPnBhdGg3MDYzPC90aXRsZT4mI3hhOwkJCQk8cGF0aCBpZD0icGF0aDY3NzY5IiBpbmtzY2FwZTpjb25uZWN0b3ItY3VydmF0dXJlPSIwIiBzdHlsZT0iZmlsbDojNkQ2RTcxOyIgZD0iTTAsODAuNzR2Ni4wN2gzLjM3di02LjEzICAgICAgYzAtMC40MywwLjA0LTAuODYsMC4xLTEuMjljMC41LTMuMywyLjgzLTUuNTEsNS44Ny01LjUxaDYuMjF2LTMuMjNIOS4zNGMtNC43MSwwLTguNjEsMy45NS05LjIzLDguNzcgICAgICBDMC4wNCw3OS44NiwwLjAxLDgwLjMsMCw4MC43NHoiLz4mI3hhOwkJCTwvZz4mI3hhOwkJCTxnIGlkPSJzaGFwZTU3MjUtMzEiIHRyYW5zZm9ybT0idHJhbnNsYXRlKDAsLTE5LjUpIj4mI3hhOwkJCQk8dGl0bGUgaWQ9InRpdGxlNjc3NzIiPnBhdGg3MDY1PC90aXRsZT4mI3hhOwkJCQk8cGF0aCBpZD0icGF0aDY3Nzc0IiBpbmtzY2FwZTpjb25uZWN0b3ItY3VydmF0dXJlPSIwIiBzdHlsZT0iZmlsbDpub25lOyIgZD0iTTcuMDIsODYuODFjMS40NS0xLjk0LDEuMDYtNC42OS0wLjg4LTYuMTQgICAgICBTMS40NSw3OS42MSwwLDgxLjU1Yy0xLjE3LDEuNTYtMS4xNywzLjcxLDAsNS4yNkg3LjAyeiIvPiYjeGE7CQkJCSYjeGE7CQkJCQk8cGF0aCBpZD0icGF0aDY3Nzc2IiBpbmtzY2FwZTpjb25uZWN0b3ItY3VydmF0dXJlPSIwIiBzdHlsZT0iZmlsbDpub25lO3N0cm9rZTojNkQ2RTcxO3N0cm9rZS13aWR0aDozO3N0cm9rZS1taXRlcmxpbWl0OjM7IiBkPSIgICAgICBNNy4wMiw4Ni44MWMxLjQ1LTEuOTQsMS4wNi00LjY5LTAuODgtNi4xNFMxLjQ1LDc5LjYxLDAsODEuNTVjLTEuMTcsMS41Ni0xLjE3LDMuNzEsMCw1LjI2Ii8+JiN4YTsJCQk8L2c+JiN4YTsJCQk8ZyBpZD0ic2hhcGU1NzI2LTM0IiB0cmFuc2Zvcm09InRyYW5zbGF0ZSgyLjIzNSwtMzMuMjYyNSkiPiYjeGE7CQkJCTx0aXRsZSBpZD0idGl0bGU2Nzc3OSI+cGF0aDcwNjc8L3RpdGxlPiYjeGE7CQkJCTxwYXRoIGlkPSJwYXRoNjc3ODEiIGlua3NjYXBlOmNvbm5lY3Rvci1jdXJ2YXR1cmU9IjAiIHN0eWxlPSJmaWxsOiMwMDc4RDc7IiBkPSJNMCw4Ni44MWgzLjM2YzAuNS0zLjI5LDIuODMtNS41LDUuODYtNS41aDQuMTkgICAgICB2LTMuMjRIOS4yMkM0LjUsNzguMDcsMC42Myw4MS45OSwwLDg2LjgxeiIvPiYjeGE7CQkJPC9nPiYjeGE7CQkJPGcgaWQ9InNoYXBlNTcyNy0zNiIgdHJhbnNmb3JtPSJ0cmFuc2xhdGUoMTEuMjM1LC0xNS43NSkiPiYjeGE7CQkJCTx0aXRsZSBpZD0idGl0bGU2Nzc4NCI+cGF0aDcwNjk8L3RpdGxlPiYjeGE7CQkJCTxwYXRoIGlkPSJwYXRoNjc3ODYiIGlua3NjYXBlOmNvbm5lY3Rvci1jdXJ2YXR1cmU9IjAiIHN0eWxlPSJmaWxsOiM3MzczNzM7IiBkPSJNMCw1OS44MVY4MS45YzAuMDgsMi43OCwyLjM4LDQuOTcsNS4xNiw0LjkxICAgICAgaDI0LjkzYzIuNzgsMC4wNiw1LjA4LTIuMTMsNS4xNi00LjkxVjU5LjgxSDB6Ii8+JiN4YTsJCQk8L2c+JiN4YTsJCTwvZz4mI3hhOwkJPGcgaWQ9InNoYXBlNTcyOC0zOCIgdHJhbnNmb3JtPSJ0cmFuc2xhdGUoMTUuODQ3NSwtNjQuOTY1KSI+JiN4YTsJCQk8dGl0bGUgaWQ9InRpdGxlNjc3OTAiPnBhdGg3MDk3PC90aXRsZT4mI3hhOwkJCTxwYXRoIGlkPSJwYXRoNjc3OTIiIGlua3NjYXBlOmNvbm5lY3Rvci1jdXJ2YXR1cmU9IjAiIHN0eWxlPSJmaWxsOm5vbmU7IiBkPSJNNC45MSw4Ni44MWMtNS40MS00LjA1LTYuNTItMTEuNzItMi40Ny0xNy4xMyAgICAgYzAuNy0wLjk0LDEuNTMtMS43NywyLjQ3LTIuNDdWODYuODF6Ii8+JiN4YTsJCQkmI3hhOwkJCQk8cGF0aCBpZD0icGF0aDY3Nzk0IiBpbmtzY2FwZTpjb25uZWN0b3ItY3VydmF0dXJlPSIwIiBzdHlsZT0iZmlsbDpub25lO3N0cm9rZTojMDA3OEQ3O3N0cm9rZS13aWR0aDoxLjU7c3Ryb2tlLW1pdGVybGltaXQ6MzsiIGQ9IiAgICAgTTQuOTEsODYuODFjLTUuNDEtNC4wNS02LjUyLTExLjcyLTIuNDctMTcuMTNjMC43LTAuOTQsMS41My0xLjc3LDIuNDctMi40NyIvPiYjeGE7CQk8L2c+JiN4YTsJCTxnIGlkPSJzaGFwZTU3MjktNDEiIHRyYW5zZm9ybT0idHJhbnNsYXRlKDM1LjQ1MjUsLTY0Ljk1NzUpIj4mI3hhOwkJCTx0aXRsZSBpZD0idGl0bGU2Nzc5NyI+cGF0aDcwOTk8L3RpdGxlPiYjeGE7CQkJPHBhdGggaWQ9InBhdGg2Nzc5OSIgaW5rc2NhcGU6Y29ubmVjdG9yLWN1cnZhdHVyZT0iMCIgc3R5bGU9ImZpbGw6bm9uZTsiIGQ9Ik0wLDY3LjIxYzUuNDEsNC4wNSw2LjUyLDExLjcyLDIuNDcsMTcuMTMgICAgIGMtMC43LDAuOTQtMS41MywxLjc3LTIuNDcsMi40N1Y2Ny4yMXoiLz4mI3hhOwkJCSYjeGE7CQkJCTxwYXRoIGlkPSJwYXRoNjc4MDEiIGlua3NjYXBlOmNvbm5lY3Rvci1jdXJ2YXR1cmU9IjAiIHN0eWxlPSJmaWxsOm5vbmU7c3Ryb2tlOiMwMDc4RDc7c3Ryb2tlLXdpZHRoOjEuNTtzdHJva2UtbWl0ZXJsaW1pdDozOyIgZD0iICAgICBNMCw2Ny4yMWM1LjQxLDQuMDUsNi41MiwxMS43MiwyLjQ3LDE3LjEzYy0wLjcsMC45NC0xLjUzLDEuNzctMi40NywyLjQ3Ii8+JiN4YTsJCTwvZz4mI3hhOwkJPGcgaWQ9InNoYXBlNTczMC00NCIgdHJhbnNmb3JtPSJ0cmFuc2xhdGUoMzIuMTksLTY4LjE3NSkiPiYjeGE7CQkJPHRpdGxlIGlkPSJ0aXRsZTY3ODA0Ij5wYXRoNzEwMTwvdGl0bGU+JiN4YTsJCQk8cGF0aCBpZD0icGF0aDY3ODA2IiBpbmtzY2FwZTpjb25uZWN0b3ItY3VydmF0dXJlPSIwIiBzdHlsZT0iZmlsbDpub25lOyIgZD0iTTAsODYuODFjMy42NC0xLjgsNS4xMi02LjIxLDMuMzItOS44NSAgICAgQzIuNjEsNzUuNTIsMS40NCw3NC4zNSwwLDczLjY0Vjg2LjgxeiIvPiYjeGE7CQkJJiN4YTsJCQkJPHBhdGggaWQ9InBhdGg2NzgwOCIgaW5rc2NhcGU6Y29ubmVjdG9yLWN1cnZhdHVyZT0iMCIgc3R5bGU9ImZpbGw6bm9uZTtzdHJva2U6IzAwNzhENztzdHJva2Utd2lkdGg6MS41O3N0cm9rZS1taXRlcmxpbWl0OjM7IiBkPSIgICAgIE0wLDg2LjgxYzMuNjQtMS44LDUuMTItNi4yMSwzLjMyLTkuODVDMi42MSw3NS41MiwxLjQ0LDc0LjM1LDAsNzMuNjQiLz4mI3hhOwkJPC9nPiYjeGE7CQk8ZyBpZD0ic2hhcGU1NzMxLTQ3IiB0cmFuc2Zvcm09InRyYW5zbGF0ZSgxOS45Mzc1LC02OC4xNzUpIj4mI3hhOwkJCTx0aXRsZSBpZD0idGl0bGU2NzgxMSI+cGF0aDcxMDM8L3RpdGxlPiYjeGE7CQkJPHBhdGggaWQ9InBhdGg2NzgxMyIgaW5rc2NhcGU6Y29ubmVjdG9yLWN1cnZhdHVyZT0iMCIgc3R5bGU9ImZpbGw6bm9uZTsiIGQ9Ik00LjA4LDczLjY0Yy0zLjY0LDEuOC01LjEyLDYuMjEtMy4zMiw5Ljg1ICAgICBjMC43MSwxLjQ0LDEuODgsMi42MSwzLjMyLDMuMzJWNzMuNjR6Ii8+JiN4YTsJCQkmI3hhOwkJCQk8cGF0aCBpZD0icGF0aDY3ODE1IiBpbmtzY2FwZTpjb25uZWN0b3ItY3VydmF0dXJlPSIwIiBzdHlsZT0iZmlsbDpub25lO3N0cm9rZTojMDA3OEQ3O3N0cm9rZS13aWR0aDoxLjU7c3Ryb2tlLW1pdGVybGltaXQ6MzsiIGQ9IiAgICAgTTQuMDgsNzMuNjRjLTMuNjQsMS44LTUuMTIsNi4yMS0zLjMyLDkuODVjMC43MSwxLjQ0LDEuODgsMi42MSwzLjMyLDMuMzIiLz4mI3hhOwkJPC9nPiYjeGE7CQk8ZyBpZD0iZ3JvdXA1NzMyLTUwIiB0cmFuc2Zvcm09InRyYW5zbGF0ZSgyMy4yMzUsLTI3LjM5KSI+JiN4YTsJCQk8dGl0bGUgaWQ9InRpdGxlNjc4MTgiPmc3MTA5PC90aXRsZT4mI3hhOwkJCTxnIGlkPSJzaGFwZTU3MzMtNTEiIHRyYW5zZm9ybT0idHJhbnNsYXRlKDAsLTAuMDY4ODg1NikiPiYjeGE7CQkJCTx0aXRsZSBpZD0idGl0bGU2NzgyMCI+cGF0aDcxMDU8L3RpdGxlPiYjeGE7CQkJCSYjeGE7CQkJCQk8cGF0aCBpZD0icGF0aDY3ODIyIiBpbmtzY2FwZTpjb25uZWN0b3ItY3VydmF0dXJlPSIwIiBzdHlsZT0iZmlsbDojRTZFNkU2O3N0cm9rZTojNzM3MzczO3N0cm9rZS13aWR0aDoxLjU7c3Ryb2tlLW1pdGVybGltaXQ6MzsiIGQ9IiAgICAgIE0wLDgyLjc3YzAsMy4xNiwyLjU1LDUuNzIsNS43MSw1LjcyYzMuMTYsMCw1LjcyLTIuNTUsNS43Mi01LjcxYzAtMy4xNi0yLjU1LTUuNzItNS43MS01LjcyYzAsMC0wLjAxLDAtMC4wMSwwICAgICAgQzIuNTYsNzcuMDcsMC4wMSw3OS42MiwwLDgyLjc3eiIvPiYjeGE7CQkJPC9nPiYjeGE7CQkJPGcgaWQ9InNoYXBlNTczNC01MyIgdHJhbnNmb3JtPSJ0cmFuc2xhdGUoMS42MDUpIj4mI3hhOwkJCQk8dGl0bGUgaWQ9InRpdGxlNjc4MjUiPmNpcmNsZTcxMDc8L3RpdGxlPiYjeGE7CQkJCTxjaXJjbGUgaWQ9ImVsbGlwc2U2NzgyNyIgc3R5bGU9ImZpbGw6I0ZGRkZGRjsiIGN4PSI0LjA4IiBjeT0iODIuNzMiIHI9IjQuMDgiLz4mI3hhOwkJCTwvZz4mI3hhOwkJPC9nPiYjeGE7CTwvZz4mI3hhOzwvZz4mI3hhOzwvc3ZnPg==;fontSize=18;" vertex="1" parent="keo_O-B1GyqZ8fwBsUim-32">
          <mxGeometry width="47.41" height="65" as="geometry" />
        </mxCell>
        <mxCell id="keo_O-B1GyqZ8fwBsUim-34" value="" style="shape=image;html=1;verticalAlign=top;verticalLabelPosition=bottom;labelBackgroundColor=#ffffff;imageAspect=0;aspect=fixed;image=https://cdn3.iconfinder.com/data/icons/iconic-1/32/book_alt2-128.png;sketch=0;" vertex="1" parent="keo_O-B1GyqZ8fwBsUim-32">
          <mxGeometry x="8.204999999999984" y="30" width="31" height="31" as="geometry" />
        </mxCell>
        <mxCell id="keo_O-B1GyqZ8fwBsUim-37" value="" style="group" vertex="1" connectable="0" parent="1">
          <mxGeometry x="1037.9950000000001" y="220" width="47.410000000000025" height="65" as="geometry" />
        </mxCell>
        <mxCell id="keo_O-B1GyqZ8fwBsUim-38" value="" style="group" vertex="1" connectable="0" parent="keo_O-B1GyqZ8fwBsUim-37">
          <mxGeometry width="47.41" height="65" as="geometry" />
        </mxCell>
        <mxCell id="keo_O-B1GyqZ8fwBsUim-39" value="" style="shape=image;verticalLabelPosition=bottom;labelBackgroundColor=#ffffff;verticalAlign=top;aspect=fixed;imageAspect=0;image=data:image/svg+xml,PHN2ZyB4bWxuczpjYz0iaHR0cDovL2NyZWF0aXZlY29tbW9ucy5vcmcvbnMjIiB4bWxuczpkYz0iaHR0cDovL3B1cmwub3JnL2RjL2VsZW1lbnRzLzEuMS8iIHhtbG5zOmlua3NjYXBlPSJodHRwOi8vd3d3Lmlua3NjYXBlLm9yZy9uYW1lc3BhY2VzL2lua3NjYXBlIiB4bWxuczpyZGY9Imh0dHA6Ly93d3cudzMub3JnLzE5OTkvMDIvMjItcmRmLXN5bnRheC1ucyMiIHhtbG5zOnNvZGlwb2RpPSJodHRwOi8vc29kaXBvZGkuc291cmNlZm9yZ2UubmV0L0RURC9zb2RpcG9kaS0wLmR0ZCIgeG1sbnM6c3ZnPSJodHRwOi8vd3d3LnczLm9yZy8yMDAwL3N2ZyIgeG1sbnM9Imh0dHA6Ly93d3cudzMub3JnLzIwMDAvc3ZnIiB4bWxuczp4bGluaz0iaHR0cDovL3d3dy53My5vcmcvMTk5OS94bGluayIgdmVyc2lvbj0iMS4xIiBpZD0ic3ZnNjc4MzQiIGlua3NjYXBlOnZlcnNpb249IjAuOTIuMyAoMjQwNTU0NiwgMjAxOC0wMy0xMSkiIHNvZGlwb2RpOmRvY25hbWU9ImJvdC5zdmciIHg9IjBweCIgeT0iMHB4IiB2aWV3Qm94PSIwIDAgNjEuNjcgODUuMTciIHN0eWxlPSJlbmFibGUtYmFja2dyb3VuZDpuZXcgMCAwIDYxLjY3IDg1LjE3OyIgeG1sOnNwYWNlPSJwcmVzZXJ2ZSI+JiN4YTs8c29kaXBvZGk6bmFtZWR2aWV3IGJvcmRlcmNvbG9yPSIjNjY2NjY2IiBib3JkZXJvcGFjaXR5PSIxIiBmaXQtbWFyZ2luLWJvdHRvbT0iMCIgZml0LW1hcmdpbi1sZWZ0PSIwIiBmaXQtbWFyZ2luLXJpZ2h0PSIwIiBmaXQtbWFyZ2luLXRvcD0iMCIgZ3JpZHRvbGVyYW5jZT0iMTAiIGd1aWRldG9sZXJhbmNlPSIxMCIgaWQ9Im5hbWVkdmlldzY3ODM2IiBpbmtzY2FwZTpjdXJyZW50LWxheWVyPSJzdmc2NzgzNCIgaW5rc2NhcGU6Y3g9IjMwLjgzNTY0OCIgaW5rc2NhcGU6Y3k9IjQ4LjE2MTg3MSIgaW5rc2NhcGU6cGFnZW9wYWNpdHk9IjAiIGlua3NjYXBlOnBhZ2VzaGFkb3c9IjIiIGlua3NjYXBlOndpbmRvdy1oZWlnaHQ9IjEwMTciIGlua3NjYXBlOndpbmRvdy1tYXhpbWl6ZWQ9IjEiIGlua3NjYXBlOndpbmRvdy13aWR0aD0iMTkyMCIgaW5rc2NhcGU6d2luZG93LXg9Ii04IiBpbmtzY2FwZTp3aW5kb3cteT0iLTgiIGlua3NjYXBlOnpvb209IjUuMjk2NDI0OCIgb2JqZWN0dG9sZXJhbmNlPSIxMCIgcGFnZWNvbG9yPSIjZmZmZmZmIiBzaG93Z3JpZD0iZmFsc2UiPiYjeGE7CTwvc29kaXBvZGk6bmFtZWR2aWV3PiYjeGE7PGcgaWQ9Imc2NzgzMiIgdHJhbnNmb3JtPSJ0cmFuc2xhdGUoLTEuNTI5ODkzLC0wLjg5NDUwOTgpIj4mI3hhOwk8dGl0bGUgaWQ9InRpdGxlNjc2OTYiPlBhZ2UtMTwvdGl0bGU+JiN4YTsJPGcgaWQ9Imdyb3VwNTcwOS0xIiB0cmFuc2Zvcm09InRyYW5zbGF0ZSgzLjg3NzUsLTAuNzUpIj4mI3hhOwkJPHRpdGxlIGlkPSJ0aXRsZTY3Njk4Ij5Cb3Q8L3RpdGxlPiYjeGE7CQk8ZyBpZD0iZ3JvdXA1NzEwLTIiPiYjeGE7CQkJPHRpdGxlIGlkPSJ0aXRsZTY3NzAwIj5nNzA3MTwvdGl0bGU+JiN4YTsJCQk8ZyBpZD0iZ3JvdXA1NzExLTMiIHRyYW5zZm9ybT0idHJhbnNsYXRlKDI0LjYxMzgsLTU5LjI0MjUpIj4mI3hhOwkJCQk8dGl0bGUgaWQ9InRpdGxlNjc3MDIiPmc3MDQxPC90aXRsZT4mI3hhOwkJCQk8ZyBpZD0ic2hhcGU1NzEyLTQiIHRyYW5zZm9ybT0idHJhbnNsYXRlKDEuODYxMTYpIj4mI3hhOwkJCQkJPHRpdGxlIGlkPSJ0aXRsZTY3NzA0Ij5yZWN0NzAzNzwvdGl0bGU+JiN4YTsJCQkJCTxwYXRoIGlkPSJwYXRoNjc3MDYiIGlua3NjYXBlOmNvbm5lY3Rvci1jdXJ2YXR1cmU9IjAiIHN0eWxlPSJmaWxsOiMwMDc4RDc7IiBkPSJNMCw4NS4zMWMwLDAuODMsMC42NywxLjUsMS41LDEuNWgwLjI3ICAgICAgIGMwLjgzLDAsMS41LTAuNjcsMS41LTEuNVY3NS4yNWMwLTAuODMtMC42Ny0xLjUtMS41LTEuNUgxLjVjLTAuODMsMC0xLjUsMC42Ny0xLjUsMS41Vjg1LjMxeiIvPiYjeGE7CQkJCTwvZz4mI3hhOwkJCQk8ZyBpZD0ic2hhcGU1NzEzLTYiIHRyYW5zZm9ybT0idHJhbnNsYXRlKDAsLTEyLjA3MjYpIj4mI3hhOwkJCQkJPHRpdGxlIGlkPSJ0aXRsZTY3NzA5Ij5wYXRoNzAzOTwvdGl0bGU+JiN4YTsJCQkJCTxwYXRoIGlkPSJwYXRoNjc3MTEiIGlua3NjYXBlOmNvbm5lY3Rvci1jdXJ2YXR1cmU9IjAiIHN0eWxlPSJmaWxsOiMwMDc4RDc7IiBkPSJNMy41LDc4LjQ2Yy0yLjctMC4wMi00LjkxLDIuMTctNC45Miw0Ljg3ICAgICAgIHMyLjE3LDQuOTEsNC44Nyw0LjkyczQuOTEtMi4xNyw0LjkyLTQuODdjMCwwLDAtMC4wMSwwLTAuMDFDOC4zOCw4MC42Nyw2LjIsNzguNDgsMy41LDc4LjQ2eiBNMy41LDg1LjgxICAgICAgIGMtMS4zNSwwLTIuNDUtMS4xLTIuNDUtMi40NWMwLTEuMzUsMS4xLTIuNDUsMi40NS0yLjQ2czIuNDUsMS4xLDIuNDUsMi40NWMwLDAsMCwwLDAsMEM1Ljk1LDg0LjcxLDQuODYsODUuODIsMy41LDg1LjgxICAgICAgIGMwLDAuMDEsMCwwLjAxLDAsMC4wMVY4NS44MXoiLz4mI3hhOwkJCQk8L2c+JiN4YTsJCQk8L2c+JiN4YTsJCQk8ZyBpZD0ic2hhcGU1NzE0LTgiIHRyYW5zZm9ybT0idHJhbnNsYXRlKDExLjk4NSwtNDQuOTI1KSI+JiN4YTsJCQkJPHRpdGxlIGlkPSJ0aXRsZTY3NzE1Ij5yZWN0NzA0MzwvdGl0bGU+JiN4YTsJCQkJJiN4YTsJCQkJCTxwYXRoIGlkPSJwYXRoNjc3MTciIGlua3NjYXBlOmNvbm5lY3Rvci1jdXJ2YXR1cmU9IjAiIHN0eWxlPSJmaWxsOiNFNkU2RTY7c3Ryb2tlOiM3MzczNzM7c3Ryb2tlLXdpZHRoOjEuNTtzdHJva2UtbWl0ZXJsaW1pdDozOyIgZD0iICAgICAgTTAsODMuODFjMCwxLjY2LDEuMzQsMywzLDNoMjcuNzVjMS42NiwwLDMtMS4zNCwzLTN2LTEwLjVjMC0xLjY2LTEuMzQtMy0zLTNIM2MtMS42NiwwLTMsMS4zNC0zLDNWODMuODF6Ii8+JiN4YTsJCQk8L2c+JiN4YTsJCQk8ZyBpZD0ic2hhcGU1NzE1LTEwIiB0cmFuc2Zvcm09InRyYW5zbGF0ZSgxNy45ODUsLTQuOTEyNSkiPiYjeGE7CQkJCTx0aXRsZSBpZD0idGl0bGU2NzcyMCI+cmVjdDcwNDU8L3RpdGxlPiYjeGE7CQkJCTxwYXRoIGlkPSJwYXRoNjc3MjIiIGlua3NjYXBlOmNvbm5lY3Rvci1jdXJ2YXR1cmU9IjAiIHN0eWxlPSJmaWxsOiM3MzczNzM7IiBkPSJNMCw4NS4zMWMwLDAuODMsMC42NywxLjUsMS41LDEuNWgyLjQgICAgICBjMC44MywwLDEuNS0wLjY3LDEuNS0xLjV2LTEzLjJjMC0wLjgzLTAuNjctMS41LTEuNS0xLjVIMS41Yy0wLjgzLDAtMS41LDAuNjctMS41LDEuNVY4NS4zMXoiLz4mI3hhOwkJCTwvZz4mI3hhOwkJCTxnIGlkPSJzaGFwZTU3MTYtMTIiIHRyYW5zZm9ybT0idHJhbnNsYXRlKDE0LjMxKSI+JiN4YTsJCQkJPHRpdGxlIGlkPSJ0aXRsZTY3NzI1Ij5wYXRoNzA0NzwvdGl0bGU+JiN4YTsJCQkJPHBhdGggaWQ9InBhdGg2NzcyNyIgaW5rc2NhcGU6Y29ubmVjdG9yLWN1cnZhdHVyZT0iMCIgc3R5bGU9ImZpbGw6IzAwNzhENzsiIGQ9Ik02LjUzLDgwLjA2QzIuODYsODAuMTItMC4wNiw4My4xNCwwLDg2LjgxICAgICAgaDEzLjA2QzEzLjEyLDgzLjE0LDEwLjIsODAuMTIsNi41Myw4MC4wNnoiLz4mI3hhOwkJCTwvZz4mI3hhOwkJCTxnIGlkPSJzaGFwZTU3MTctMTQiIHRyYW5zZm9ybT0idHJhbnNsYXRlKDMyLjk4NSwtNC45MTI1KSI+JiN4YTsJCQkJPHRpdGxlIGlkPSJ0aXRsZTY3NzMwIj5yZWN0NzA0OTwvdGl0bGU+JiN4YTsJCQkJPHBhdGggaWQ9InBhdGg2NzczMiIgaW5rc2NhcGU6Y29ubmVjdG9yLWN1cnZhdHVyZT0iMCIgc3R5bGU9ImZpbGw6IzczNzM3MzsiIGQ9Ik0wLDg1LjMxYzAsMC44MywwLjY3LDEuNSwxLjUsMS41aDIuNCAgICAgIGMwLjgzLDAsMS41LTAuNjcsMS41LTEuNXYtMTMuMmMwLTAuODMtMC42Ny0xLjUtMS41LTEuNUgxLjVjLTAuODMsMC0xLjUsMC42Ny0xLjUsMS41Vjg1LjMxeiIvPiYjeGE7CQkJPC9nPiYjeGE7CQkJPGcgaWQ9InNoYXBlNTcxOC0xNiIgdHJhbnNmb3JtPSJ0cmFuc2xhdGUoMjkuMTYpIj4mI3hhOwkJCQk8dGl0bGUgaWQ9InRpdGxlNjc3MzUiPnBhdGg3MDUxPC90aXRsZT4mI3hhOwkJCQk8cGF0aCBpZD0icGF0aDY3NzM3IiBpbmtzY2FwZTpjb25uZWN0b3ItY3VydmF0dXJlPSIwIiBzdHlsZT0iZmlsbDojMDA3OEQ3OyIgZD0iTTYuNTMsODAuMDZDMi44Niw4MC4xMi0wLjA2LDgzLjE0LDAsODYuODEgICAgICBoMTMuMDZDMTMuMTIsODMuMTQsMTAuMiw4MC4xMiw2LjUzLDgwLjA2eiIvPiYjeGE7CQkJPC9nPiYjeGE7CQkJPGcgaWQ9InNoYXBlNTcxOS0xOCIgdHJhbnNmb3JtPSJyb3RhdGUoLTg1LjA2LC0xNS43NTM3ODksNTAuMTA4NTQxKSI+JiN4YTsJCQkJPHRpdGxlIGlkPSJ0aXRsZTY3NzQwIj5jaXJjbGU3MDUzPC90aXRsZT4mI3hhOwkJCQk8Y2lyY2xlIGlkPSJlbGxpcHNlNjc3NDIiIHN0eWxlPSJmaWxsOiMwMDIwNTA7IiBjeD0iMi43IiBjeT0iODQuMTEiIHI9IjIuNyIvPiYjeGE7CQkJPC9nPiYjeGE7CQkJPGcgaWQ9InNoYXBlNTcyMC0yMCIgdHJhbnNmb3JtPSJyb3RhdGUoLTg1LjA2LC02LjY0MDIyOTksNDAuMTczNTA0KSI+JiN4YTsJCQkJPHRpdGxlIGlkPSJ0aXRsZTY3NzQ1Ij5jaXJjbGU3MDU1PC90aXRsZT4mI3hhOwkJCQk8Y2lyY2xlIGlkPSJlbGxpcHNlNjc3NDciIHN0eWxlPSJmaWxsOiMwMDIwNTA7IiBjeD0iMi43IiBjeT0iODQuMTEiIHI9IjIuNyIvPiYjeGE7CQkJPC9nPiYjeGE7CQkJPGcgaWQ9InNoYXBlNTcyMS0yMiIgdHJhbnNmb3JtPSJ0cmFuc2xhdGUoMzkuMjg1LC0yNS44Mzc1KSI+JiN4YTsJCQkJPHRpdGxlIGlkPSJ0aXRsZTY3NzUwIj5wYXRoNzA1NzwvdGl0bGU+JiN4YTsJCQkJPHBhdGggaWQ9InBhdGg2Nzc1MiIgaW5rc2NhcGU6Y29ubmVjdG9yLWN1cnZhdHVyZT0iMCIgc3R5bGU9ImZpbGw6IzZENkU3MTsiIGQ9Ik0xNS41Miw4MC43NHY2LjA3aC0zLjM3di02LjEzICAgICAgYzAtMC40My0wLjA0LTAuODYtMC4xLTEuMjljLTAuNS0zLjMtMi44My01LjUxLTUuODYtNS41MUgwdi0zLjIzaDYuMjFjNC43LDAsOC42LDMuOTUsOS4yMiw4Ljc3ICAgICAgQzE1LjQ5LDc5Ljg2LDE1LjUyLDgwLjMsMTUuNTIsODAuNzR6Ii8+JiN4YTsJCQk8L2c+JiN4YTsJCQk8ZyBpZD0ic2hhcGU1NzIyLTI0IiB0cmFuc2Zvcm09InRyYW5zbGF0ZSg0OS45NSwtMTkuNSkiPiYjeGE7CQkJCTx0aXRsZSBpZD0idGl0bGU2Nzc1NSI+cGF0aDcwNTk8L3RpdGxlPiYjeGE7CQkJCTxwYXRoIGlkPSJwYXRoNjc3NTciIGlua3NjYXBlOmNvbm5lY3Rvci1jdXJ2YXR1cmU9IjAiIHN0eWxlPSJmaWxsOm5vbmU7IiBkPSJNMCw4Ni44MWMtMS40NS0xLjk0LTEuMDYtNC42OSwwLjg4LTYuMTQgICAgICBzNC42OS0xLjA2LDYuMTQsMC44OGMxLjE3LDEuNTYsMS4xNywzLjcxLDAsNS4yNkgweiIvPiYjeGE7CQkJCSYjeGE7CQkJCQk8cGF0aCBpZD0icGF0aDY3NzU5IiBpbmtzY2FwZTpjb25uZWN0b3ItY3VydmF0dXJlPSIwIiBzdHlsZT0iZmlsbDpub25lO3N0cm9rZTojNkQ2RTcxO3N0cm9rZS13aWR0aDozO3N0cm9rZS1taXRlcmxpbWl0OjM7IiBkPSIgICAgICBNMCw4Ni44MWMtMS40NS0xLjk0LTEuMDYtNC42OSwwLjg4LTYuMTRzNC42OS0xLjA2LDYuMTQsMC44OGMxLjE3LDEuNTYsMS4xNywzLjcxLDAsNS4yNiIvPiYjeGE7CQkJPC9nPiYjeGE7CQkJPGcgaWQ9InNoYXBlNTcyMy0yNyIgdHJhbnNmb3JtPSJ0cmFuc2xhdGUoNDEuMzEsLTMzLjI2MjUpIj4mI3hhOwkJCQk8dGl0bGUgaWQ9InRpdGxlNjc3NjIiPnBhdGg3MDYxPC90aXRsZT4mI3hhOwkJCQk8cGF0aCBpZD0icGF0aDY3NzY0IiBpbmtzY2FwZTpjb25uZWN0b3ItY3VydmF0dXJlPSIwIiBzdHlsZT0iZmlsbDojMDA3OEQ3OyIgZD0iTTEzLjQyLDg2LjgxaC0zLjM3ICAgICAgYy0wLjUtMy4yOS0yLjgzLTUuNS01Ljg3LTUuNUgwdi0zLjI0aDQuMThDOC45Miw3OC4wNywxMi43OSw4MS45OSwxMy40Miw4Ni44MXoiLz4mI3hhOwkJCTwvZz4mI3hhOwkJCTxnIGlkPSJzaGFwZTU3MjQtMjkiIHRyYW5zZm9ybT0idHJhbnNsYXRlKDIuMTYsLTI1LjgzNzUpIj4mI3hhOwkJCQk8dGl0bGUgaWQ9InRpdGxlNjc3NjciPnBhdGg3MDYzPC90aXRsZT4mI3hhOwkJCQk8cGF0aCBpZD0icGF0aDY3NzY5IiBpbmtzY2FwZTpjb25uZWN0b3ItY3VydmF0dXJlPSIwIiBzdHlsZT0iZmlsbDojNkQ2RTcxOyIgZD0iTTAsODAuNzR2Ni4wN2gzLjM3di02LjEzICAgICAgYzAtMC40MywwLjA0LTAuODYsMC4xLTEuMjljMC41LTMuMywyLjgzLTUuNTEsNS44Ny01LjUxaDYuMjF2LTMuMjNIOS4zNGMtNC43MSwwLTguNjEsMy45NS05LjIzLDguNzcgICAgICBDMC4wNCw3OS44NiwwLjAxLDgwLjMsMCw4MC43NHoiLz4mI3hhOwkJCTwvZz4mI3hhOwkJCTxnIGlkPSJzaGFwZTU3MjUtMzEiIHRyYW5zZm9ybT0idHJhbnNsYXRlKDAsLTE5LjUpIj4mI3hhOwkJCQk8dGl0bGUgaWQ9InRpdGxlNjc3NzIiPnBhdGg3MDY1PC90aXRsZT4mI3hhOwkJCQk8cGF0aCBpZD0icGF0aDY3Nzc0IiBpbmtzY2FwZTpjb25uZWN0b3ItY3VydmF0dXJlPSIwIiBzdHlsZT0iZmlsbDpub25lOyIgZD0iTTcuMDIsODYuODFjMS40NS0xLjk0LDEuMDYtNC42OS0wLjg4LTYuMTQgICAgICBTMS40NSw3OS42MSwwLDgxLjU1Yy0xLjE3LDEuNTYtMS4xNywzLjcxLDAsNS4yNkg3LjAyeiIvPiYjeGE7CQkJCSYjeGE7CQkJCQk8cGF0aCBpZD0icGF0aDY3Nzc2IiBpbmtzY2FwZTpjb25uZWN0b3ItY3VydmF0dXJlPSIwIiBzdHlsZT0iZmlsbDpub25lO3N0cm9rZTojNkQ2RTcxO3N0cm9rZS13aWR0aDozO3N0cm9rZS1taXRlcmxpbWl0OjM7IiBkPSIgICAgICBNNy4wMiw4Ni44MWMxLjQ1LTEuOTQsMS4wNi00LjY5LTAuODgtNi4xNFMxLjQ1LDc5LjYxLDAsODEuNTVjLTEuMTcsMS41Ni0xLjE3LDMuNzEsMCw1LjI2Ii8+JiN4YTsJCQk8L2c+JiN4YTsJCQk8ZyBpZD0ic2hhcGU1NzI2LTM0IiB0cmFuc2Zvcm09InRyYW5zbGF0ZSgyLjIzNSwtMzMuMjYyNSkiPiYjeGE7CQkJCTx0aXRsZSBpZD0idGl0bGU2Nzc3OSI+cGF0aDcwNjc8L3RpdGxlPiYjeGE7CQkJCTxwYXRoIGlkPSJwYXRoNjc3ODEiIGlua3NjYXBlOmNvbm5lY3Rvci1jdXJ2YXR1cmU9IjAiIHN0eWxlPSJmaWxsOiMwMDc4RDc7IiBkPSJNMCw4Ni44MWgzLjM2YzAuNS0zLjI5LDIuODMtNS41LDUuODYtNS41aDQuMTkgICAgICB2LTMuMjRIOS4yMkM0LjUsNzguMDcsMC42Myw4MS45OSwwLDg2LjgxeiIvPiYjeGE7CQkJPC9nPiYjeGE7CQkJPGcgaWQ9InNoYXBlNTcyNy0zNiIgdHJhbnNmb3JtPSJ0cmFuc2xhdGUoMTEuMjM1LC0xNS43NSkiPiYjeGE7CQkJCTx0aXRsZSBpZD0idGl0bGU2Nzc4NCI+cGF0aDcwNjk8L3RpdGxlPiYjeGE7CQkJCTxwYXRoIGlkPSJwYXRoNjc3ODYiIGlua3NjYXBlOmNvbm5lY3Rvci1jdXJ2YXR1cmU9IjAiIHN0eWxlPSJmaWxsOiM3MzczNzM7IiBkPSJNMCw1OS44MVY4MS45YzAuMDgsMi43OCwyLjM4LDQuOTcsNS4xNiw0LjkxICAgICAgaDI0LjkzYzIuNzgsMC4wNiw1LjA4LTIuMTMsNS4xNi00LjkxVjU5LjgxSDB6Ii8+JiN4YTsJCQk8L2c+JiN4YTsJCTwvZz4mI3hhOwkJPGcgaWQ9InNoYXBlNTcyOC0zOCIgdHJhbnNmb3JtPSJ0cmFuc2xhdGUoMTUuODQ3NSwtNjQuOTY1KSI+JiN4YTsJCQk8dGl0bGUgaWQ9InRpdGxlNjc3OTAiPnBhdGg3MDk3PC90aXRsZT4mI3hhOwkJCTxwYXRoIGlkPSJwYXRoNjc3OTIiIGlua3NjYXBlOmNvbm5lY3Rvci1jdXJ2YXR1cmU9IjAiIHN0eWxlPSJmaWxsOm5vbmU7IiBkPSJNNC45MSw4Ni44MWMtNS40MS00LjA1LTYuNTItMTEuNzItMi40Ny0xNy4xMyAgICAgYzAuNy0wLjk0LDEuNTMtMS43NywyLjQ3LTIuNDdWODYuODF6Ii8+JiN4YTsJCQkmI3hhOwkJCQk8cGF0aCBpZD0icGF0aDY3Nzk0IiBpbmtzY2FwZTpjb25uZWN0b3ItY3VydmF0dXJlPSIwIiBzdHlsZT0iZmlsbDpub25lO3N0cm9rZTojMDA3OEQ3O3N0cm9rZS13aWR0aDoxLjU7c3Ryb2tlLW1pdGVybGltaXQ6MzsiIGQ9IiAgICAgTTQuOTEsODYuODFjLTUuNDEtNC4wNS02LjUyLTExLjcyLTIuNDctMTcuMTNjMC43LTAuOTQsMS41My0xLjc3LDIuNDctMi40NyIvPiYjeGE7CQk8L2c+JiN4YTsJCTxnIGlkPSJzaGFwZTU3MjktNDEiIHRyYW5zZm9ybT0idHJhbnNsYXRlKDM1LjQ1MjUsLTY0Ljk1NzUpIj4mI3hhOwkJCTx0aXRsZSBpZD0idGl0bGU2Nzc5NyI+cGF0aDcwOTk8L3RpdGxlPiYjeGE7CQkJPHBhdGggaWQ9InBhdGg2Nzc5OSIgaW5rc2NhcGU6Y29ubmVjdG9yLWN1cnZhdHVyZT0iMCIgc3R5bGU9ImZpbGw6bm9uZTsiIGQ9Ik0wLDY3LjIxYzUuNDEsNC4wNSw2LjUyLDExLjcyLDIuNDcsMTcuMTMgICAgIGMtMC43LDAuOTQtMS41MywxLjc3LTIuNDcsMi40N1Y2Ny4yMXoiLz4mI3hhOwkJCSYjeGE7CQkJCTxwYXRoIGlkPSJwYXRoNjc4MDEiIGlua3NjYXBlOmNvbm5lY3Rvci1jdXJ2YXR1cmU9IjAiIHN0eWxlPSJmaWxsOm5vbmU7c3Ryb2tlOiMwMDc4RDc7c3Ryb2tlLXdpZHRoOjEuNTtzdHJva2UtbWl0ZXJsaW1pdDozOyIgZD0iICAgICBNMCw2Ny4yMWM1LjQxLDQuMDUsNi41MiwxMS43MiwyLjQ3LDE3LjEzYy0wLjcsMC45NC0xLjUzLDEuNzctMi40NywyLjQ3Ii8+JiN4YTsJCTwvZz4mI3hhOwkJPGcgaWQ9InNoYXBlNTczMC00NCIgdHJhbnNmb3JtPSJ0cmFuc2xhdGUoMzIuMTksLTY4LjE3NSkiPiYjeGE7CQkJPHRpdGxlIGlkPSJ0aXRsZTY3ODA0Ij5wYXRoNzEwMTwvdGl0bGU+JiN4YTsJCQk8cGF0aCBpZD0icGF0aDY3ODA2IiBpbmtzY2FwZTpjb25uZWN0b3ItY3VydmF0dXJlPSIwIiBzdHlsZT0iZmlsbDpub25lOyIgZD0iTTAsODYuODFjMy42NC0xLjgsNS4xMi02LjIxLDMuMzItOS44NSAgICAgQzIuNjEsNzUuNTIsMS40NCw3NC4zNSwwLDczLjY0Vjg2LjgxeiIvPiYjeGE7CQkJJiN4YTsJCQkJPHBhdGggaWQ9InBhdGg2NzgwOCIgaW5rc2NhcGU6Y29ubmVjdG9yLWN1cnZhdHVyZT0iMCIgc3R5bGU9ImZpbGw6bm9uZTtzdHJva2U6IzAwNzhENztzdHJva2Utd2lkdGg6MS41O3N0cm9rZS1taXRlcmxpbWl0OjM7IiBkPSIgICAgIE0wLDg2LjgxYzMuNjQtMS44LDUuMTItNi4yMSwzLjMyLTkuODVDMi42MSw3NS41MiwxLjQ0LDc0LjM1LDAsNzMuNjQiLz4mI3hhOwkJPC9nPiYjeGE7CQk8ZyBpZD0ic2hhcGU1NzMxLTQ3IiB0cmFuc2Zvcm09InRyYW5zbGF0ZSgxOS45Mzc1LC02OC4xNzUpIj4mI3hhOwkJCTx0aXRsZSBpZD0idGl0bGU2NzgxMSI+cGF0aDcxMDM8L3RpdGxlPiYjeGE7CQkJPHBhdGggaWQ9InBhdGg2NzgxMyIgaW5rc2NhcGU6Y29ubmVjdG9yLWN1cnZhdHVyZT0iMCIgc3R5bGU9ImZpbGw6bm9uZTsiIGQ9Ik00LjA4LDczLjY0Yy0zLjY0LDEuOC01LjEyLDYuMjEtMy4zMiw5Ljg1ICAgICBjMC43MSwxLjQ0LDEuODgsMi42MSwzLjMyLDMuMzJWNzMuNjR6Ii8+JiN4YTsJCQkmI3hhOwkJCQk8cGF0aCBpZD0icGF0aDY3ODE1IiBpbmtzY2FwZTpjb25uZWN0b3ItY3VydmF0dXJlPSIwIiBzdHlsZT0iZmlsbDpub25lO3N0cm9rZTojMDA3OEQ3O3N0cm9rZS13aWR0aDoxLjU7c3Ryb2tlLW1pdGVybGltaXQ6MzsiIGQ9IiAgICAgTTQuMDgsNzMuNjRjLTMuNjQsMS44LTUuMTIsNi4yMS0zLjMyLDkuODVjMC43MSwxLjQ0LDEuODgsMi42MSwzLjMyLDMuMzIiLz4mI3hhOwkJPC9nPiYjeGE7CQk8ZyBpZD0iZ3JvdXA1NzMyLTUwIiB0cmFuc2Zvcm09InRyYW5zbGF0ZSgyMy4yMzUsLTI3LjM5KSI+JiN4YTsJCQk8dGl0bGUgaWQ9InRpdGxlNjc4MTgiPmc3MTA5PC90aXRsZT4mI3hhOwkJCTxnIGlkPSJzaGFwZTU3MzMtNTEiIHRyYW5zZm9ybT0idHJhbnNsYXRlKDAsLTAuMDY4ODg1NikiPiYjeGE7CQkJCTx0aXRsZSBpZD0idGl0bGU2NzgyMCI+cGF0aDcxMDU8L3RpdGxlPiYjeGE7CQkJCSYjeGE7CQkJCQk8cGF0aCBpZD0icGF0aDY3ODIyIiBpbmtzY2FwZTpjb25uZWN0b3ItY3VydmF0dXJlPSIwIiBzdHlsZT0iZmlsbDojRTZFNkU2O3N0cm9rZTojNzM3MzczO3N0cm9rZS13aWR0aDoxLjU7c3Ryb2tlLW1pdGVybGltaXQ6MzsiIGQ9IiAgICAgIE0wLDgyLjc3YzAsMy4xNiwyLjU1LDUuNzIsNS43MSw1LjcyYzMuMTYsMCw1LjcyLTIuNTUsNS43Mi01LjcxYzAtMy4xNi0yLjU1LTUuNzItNS43MS01LjcyYzAsMC0wLjAxLDAtMC4wMSwwICAgICAgQzIuNTYsNzcuMDcsMC4wMSw3OS42MiwwLDgyLjc3eiIvPiYjeGE7CQkJPC9nPiYjeGE7CQkJPGcgaWQ9InNoYXBlNTczNC01MyIgdHJhbnNmb3JtPSJ0cmFuc2xhdGUoMS42MDUpIj4mI3hhOwkJCQk8dGl0bGUgaWQ9InRpdGxlNjc4MjUiPmNpcmNsZTcxMDc8L3RpdGxlPiYjeGE7CQkJCTxjaXJjbGUgaWQ9ImVsbGlwc2U2NzgyNyIgc3R5bGU9ImZpbGw6I0ZGRkZGRjsiIGN4PSI0LjA4IiBjeT0iODIuNzMiIHI9IjQuMDgiLz4mI3hhOwkJCTwvZz4mI3hhOwkJPC9nPiYjeGE7CTwvZz4mI3hhOzwvZz4mI3hhOzwvc3ZnPg==;fontSize=18;" vertex="1" parent="keo_O-B1GyqZ8fwBsUim-38">
          <mxGeometry width="47.41" height="65" as="geometry" />
        </mxCell>
        <mxCell id="keo_O-B1GyqZ8fwBsUim-40" value="" style="shape=image;html=1;verticalAlign=top;verticalLabelPosition=bottom;labelBackgroundColor=#ffffff;imageAspect=0;aspect=fixed;image=https://cdn3.iconfinder.com/data/icons/iconic-1/32/book_alt2-128.png;sketch=0;" vertex="1" parent="keo_O-B1GyqZ8fwBsUim-38">
          <mxGeometry x="8.204999999999984" y="30" width="31" height="31" as="geometry" />
        </mxCell>
        <mxCell id="keo_O-B1GyqZ8fwBsUim-41" value="English language model" style="text;html=1;strokeColor=none;fillColor=none;align=center;verticalAlign=middle;whiteSpace=wrap;rounded=0;" vertex="1" parent="1">
          <mxGeometry x="890" y="305" width="90" height="20" as="geometry" />
        </mxCell>
        <mxCell id="keo_O-B1GyqZ8fwBsUim-42" value="" style="shape=image;verticalLabelPosition=bottom;labelBackgroundColor=#ffffff;verticalAlign=top;aspect=fixed;imageAspect=0;image=data:image/svg+xml,PHN2ZyB4bWxuczpjYz0iaHR0cDovL2NyZWF0aXZlY29tbW9ucy5vcmcvbnMjIiB4bWxuczpkYz0iaHR0cDovL3B1cmwub3JnL2RjL2VsZW1lbnRzLzEuMS8iIHhtbG5zOmlua3NjYXBlPSJodHRwOi8vd3d3Lmlua3NjYXBlLm9yZy9uYW1lc3BhY2VzL2lua3NjYXBlIiB4bWxuczpyZGY9Imh0dHA6Ly93d3cudzMub3JnLzE5OTkvMDIvMjItcmRmLXN5bnRheC1ucyMiIHhtbG5zOnNvZGlwb2RpPSJodHRwOi8vc29kaXBvZGkuc291cmNlZm9yZ2UubmV0L0RURC9zb2RpcG9kaS0wLmR0ZCIgeG1sbnM6c3ZnPSJodHRwOi8vd3d3LnczLm9yZy8yMDAwL3N2ZyIgeG1sbnM9Imh0dHA6Ly93d3cudzMub3JnLzIwMDAvc3ZnIiB4bWxuczp4bGluaz0iaHR0cDovL3d3dy53My5vcmcvMTk5OS94bGluayIgdmVyc2lvbj0iMS4xIiBpZD0ic3ZnNjc4MzQiIGlua3NjYXBlOnZlcnNpb249IjAuOTIuMyAoMjQwNTU0NiwgMjAxOC0wMy0xMSkiIHNvZGlwb2RpOmRvY25hbWU9ImJvdC5zdmciIHg9IjBweCIgeT0iMHB4IiB2aWV3Qm94PSIwIDAgNjEuNjcgODUuMTciIHN0eWxlPSJlbmFibGUtYmFja2dyb3VuZDpuZXcgMCAwIDYxLjY3IDg1LjE3OyIgeG1sOnNwYWNlPSJwcmVzZXJ2ZSI+JiN4YTs8c29kaXBvZGk6bmFtZWR2aWV3IGJvcmRlcmNvbG9yPSIjNjY2NjY2IiBib3JkZXJvcGFjaXR5PSIxIiBmaXQtbWFyZ2luLWJvdHRvbT0iMCIgZml0LW1hcmdpbi1sZWZ0PSIwIiBmaXQtbWFyZ2luLXJpZ2h0PSIwIiBmaXQtbWFyZ2luLXRvcD0iMCIgZ3JpZHRvbGVyYW5jZT0iMTAiIGd1aWRldG9sZXJhbmNlPSIxMCIgaWQ9Im5hbWVkdmlldzY3ODM2IiBpbmtzY2FwZTpjdXJyZW50LWxheWVyPSJzdmc2NzgzNCIgaW5rc2NhcGU6Y3g9IjMwLjgzNTY0OCIgaW5rc2NhcGU6Y3k9IjQ4LjE2MTg3MSIgaW5rc2NhcGU6cGFnZW9wYWNpdHk9IjAiIGlua3NjYXBlOnBhZ2VzaGFkb3c9IjIiIGlua3NjYXBlOndpbmRvdy1oZWlnaHQ9IjEwMTciIGlua3NjYXBlOndpbmRvdy1tYXhpbWl6ZWQ9IjEiIGlua3NjYXBlOndpbmRvdy13aWR0aD0iMTkyMCIgaW5rc2NhcGU6d2luZG93LXg9Ii04IiBpbmtzY2FwZTp3aW5kb3cteT0iLTgiIGlua3NjYXBlOnpvb209IjUuMjk2NDI0OCIgb2JqZWN0dG9sZXJhbmNlPSIxMCIgcGFnZWNvbG9yPSIjZmZmZmZmIiBzaG93Z3JpZD0iZmFsc2UiPiYjeGE7CTwvc29kaXBvZGk6bmFtZWR2aWV3PiYjeGE7PGcgaWQ9Imc2NzgzMiIgdHJhbnNmb3JtPSJ0cmFuc2xhdGUoLTEuNTI5ODkzLC0wLjg5NDUwOTgpIj4mI3hhOwk8dGl0bGUgaWQ9InRpdGxlNjc2OTYiPlBhZ2UtMTwvdGl0bGU+JiN4YTsJPGcgaWQ9Imdyb3VwNTcwOS0xIiB0cmFuc2Zvcm09InRyYW5zbGF0ZSgzLjg3NzUsLTAuNzUpIj4mI3hhOwkJPHRpdGxlIGlkPSJ0aXRsZTY3Njk4Ij5Cb3Q8L3RpdGxlPiYjeGE7CQk8ZyBpZD0iZ3JvdXA1NzEwLTIiPiYjeGE7CQkJPHRpdGxlIGlkPSJ0aXRsZTY3NzAwIj5nNzA3MTwvdGl0bGU+JiN4YTsJCQk8ZyBpZD0iZ3JvdXA1NzExLTMiIHRyYW5zZm9ybT0idHJhbnNsYXRlKDI0LjYxMzgsLTU5LjI0MjUpIj4mI3hhOwkJCQk8dGl0bGUgaWQ9InRpdGxlNjc3MDIiPmc3MDQxPC90aXRsZT4mI3hhOwkJCQk8ZyBpZD0ic2hhcGU1NzEyLTQiIHRyYW5zZm9ybT0idHJhbnNsYXRlKDEuODYxMTYpIj4mI3hhOwkJCQkJPHRpdGxlIGlkPSJ0aXRsZTY3NzA0Ij5yZWN0NzAzNzwvdGl0bGU+JiN4YTsJCQkJCTxwYXRoIGlkPSJwYXRoNjc3MDYiIGlua3NjYXBlOmNvbm5lY3Rvci1jdXJ2YXR1cmU9IjAiIHN0eWxlPSJmaWxsOiMwMDc4RDc7IiBkPSJNMCw4NS4zMWMwLDAuODMsMC42NywxLjUsMS41LDEuNWgwLjI3ICAgICAgIGMwLjgzLDAsMS41LTAuNjcsMS41LTEuNVY3NS4yNWMwLTAuODMtMC42Ny0xLjUtMS41LTEuNUgxLjVjLTAuODMsMC0xLjUsMC42Ny0xLjUsMS41Vjg1LjMxeiIvPiYjeGE7CQkJCTwvZz4mI3hhOwkJCQk8ZyBpZD0ic2hhcGU1NzEzLTYiIHRyYW5zZm9ybT0idHJhbnNsYXRlKDAsLTEyLjA3MjYpIj4mI3hhOwkJCQkJPHRpdGxlIGlkPSJ0aXRsZTY3NzA5Ij5wYXRoNzAzOTwvdGl0bGU+JiN4YTsJCQkJCTxwYXRoIGlkPSJwYXRoNjc3MTEiIGlua3NjYXBlOmNvbm5lY3Rvci1jdXJ2YXR1cmU9IjAiIHN0eWxlPSJmaWxsOiMwMDc4RDc7IiBkPSJNMy41LDc4LjQ2Yy0yLjctMC4wMi00LjkxLDIuMTctNC45Miw0Ljg3ICAgICAgIHMyLjE3LDQuOTEsNC44Nyw0LjkyczQuOTEtMi4xNyw0LjkyLTQuODdjMCwwLDAtMC4wMSwwLTAuMDFDOC4zOCw4MC42Nyw2LjIsNzguNDgsMy41LDc4LjQ2eiBNMy41LDg1LjgxICAgICAgIGMtMS4zNSwwLTIuNDUtMS4xLTIuNDUtMi40NWMwLTEuMzUsMS4xLTIuNDUsMi40NS0yLjQ2czIuNDUsMS4xLDIuNDUsMi40NWMwLDAsMCwwLDAsMEM1Ljk1LDg0LjcxLDQuODYsODUuODIsMy41LDg1LjgxICAgICAgIGMwLDAuMDEsMCwwLjAxLDAsMC4wMVY4NS44MXoiLz4mI3hhOwkJCQk8L2c+JiN4YTsJCQk8L2c+JiN4YTsJCQk8ZyBpZD0ic2hhcGU1NzE0LTgiIHRyYW5zZm9ybT0idHJhbnNsYXRlKDExLjk4NSwtNDQuOTI1KSI+JiN4YTsJCQkJPHRpdGxlIGlkPSJ0aXRsZTY3NzE1Ij5yZWN0NzA0MzwvdGl0bGU+JiN4YTsJCQkJJiN4YTsJCQkJCTxwYXRoIGlkPSJwYXRoNjc3MTciIGlua3NjYXBlOmNvbm5lY3Rvci1jdXJ2YXR1cmU9IjAiIHN0eWxlPSJmaWxsOiNFNkU2RTY7c3Ryb2tlOiM3MzczNzM7c3Ryb2tlLXdpZHRoOjEuNTtzdHJva2UtbWl0ZXJsaW1pdDozOyIgZD0iICAgICAgTTAsODMuODFjMCwxLjY2LDEuMzQsMywzLDNoMjcuNzVjMS42NiwwLDMtMS4zNCwzLTN2LTEwLjVjMC0xLjY2LTEuMzQtMy0zLTNIM2MtMS42NiwwLTMsMS4zNC0zLDNWODMuODF6Ii8+JiN4YTsJCQk8L2c+JiN4YTsJCQk8ZyBpZD0ic2hhcGU1NzE1LTEwIiB0cmFuc2Zvcm09InRyYW5zbGF0ZSgxNy45ODUsLTQuOTEyNSkiPiYjeGE7CQkJCTx0aXRsZSBpZD0idGl0bGU2NzcyMCI+cmVjdDcwNDU8L3RpdGxlPiYjeGE7CQkJCTxwYXRoIGlkPSJwYXRoNjc3MjIiIGlua3NjYXBlOmNvbm5lY3Rvci1jdXJ2YXR1cmU9IjAiIHN0eWxlPSJmaWxsOiM3MzczNzM7IiBkPSJNMCw4NS4zMWMwLDAuODMsMC42NywxLjUsMS41LDEuNWgyLjQgICAgICBjMC44MywwLDEuNS0wLjY3LDEuNS0xLjV2LTEzLjJjMC0wLjgzLTAuNjctMS41LTEuNS0xLjVIMS41Yy0wLjgzLDAtMS41LDAuNjctMS41LDEuNVY4NS4zMXoiLz4mI3hhOwkJCTwvZz4mI3hhOwkJCTxnIGlkPSJzaGFwZTU3MTYtMTIiIHRyYW5zZm9ybT0idHJhbnNsYXRlKDE0LjMxKSI+JiN4YTsJCQkJPHRpdGxlIGlkPSJ0aXRsZTY3NzI1Ij5wYXRoNzA0NzwvdGl0bGU+JiN4YTsJCQkJPHBhdGggaWQ9InBhdGg2NzcyNyIgaW5rc2NhcGU6Y29ubmVjdG9yLWN1cnZhdHVyZT0iMCIgc3R5bGU9ImZpbGw6IzAwNzhENzsiIGQ9Ik02LjUzLDgwLjA2QzIuODYsODAuMTItMC4wNiw4My4xNCwwLDg2LjgxICAgICAgaDEzLjA2QzEzLjEyLDgzLjE0LDEwLjIsODAuMTIsNi41Myw4MC4wNnoiLz4mI3hhOwkJCTwvZz4mI3hhOwkJCTxnIGlkPSJzaGFwZTU3MTctMTQiIHRyYW5zZm9ybT0idHJhbnNsYXRlKDMyLjk4NSwtNC45MTI1KSI+JiN4YTsJCQkJPHRpdGxlIGlkPSJ0aXRsZTY3NzMwIj5yZWN0NzA0OTwvdGl0bGU+JiN4YTsJCQkJPHBhdGggaWQ9InBhdGg2NzczMiIgaW5rc2NhcGU6Y29ubmVjdG9yLWN1cnZhdHVyZT0iMCIgc3R5bGU9ImZpbGw6IzczNzM3MzsiIGQ9Ik0wLDg1LjMxYzAsMC44MywwLjY3LDEuNSwxLjUsMS41aDIuNCAgICAgIGMwLjgzLDAsMS41LTAuNjcsMS41LTEuNXYtMTMuMmMwLTAuODMtMC42Ny0xLjUtMS41LTEuNUgxLjVjLTAuODMsMC0xLjUsMC42Ny0xLjUsMS41Vjg1LjMxeiIvPiYjeGE7CQkJPC9nPiYjeGE7CQkJPGcgaWQ9InNoYXBlNTcxOC0xNiIgdHJhbnNmb3JtPSJ0cmFuc2xhdGUoMjkuMTYpIj4mI3hhOwkJCQk8dGl0bGUgaWQ9InRpdGxlNjc3MzUiPnBhdGg3MDUxPC90aXRsZT4mI3hhOwkJCQk8cGF0aCBpZD0icGF0aDY3NzM3IiBpbmtzY2FwZTpjb25uZWN0b3ItY3VydmF0dXJlPSIwIiBzdHlsZT0iZmlsbDojMDA3OEQ3OyIgZD0iTTYuNTMsODAuMDZDMi44Niw4MC4xMi0wLjA2LDgzLjE0LDAsODYuODEgICAgICBoMTMuMDZDMTMuMTIsODMuMTQsMTAuMiw4MC4xMiw2LjUzLDgwLjA2eiIvPiYjeGE7CQkJPC9nPiYjeGE7CQkJPGcgaWQ9InNoYXBlNTcxOS0xOCIgdHJhbnNmb3JtPSJyb3RhdGUoLTg1LjA2LC0xNS43NTM3ODksNTAuMTA4NTQxKSI+JiN4YTsJCQkJPHRpdGxlIGlkPSJ0aXRsZTY3NzQwIj5jaXJjbGU3MDUzPC90aXRsZT4mI3hhOwkJCQk8Y2lyY2xlIGlkPSJlbGxpcHNlNjc3NDIiIHN0eWxlPSJmaWxsOiMwMDIwNTA7IiBjeD0iMi43IiBjeT0iODQuMTEiIHI9IjIuNyIvPiYjeGE7CQkJPC9nPiYjeGE7CQkJPGcgaWQ9InNoYXBlNTcyMC0yMCIgdHJhbnNmb3JtPSJyb3RhdGUoLTg1LjA2LC02LjY0MDIyOTksNDAuMTczNTA0KSI+JiN4YTsJCQkJPHRpdGxlIGlkPSJ0aXRsZTY3NzQ1Ij5jaXJjbGU3MDU1PC90aXRsZT4mI3hhOwkJCQk8Y2lyY2xlIGlkPSJlbGxpcHNlNjc3NDciIHN0eWxlPSJmaWxsOiMwMDIwNTA7IiBjeD0iMi43IiBjeT0iODQuMTEiIHI9IjIuNyIvPiYjeGE7CQkJPC9nPiYjeGE7CQkJPGcgaWQ9InNoYXBlNTcyMS0yMiIgdHJhbnNmb3JtPSJ0cmFuc2xhdGUoMzkuMjg1LC0yNS44Mzc1KSI+JiN4YTsJCQkJPHRpdGxlIGlkPSJ0aXRsZTY3NzUwIj5wYXRoNzA1NzwvdGl0bGU+JiN4YTsJCQkJPHBhdGggaWQ9InBhdGg2Nzc1MiIgaW5rc2NhcGU6Y29ubmVjdG9yLWN1cnZhdHVyZT0iMCIgc3R5bGU9ImZpbGw6IzZENkU3MTsiIGQ9Ik0xNS41Miw4MC43NHY2LjA3aC0zLjM3di02LjEzICAgICAgYzAtMC40My0wLjA0LTAuODYtMC4xLTEuMjljLTAuNS0zLjMtMi44My01LjUxLTUuODYtNS41MUgwdi0zLjIzaDYuMjFjNC43LDAsOC42LDMuOTUsOS4yMiw4Ljc3ICAgICAgQzE1LjQ5LDc5Ljg2LDE1LjUyLDgwLjMsMTUuNTIsODAuNzR6Ii8+JiN4YTsJCQk8L2c+JiN4YTsJCQk8ZyBpZD0ic2hhcGU1NzIyLTI0IiB0cmFuc2Zvcm09InRyYW5zbGF0ZSg0OS45NSwtMTkuNSkiPiYjeGE7CQkJCTx0aXRsZSBpZD0idGl0bGU2Nzc1NSI+cGF0aDcwNTk8L3RpdGxlPiYjeGE7CQkJCTxwYXRoIGlkPSJwYXRoNjc3NTciIGlua3NjYXBlOmNvbm5lY3Rvci1jdXJ2YXR1cmU9IjAiIHN0eWxlPSJmaWxsOm5vbmU7IiBkPSJNMCw4Ni44MWMtMS40NS0xLjk0LTEuMDYtNC42OSwwLjg4LTYuMTQgICAgICBzNC42OS0xLjA2LDYuMTQsMC44OGMxLjE3LDEuNTYsMS4xNywzLjcxLDAsNS4yNkgweiIvPiYjeGE7CQkJCSYjeGE7CQkJCQk8cGF0aCBpZD0icGF0aDY3NzU5IiBpbmtzY2FwZTpjb25uZWN0b3ItY3VydmF0dXJlPSIwIiBzdHlsZT0iZmlsbDpub25lO3N0cm9rZTojNkQ2RTcxO3N0cm9rZS13aWR0aDozO3N0cm9rZS1taXRlcmxpbWl0OjM7IiBkPSIgICAgICBNMCw4Ni44MWMtMS40NS0xLjk0LTEuMDYtNC42OSwwLjg4LTYuMTRzNC42OS0xLjA2LDYuMTQsMC44OGMxLjE3LDEuNTYsMS4xNywzLjcxLDAsNS4yNiIvPiYjeGE7CQkJPC9nPiYjeGE7CQkJPGcgaWQ9InNoYXBlNTcyMy0yNyIgdHJhbnNmb3JtPSJ0cmFuc2xhdGUoNDEuMzEsLTMzLjI2MjUpIj4mI3hhOwkJCQk8dGl0bGUgaWQ9InRpdGxlNjc3NjIiPnBhdGg3MDYxPC90aXRsZT4mI3hhOwkJCQk8cGF0aCBpZD0icGF0aDY3NzY0IiBpbmtzY2FwZTpjb25uZWN0b3ItY3VydmF0dXJlPSIwIiBzdHlsZT0iZmlsbDojMDA3OEQ3OyIgZD0iTTEzLjQyLDg2LjgxaC0zLjM3ICAgICAgYy0wLjUtMy4yOS0yLjgzLTUuNS01Ljg3LTUuNUgwdi0zLjI0aDQuMThDOC45Miw3OC4wNywxMi43OSw4MS45OSwxMy40Miw4Ni44MXoiLz4mI3hhOwkJCTwvZz4mI3hhOwkJCTxnIGlkPSJzaGFwZTU3MjQtMjkiIHRyYW5zZm9ybT0idHJhbnNsYXRlKDIuMTYsLTI1LjgzNzUpIj4mI3hhOwkJCQk8dGl0bGUgaWQ9InRpdGxlNjc3NjciPnBhdGg3MDYzPC90aXRsZT4mI3hhOwkJCQk8cGF0aCBpZD0icGF0aDY3NzY5IiBpbmtzY2FwZTpjb25uZWN0b3ItY3VydmF0dXJlPSIwIiBzdHlsZT0iZmlsbDojNkQ2RTcxOyIgZD0iTTAsODAuNzR2Ni4wN2gzLjM3di02LjEzICAgICAgYzAtMC40MywwLjA0LTAuODYsMC4xLTEuMjljMC41LTMuMywyLjgzLTUuNTEsNS44Ny01LjUxaDYuMjF2LTMuMjNIOS4zNGMtNC43MSwwLTguNjEsMy45NS05LjIzLDguNzcgICAgICBDMC4wNCw3OS44NiwwLjAxLDgwLjMsMCw4MC43NHoiLz4mI3hhOwkJCTwvZz4mI3hhOwkJCTxnIGlkPSJzaGFwZTU3MjUtMzEiIHRyYW5zZm9ybT0idHJhbnNsYXRlKDAsLTE5LjUpIj4mI3hhOwkJCQk8dGl0bGUgaWQ9InRpdGxlNjc3NzIiPnBhdGg3MDY1PC90aXRsZT4mI3hhOwkJCQk8cGF0aCBpZD0icGF0aDY3Nzc0IiBpbmtzY2FwZTpjb25uZWN0b3ItY3VydmF0dXJlPSIwIiBzdHlsZT0iZmlsbDpub25lOyIgZD0iTTcuMDIsODYuODFjMS40NS0xLjk0LDEuMDYtNC42OS0wLjg4LTYuMTQgICAgICBTMS40NSw3OS42MSwwLDgxLjU1Yy0xLjE3LDEuNTYtMS4xNywzLjcxLDAsNS4yNkg3LjAyeiIvPiYjeGE7CQkJCSYjeGE7CQkJCQk8cGF0aCBpZD0icGF0aDY3Nzc2IiBpbmtzY2FwZTpjb25uZWN0b3ItY3VydmF0dXJlPSIwIiBzdHlsZT0iZmlsbDpub25lO3N0cm9rZTojNkQ2RTcxO3N0cm9rZS13aWR0aDozO3N0cm9rZS1taXRlcmxpbWl0OjM7IiBkPSIgICAgICBNNy4wMiw4Ni44MWMxLjQ1LTEuOTQsMS4wNi00LjY5LTAuODgtNi4xNFMxLjQ1LDc5LjYxLDAsODEuNTVjLTEuMTcsMS41Ni0xLjE3LDMuNzEsMCw1LjI2Ii8+JiN4YTsJCQk8L2c+JiN4YTsJCQk8ZyBpZD0ic2hhcGU1NzI2LTM0IiB0cmFuc2Zvcm09InRyYW5zbGF0ZSgyLjIzNSwtMzMuMjYyNSkiPiYjeGE7CQkJCTx0aXRsZSBpZD0idGl0bGU2Nzc3OSI+cGF0aDcwNjc8L3RpdGxlPiYjeGE7CQkJCTxwYXRoIGlkPSJwYXRoNjc3ODEiIGlua3NjYXBlOmNvbm5lY3Rvci1jdXJ2YXR1cmU9IjAiIHN0eWxlPSJmaWxsOiMwMDc4RDc7IiBkPSJNMCw4Ni44MWgzLjM2YzAuNS0zLjI5LDIuODMtNS41LDUuODYtNS41aDQuMTkgICAgICB2LTMuMjRIOS4yMkM0LjUsNzguMDcsMC42Myw4MS45OSwwLDg2LjgxeiIvPiYjeGE7CQkJPC9nPiYjeGE7CQkJPGcgaWQ9InNoYXBlNTcyNy0zNiIgdHJhbnNmb3JtPSJ0cmFuc2xhdGUoMTEuMjM1LC0xNS43NSkiPiYjeGE7CQkJCTx0aXRsZSBpZD0idGl0bGU2Nzc4NCI+cGF0aDcwNjk8L3RpdGxlPiYjeGE7CQkJCTxwYXRoIGlkPSJwYXRoNjc3ODYiIGlua3NjYXBlOmNvbm5lY3Rvci1jdXJ2YXR1cmU9IjAiIHN0eWxlPSJmaWxsOiM3MzczNzM7IiBkPSJNMCw1OS44MVY4MS45YzAuMDgsMi43OCwyLjM4LDQuOTcsNS4xNiw0LjkxICAgICAgaDI0LjkzYzIuNzgsMC4wNiw1LjA4LTIuMTMsNS4xNi00LjkxVjU5LjgxSDB6Ii8+JiN4YTsJCQk8L2c+JiN4YTsJCTwvZz4mI3hhOwkJPGcgaWQ9InNoYXBlNTcyOC0zOCIgdHJhbnNmb3JtPSJ0cmFuc2xhdGUoMTUuODQ3NSwtNjQuOTY1KSI+JiN4YTsJCQk8dGl0bGUgaWQ9InRpdGxlNjc3OTAiPnBhdGg3MDk3PC90aXRsZT4mI3hhOwkJCTxwYXRoIGlkPSJwYXRoNjc3OTIiIGlua3NjYXBlOmNvbm5lY3Rvci1jdXJ2YXR1cmU9IjAiIHN0eWxlPSJmaWxsOm5vbmU7IiBkPSJNNC45MSw4Ni44MWMtNS40MS00LjA1LTYuNTItMTEuNzItMi40Ny0xNy4xMyAgICAgYzAuNy0wLjk0LDEuNTMtMS43NywyLjQ3LTIuNDdWODYuODF6Ii8+JiN4YTsJCQkmI3hhOwkJCQk8cGF0aCBpZD0icGF0aDY3Nzk0IiBpbmtzY2FwZTpjb25uZWN0b3ItY3VydmF0dXJlPSIwIiBzdHlsZT0iZmlsbDpub25lO3N0cm9rZTojMDA3OEQ3O3N0cm9rZS13aWR0aDoxLjU7c3Ryb2tlLW1pdGVybGltaXQ6MzsiIGQ9IiAgICAgTTQuOTEsODYuODFjLTUuNDEtNC4wNS02LjUyLTExLjcyLTIuNDctMTcuMTNjMC43LTAuOTQsMS41My0xLjc3LDIuNDctMi40NyIvPiYjeGE7CQk8L2c+JiN4YTsJCTxnIGlkPSJzaGFwZTU3MjktNDEiIHRyYW5zZm9ybT0idHJhbnNsYXRlKDM1LjQ1MjUsLTY0Ljk1NzUpIj4mI3hhOwkJCTx0aXRsZSBpZD0idGl0bGU2Nzc5NyI+cGF0aDcwOTk8L3RpdGxlPiYjeGE7CQkJPHBhdGggaWQ9InBhdGg2Nzc5OSIgaW5rc2NhcGU6Y29ubmVjdG9yLWN1cnZhdHVyZT0iMCIgc3R5bGU9ImZpbGw6bm9uZTsiIGQ9Ik0wLDY3LjIxYzUuNDEsNC4wNSw2LjUyLDExLjcyLDIuNDcsMTcuMTMgICAgIGMtMC43LDAuOTQtMS41MywxLjc3LTIuNDcsMi40N1Y2Ny4yMXoiLz4mI3hhOwkJCSYjeGE7CQkJCTxwYXRoIGlkPSJwYXRoNjc4MDEiIGlua3NjYXBlOmNvbm5lY3Rvci1jdXJ2YXR1cmU9IjAiIHN0eWxlPSJmaWxsOm5vbmU7c3Ryb2tlOiMwMDc4RDc7c3Ryb2tlLXdpZHRoOjEuNTtzdHJva2UtbWl0ZXJsaW1pdDozOyIgZD0iICAgICBNMCw2Ny4yMWM1LjQxLDQuMDUsNi41MiwxMS43MiwyLjQ3LDE3LjEzYy0wLjcsMC45NC0xLjUzLDEuNzctMi40NywyLjQ3Ii8+JiN4YTsJCTwvZz4mI3hhOwkJPGcgaWQ9InNoYXBlNTczMC00NCIgdHJhbnNmb3JtPSJ0cmFuc2xhdGUoMzIuMTksLTY4LjE3NSkiPiYjeGE7CQkJPHRpdGxlIGlkPSJ0aXRsZTY3ODA0Ij5wYXRoNzEwMTwvdGl0bGU+JiN4YTsJCQk8cGF0aCBpZD0icGF0aDY3ODA2IiBpbmtzY2FwZTpjb25uZWN0b3ItY3VydmF0dXJlPSIwIiBzdHlsZT0iZmlsbDpub25lOyIgZD0iTTAsODYuODFjMy42NC0xLjgsNS4xMi02LjIxLDMuMzItOS44NSAgICAgQzIuNjEsNzUuNTIsMS40NCw3NC4zNSwwLDczLjY0Vjg2LjgxeiIvPiYjeGE7CQkJJiN4YTsJCQkJPHBhdGggaWQ9InBhdGg2NzgwOCIgaW5rc2NhcGU6Y29ubmVjdG9yLWN1cnZhdHVyZT0iMCIgc3R5bGU9ImZpbGw6bm9uZTtzdHJva2U6IzAwNzhENztzdHJva2Utd2lkdGg6MS41O3N0cm9rZS1taXRlcmxpbWl0OjM7IiBkPSIgICAgIE0wLDg2LjgxYzMuNjQtMS44LDUuMTItNi4yMSwzLjMyLTkuODVDMi42MSw3NS41MiwxLjQ0LDc0LjM1LDAsNzMuNjQiLz4mI3hhOwkJPC9nPiYjeGE7CQk8ZyBpZD0ic2hhcGU1NzMxLTQ3IiB0cmFuc2Zvcm09InRyYW5zbGF0ZSgxOS45Mzc1LC02OC4xNzUpIj4mI3hhOwkJCTx0aXRsZSBpZD0idGl0bGU2NzgxMSI+cGF0aDcxMDM8L3RpdGxlPiYjeGE7CQkJPHBhdGggaWQ9InBhdGg2NzgxMyIgaW5rc2NhcGU6Y29ubmVjdG9yLWN1cnZhdHVyZT0iMCIgc3R5bGU9ImZpbGw6bm9uZTsiIGQ9Ik00LjA4LDczLjY0Yy0zLjY0LDEuOC01LjEyLDYuMjEtMy4zMiw5Ljg1ICAgICBjMC43MSwxLjQ0LDEuODgsMi42MSwzLjMyLDMuMzJWNzMuNjR6Ii8+JiN4YTsJCQkmI3hhOwkJCQk8cGF0aCBpZD0icGF0aDY3ODE1IiBpbmtzY2FwZTpjb25uZWN0b3ItY3VydmF0dXJlPSIwIiBzdHlsZT0iZmlsbDpub25lO3N0cm9rZTojMDA3OEQ3O3N0cm9rZS13aWR0aDoxLjU7c3Ryb2tlLW1pdGVybGltaXQ6MzsiIGQ9IiAgICAgTTQuMDgsNzMuNjRjLTMuNjQsMS44LTUuMTIsNi4yMS0zLjMyLDkuODVjMC43MSwxLjQ0LDEuODgsMi42MSwzLjMyLDMuMzIiLz4mI3hhOwkJPC9nPiYjeGE7CQk8ZyBpZD0iZ3JvdXA1NzMyLTUwIiB0cmFuc2Zvcm09InRyYW5zbGF0ZSgyMy4yMzUsLTI3LjM5KSI+JiN4YTsJCQk8dGl0bGUgaWQ9InRpdGxlNjc4MTgiPmc3MTA5PC90aXRsZT4mI3hhOwkJCTxnIGlkPSJzaGFwZTU3MzMtNTEiIHRyYW5zZm9ybT0idHJhbnNsYXRlKDAsLTAuMDY4ODg1NikiPiYjeGE7CQkJCTx0aXRsZSBpZD0idGl0bGU2NzgyMCI+cGF0aDcxMDU8L3RpdGxlPiYjeGE7CQkJCSYjeGE7CQkJCQk8cGF0aCBpZD0icGF0aDY3ODIyIiBpbmtzY2FwZTpjb25uZWN0b3ItY3VydmF0dXJlPSIwIiBzdHlsZT0iZmlsbDojRTZFNkU2O3N0cm9rZTojNzM3MzczO3N0cm9rZS13aWR0aDoxLjU7c3Ryb2tlLW1pdGVybGltaXQ6MzsiIGQ9IiAgICAgIE0wLDgyLjc3YzAsMy4xNiwyLjU1LDUuNzIsNS43MSw1LjcyYzMuMTYsMCw1LjcyLTIuNTUsNS43Mi01LjcxYzAtMy4xNi0yLjU1LTUuNzItNS43MS01LjcyYzAsMC0wLjAxLDAtMC4wMSwwICAgICAgQzIuNTYsNzcuMDcsMC4wMSw3OS42MiwwLDgyLjc3eiIvPiYjeGE7CQkJPC9nPiYjeGE7CQkJPGcgaWQ9InNoYXBlNTczNC01MyIgdHJhbnNmb3JtPSJ0cmFuc2xhdGUoMS42MDUpIj4mI3hhOwkJCQk8dGl0bGUgaWQ9InRpdGxlNjc4MjUiPmNpcmNsZTcxMDc8L3RpdGxlPiYjeGE7CQkJCTxjaXJjbGUgaWQ9ImVsbGlwc2U2NzgyNyIgc3R5bGU9ImZpbGw6I0ZGRkZGRjsiIGN4PSI0LjA4IiBjeT0iODIuNzMiIHI9IjQuMDgiLz4mI3hhOwkJCTwvZz4mI3hhOwkJPC9nPiYjeGE7CTwvZz4mI3hhOzwvZz4mI3hhOzwvc3ZnPg==;fontSize=18;" vertex="1" parent="1">
          <mxGeometry x="909.9950000000001" y="140" width="47.41" height="65" as="geometry" />
        </mxCell>
        <mxCell id="keo_O-B1GyqZ8fwBsUim-43" value="" style="shape=image;verticalLabelPosition=bottom;labelBackgroundColor=#ffffff;verticalAlign=top;aspect=fixed;imageAspect=0;image=data:image/svg+xml,PHN2ZyB4bWxuczpjYz0iaHR0cDovL2NyZWF0aXZlY29tbW9ucy5vcmcvbnMjIiB4bWxuczpkYz0iaHR0cDovL3B1cmwub3JnL2RjL2VsZW1lbnRzLzEuMS8iIHhtbG5zOmlua3NjYXBlPSJodHRwOi8vd3d3Lmlua3NjYXBlLm9yZy9uYW1lc3BhY2VzL2lua3NjYXBlIiB4bWxuczpyZGY9Imh0dHA6Ly93d3cudzMub3JnLzE5OTkvMDIvMjItcmRmLXN5bnRheC1ucyMiIHhtbG5zOnNvZGlwb2RpPSJodHRwOi8vc29kaXBvZGkuc291cmNlZm9yZ2UubmV0L0RURC9zb2RpcG9kaS0wLmR0ZCIgeG1sbnM6c3ZnPSJodHRwOi8vd3d3LnczLm9yZy8yMDAwL3N2ZyIgeG1sbnM9Imh0dHA6Ly93d3cudzMub3JnLzIwMDAvc3ZnIiB4bWxuczp4bGluaz0iaHR0cDovL3d3dy53My5vcmcvMTk5OS94bGluayIgdmVyc2lvbj0iMS4xIiBpZD0ic3ZnNjc4MzQiIGlua3NjYXBlOnZlcnNpb249IjAuOTIuMyAoMjQwNTU0NiwgMjAxOC0wMy0xMSkiIHNvZGlwb2RpOmRvY25hbWU9ImJvdC5zdmciIHg9IjBweCIgeT0iMHB4IiB2aWV3Qm94PSIwIDAgNjEuNjcgODUuMTciIHN0eWxlPSJlbmFibGUtYmFja2dyb3VuZDpuZXcgMCAwIDYxLjY3IDg1LjE3OyIgeG1sOnNwYWNlPSJwcmVzZXJ2ZSI+JiN4YTs8c29kaXBvZGk6bmFtZWR2aWV3IGJvcmRlcmNvbG9yPSIjNjY2NjY2IiBib3JkZXJvcGFjaXR5PSIxIiBmaXQtbWFyZ2luLWJvdHRvbT0iMCIgZml0LW1hcmdpbi1sZWZ0PSIwIiBmaXQtbWFyZ2luLXJpZ2h0PSIwIiBmaXQtbWFyZ2luLXRvcD0iMCIgZ3JpZHRvbGVyYW5jZT0iMTAiIGd1aWRldG9sZXJhbmNlPSIxMCIgaWQ9Im5hbWVkdmlldzY3ODM2IiBpbmtzY2FwZTpjdXJyZW50LWxheWVyPSJzdmc2NzgzNCIgaW5rc2NhcGU6Y3g9IjMwLjgzNTY0OCIgaW5rc2NhcGU6Y3k9IjQ4LjE2MTg3MSIgaW5rc2NhcGU6cGFnZW9wYWNpdHk9IjAiIGlua3NjYXBlOnBhZ2VzaGFkb3c9IjIiIGlua3NjYXBlOndpbmRvdy1oZWlnaHQ9IjEwMTciIGlua3NjYXBlOndpbmRvdy1tYXhpbWl6ZWQ9IjEiIGlua3NjYXBlOndpbmRvdy13aWR0aD0iMTkyMCIgaW5rc2NhcGU6d2luZG93LXg9Ii04IiBpbmtzY2FwZTp3aW5kb3cteT0iLTgiIGlua3NjYXBlOnpvb209IjUuMjk2NDI0OCIgb2JqZWN0dG9sZXJhbmNlPSIxMCIgcGFnZWNvbG9yPSIjZmZmZmZmIiBzaG93Z3JpZD0iZmFsc2UiPiYjeGE7CTwvc29kaXBvZGk6bmFtZWR2aWV3PiYjeGE7PGcgaWQ9Imc2NzgzMiIgdHJhbnNmb3JtPSJ0cmFuc2xhdGUoLTEuNTI5ODkzLC0wLjg5NDUwOTgpIj4mI3hhOwk8dGl0bGUgaWQ9InRpdGxlNjc2OTYiPlBhZ2UtMTwvdGl0bGU+JiN4YTsJPGcgaWQ9Imdyb3VwNTcwOS0xIiB0cmFuc2Zvcm09InRyYW5zbGF0ZSgzLjg3NzUsLTAuNzUpIj4mI3hhOwkJPHRpdGxlIGlkPSJ0aXRsZTY3Njk4Ij5Cb3Q8L3RpdGxlPiYjeGE7CQk8ZyBpZD0iZ3JvdXA1NzEwLTIiPiYjeGE7CQkJPHRpdGxlIGlkPSJ0aXRsZTY3NzAwIj5nNzA3MTwvdGl0bGU+JiN4YTsJCQk8ZyBpZD0iZ3JvdXA1NzExLTMiIHRyYW5zZm9ybT0idHJhbnNsYXRlKDI0LjYxMzgsLTU5LjI0MjUpIj4mI3hhOwkJCQk8dGl0bGUgaWQ9InRpdGxlNjc3MDIiPmc3MDQxPC90aXRsZT4mI3hhOwkJCQk8ZyBpZD0ic2hhcGU1NzEyLTQiIHRyYW5zZm9ybT0idHJhbnNsYXRlKDEuODYxMTYpIj4mI3hhOwkJCQkJPHRpdGxlIGlkPSJ0aXRsZTY3NzA0Ij5yZWN0NzAzNzwvdGl0bGU+JiN4YTsJCQkJCTxwYXRoIGlkPSJwYXRoNjc3MDYiIGlua3NjYXBlOmNvbm5lY3Rvci1jdXJ2YXR1cmU9IjAiIHN0eWxlPSJmaWxsOiMwMDc4RDc7IiBkPSJNMCw4NS4zMWMwLDAuODMsMC42NywxLjUsMS41LDEuNWgwLjI3ICAgICAgIGMwLjgzLDAsMS41LTAuNjcsMS41LTEuNVY3NS4yNWMwLTAuODMtMC42Ny0xLjUtMS41LTEuNUgxLjVjLTAuODMsMC0xLjUsMC42Ny0xLjUsMS41Vjg1LjMxeiIvPiYjeGE7CQkJCTwvZz4mI3hhOwkJCQk8ZyBpZD0ic2hhcGU1NzEzLTYiIHRyYW5zZm9ybT0idHJhbnNsYXRlKDAsLTEyLjA3MjYpIj4mI3hhOwkJCQkJPHRpdGxlIGlkPSJ0aXRsZTY3NzA5Ij5wYXRoNzAzOTwvdGl0bGU+JiN4YTsJCQkJCTxwYXRoIGlkPSJwYXRoNjc3MTEiIGlua3NjYXBlOmNvbm5lY3Rvci1jdXJ2YXR1cmU9IjAiIHN0eWxlPSJmaWxsOiMwMDc4RDc7IiBkPSJNMy41LDc4LjQ2Yy0yLjctMC4wMi00LjkxLDIuMTctNC45Miw0Ljg3ICAgICAgIHMyLjE3LDQuOTEsNC44Nyw0LjkyczQuOTEtMi4xNyw0LjkyLTQuODdjMCwwLDAtMC4wMSwwLTAuMDFDOC4zOCw4MC42Nyw2LjIsNzguNDgsMy41LDc4LjQ2eiBNMy41LDg1LjgxICAgICAgIGMtMS4zNSwwLTIuNDUtMS4xLTIuNDUtMi40NWMwLTEuMzUsMS4xLTIuNDUsMi40NS0yLjQ2czIuNDUsMS4xLDIuNDUsMi40NWMwLDAsMCwwLDAsMEM1Ljk1LDg0LjcxLDQuODYsODUuODIsMy41LDg1LjgxICAgICAgIGMwLDAuMDEsMCwwLjAxLDAsMC4wMVY4NS44MXoiLz4mI3hhOwkJCQk8L2c+JiN4YTsJCQk8L2c+JiN4YTsJCQk8ZyBpZD0ic2hhcGU1NzE0LTgiIHRyYW5zZm9ybT0idHJhbnNsYXRlKDExLjk4NSwtNDQuOTI1KSI+JiN4YTsJCQkJPHRpdGxlIGlkPSJ0aXRsZTY3NzE1Ij5yZWN0NzA0MzwvdGl0bGU+JiN4YTsJCQkJJiN4YTsJCQkJCTxwYXRoIGlkPSJwYXRoNjc3MTciIGlua3NjYXBlOmNvbm5lY3Rvci1jdXJ2YXR1cmU9IjAiIHN0eWxlPSJmaWxsOiNFNkU2RTY7c3Ryb2tlOiM3MzczNzM7c3Ryb2tlLXdpZHRoOjEuNTtzdHJva2UtbWl0ZXJsaW1pdDozOyIgZD0iICAgICAgTTAsODMuODFjMCwxLjY2LDEuMzQsMywzLDNoMjcuNzVjMS42NiwwLDMtMS4zNCwzLTN2LTEwLjVjMC0xLjY2LTEuMzQtMy0zLTNIM2MtMS42NiwwLTMsMS4zNC0zLDNWODMuODF6Ii8+JiN4YTsJCQk8L2c+JiN4YTsJCQk8ZyBpZD0ic2hhcGU1NzE1LTEwIiB0cmFuc2Zvcm09InRyYW5zbGF0ZSgxNy45ODUsLTQuOTEyNSkiPiYjeGE7CQkJCTx0aXRsZSBpZD0idGl0bGU2NzcyMCI+cmVjdDcwNDU8L3RpdGxlPiYjeGE7CQkJCTxwYXRoIGlkPSJwYXRoNjc3MjIiIGlua3NjYXBlOmNvbm5lY3Rvci1jdXJ2YXR1cmU9IjAiIHN0eWxlPSJmaWxsOiM3MzczNzM7IiBkPSJNMCw4NS4zMWMwLDAuODMsMC42NywxLjUsMS41LDEuNWgyLjQgICAgICBjMC44MywwLDEuNS0wLjY3LDEuNS0xLjV2LTEzLjJjMC0wLjgzLTAuNjctMS41LTEuNS0xLjVIMS41Yy0wLjgzLDAtMS41LDAuNjctMS41LDEuNVY4NS4zMXoiLz4mI3hhOwkJCTwvZz4mI3hhOwkJCTxnIGlkPSJzaGFwZTU3MTYtMTIiIHRyYW5zZm9ybT0idHJhbnNsYXRlKDE0LjMxKSI+JiN4YTsJCQkJPHRpdGxlIGlkPSJ0aXRsZTY3NzI1Ij5wYXRoNzA0NzwvdGl0bGU+JiN4YTsJCQkJPHBhdGggaWQ9InBhdGg2NzcyNyIgaW5rc2NhcGU6Y29ubmVjdG9yLWN1cnZhdHVyZT0iMCIgc3R5bGU9ImZpbGw6IzAwNzhENzsiIGQ9Ik02LjUzLDgwLjA2QzIuODYsODAuMTItMC4wNiw4My4xNCwwLDg2LjgxICAgICAgaDEzLjA2QzEzLjEyLDgzLjE0LDEwLjIsODAuMTIsNi41Myw4MC4wNnoiLz4mI3hhOwkJCTwvZz4mI3hhOwkJCTxnIGlkPSJzaGFwZTU3MTctMTQiIHRyYW5zZm9ybT0idHJhbnNsYXRlKDMyLjk4NSwtNC45MTI1KSI+JiN4YTsJCQkJPHRpdGxlIGlkPSJ0aXRsZTY3NzMwIj5yZWN0NzA0OTwvdGl0bGU+JiN4YTsJCQkJPHBhdGggaWQ9InBhdGg2NzczMiIgaW5rc2NhcGU6Y29ubmVjdG9yLWN1cnZhdHVyZT0iMCIgc3R5bGU9ImZpbGw6IzczNzM3MzsiIGQ9Ik0wLDg1LjMxYzAsMC44MywwLjY3LDEuNSwxLjUsMS41aDIuNCAgICAgIGMwLjgzLDAsMS41LTAuNjcsMS41LTEuNXYtMTMuMmMwLTAuODMtMC42Ny0xLjUtMS41LTEuNUgxLjVjLTAuODMsMC0xLjUsMC42Ny0xLjUsMS41Vjg1LjMxeiIvPiYjeGE7CQkJPC9nPiYjeGE7CQkJPGcgaWQ9InNoYXBlNTcxOC0xNiIgdHJhbnNmb3JtPSJ0cmFuc2xhdGUoMjkuMTYpIj4mI3hhOwkJCQk8dGl0bGUgaWQ9InRpdGxlNjc3MzUiPnBhdGg3MDUxPC90aXRsZT4mI3hhOwkJCQk8cGF0aCBpZD0icGF0aDY3NzM3IiBpbmtzY2FwZTpjb25uZWN0b3ItY3VydmF0dXJlPSIwIiBzdHlsZT0iZmlsbDojMDA3OEQ3OyIgZD0iTTYuNTMsODAuMDZDMi44Niw4MC4xMi0wLjA2LDgzLjE0LDAsODYuODEgICAgICBoMTMuMDZDMTMuMTIsODMuMTQsMTAuMiw4MC4xMiw2LjUzLDgwLjA2eiIvPiYjeGE7CQkJPC9nPiYjeGE7CQkJPGcgaWQ9InNoYXBlNTcxOS0xOCIgdHJhbnNmb3JtPSJyb3RhdGUoLTg1LjA2LC0xNS43NTM3ODksNTAuMTA4NTQxKSI+JiN4YTsJCQkJPHRpdGxlIGlkPSJ0aXRsZTY3NzQwIj5jaXJjbGU3MDUzPC90aXRsZT4mI3hhOwkJCQk8Y2lyY2xlIGlkPSJlbGxpcHNlNjc3NDIiIHN0eWxlPSJmaWxsOiMwMDIwNTA7IiBjeD0iMi43IiBjeT0iODQuMTEiIHI9IjIuNyIvPiYjeGE7CQkJPC9nPiYjeGE7CQkJPGcgaWQ9InNoYXBlNTcyMC0yMCIgdHJhbnNmb3JtPSJyb3RhdGUoLTg1LjA2LC02LjY0MDIyOTksNDAuMTczNTA0KSI+JiN4YTsJCQkJPHRpdGxlIGlkPSJ0aXRsZTY3NzQ1Ij5jaXJjbGU3MDU1PC90aXRsZT4mI3hhOwkJCQk8Y2lyY2xlIGlkPSJlbGxpcHNlNjc3NDciIHN0eWxlPSJmaWxsOiMwMDIwNTA7IiBjeD0iMi43IiBjeT0iODQuMTEiIHI9IjIuNyIvPiYjeGE7CQkJPC9nPiYjeGE7CQkJPGcgaWQ9InNoYXBlNTcyMS0yMiIgdHJhbnNmb3JtPSJ0cmFuc2xhdGUoMzkuMjg1LC0yNS44Mzc1KSI+JiN4YTsJCQkJPHRpdGxlIGlkPSJ0aXRsZTY3NzUwIj5wYXRoNzA1NzwvdGl0bGU+JiN4YTsJCQkJPHBhdGggaWQ9InBhdGg2Nzc1MiIgaW5rc2NhcGU6Y29ubmVjdG9yLWN1cnZhdHVyZT0iMCIgc3R5bGU9ImZpbGw6IzZENkU3MTsiIGQ9Ik0xNS41Miw4MC43NHY2LjA3aC0zLjM3di02LjEzICAgICAgYzAtMC40My0wLjA0LTAuODYtMC4xLTEuMjljLTAuNS0zLjMtMi44My01LjUxLTUuODYtNS41MUgwdi0zLjIzaDYuMjFjNC43LDAsOC42LDMuOTUsOS4yMiw4Ljc3ICAgICAgQzE1LjQ5LDc5Ljg2LDE1LjUyLDgwLjMsMTUuNTIsODAuNzR6Ii8+JiN4YTsJCQk8L2c+JiN4YTsJCQk8ZyBpZD0ic2hhcGU1NzIyLTI0IiB0cmFuc2Zvcm09InRyYW5zbGF0ZSg0OS45NSwtMTkuNSkiPiYjeGE7CQkJCTx0aXRsZSBpZD0idGl0bGU2Nzc1NSI+cGF0aDcwNTk8L3RpdGxlPiYjeGE7CQkJCTxwYXRoIGlkPSJwYXRoNjc3NTciIGlua3NjYXBlOmNvbm5lY3Rvci1jdXJ2YXR1cmU9IjAiIHN0eWxlPSJmaWxsOm5vbmU7IiBkPSJNMCw4Ni44MWMtMS40NS0xLjk0LTEuMDYtNC42OSwwLjg4LTYuMTQgICAgICBzNC42OS0xLjA2LDYuMTQsMC44OGMxLjE3LDEuNTYsMS4xNywzLjcxLDAsNS4yNkgweiIvPiYjeGE7CQkJCSYjeGE7CQkJCQk8cGF0aCBpZD0icGF0aDY3NzU5IiBpbmtzY2FwZTpjb25uZWN0b3ItY3VydmF0dXJlPSIwIiBzdHlsZT0iZmlsbDpub25lO3N0cm9rZTojNkQ2RTcxO3N0cm9rZS13aWR0aDozO3N0cm9rZS1taXRlcmxpbWl0OjM7IiBkPSIgICAgICBNMCw4Ni44MWMtMS40NS0xLjk0LTEuMDYtNC42OSwwLjg4LTYuMTRzNC42OS0xLjA2LDYuMTQsMC44OGMxLjE3LDEuNTYsMS4xNywzLjcxLDAsNS4yNiIvPiYjeGE7CQkJPC9nPiYjeGE7CQkJPGcgaWQ9InNoYXBlNTcyMy0yNyIgdHJhbnNmb3JtPSJ0cmFuc2xhdGUoNDEuMzEsLTMzLjI2MjUpIj4mI3hhOwkJCQk8dGl0bGUgaWQ9InRpdGxlNjc3NjIiPnBhdGg3MDYxPC90aXRsZT4mI3hhOwkJCQk8cGF0aCBpZD0icGF0aDY3NzY0IiBpbmtzY2FwZTpjb25uZWN0b3ItY3VydmF0dXJlPSIwIiBzdHlsZT0iZmlsbDojMDA3OEQ3OyIgZD0iTTEzLjQyLDg2LjgxaC0zLjM3ICAgICAgYy0wLjUtMy4yOS0yLjgzLTUuNS01Ljg3LTUuNUgwdi0zLjI0aDQuMThDOC45Miw3OC4wNywxMi43OSw4MS45OSwxMy40Miw4Ni44MXoiLz4mI3hhOwkJCTwvZz4mI3hhOwkJCTxnIGlkPSJzaGFwZTU3MjQtMjkiIHRyYW5zZm9ybT0idHJhbnNsYXRlKDIuMTYsLTI1LjgzNzUpIj4mI3hhOwkJCQk8dGl0bGUgaWQ9InRpdGxlNjc3NjciPnBhdGg3MDYzPC90aXRsZT4mI3hhOwkJCQk8cGF0aCBpZD0icGF0aDY3NzY5IiBpbmtzY2FwZTpjb25uZWN0b3ItY3VydmF0dXJlPSIwIiBzdHlsZT0iZmlsbDojNkQ2RTcxOyIgZD0iTTAsODAuNzR2Ni4wN2gzLjM3di02LjEzICAgICAgYzAtMC40MywwLjA0LTAuODYsMC4xLTEuMjljMC41LTMuMywyLjgzLTUuNTEsNS44Ny01LjUxaDYuMjF2LTMuMjNIOS4zNGMtNC43MSwwLTguNjEsMy45NS05LjIzLDguNzcgICAgICBDMC4wNCw3OS44NiwwLjAxLDgwLjMsMCw4MC43NHoiLz4mI3hhOwkJCTwvZz4mI3hhOwkJCTxnIGlkPSJzaGFwZTU3MjUtMzEiIHRyYW5zZm9ybT0idHJhbnNsYXRlKDAsLTE5LjUpIj4mI3hhOwkJCQk8dGl0bGUgaWQ9InRpdGxlNjc3NzIiPnBhdGg3MDY1PC90aXRsZT4mI3hhOwkJCQk8cGF0aCBpZD0icGF0aDY3Nzc0IiBpbmtzY2FwZTpjb25uZWN0b3ItY3VydmF0dXJlPSIwIiBzdHlsZT0iZmlsbDpub25lOyIgZD0iTTcuMDIsODYuODFjMS40NS0xLjk0LDEuMDYtNC42OS0wLjg4LTYuMTQgICAgICBTMS40NSw3OS42MSwwLDgxLjU1Yy0xLjE3LDEuNTYtMS4xNywzLjcxLDAsNS4yNkg3LjAyeiIvPiYjeGE7CQkJCSYjeGE7CQkJCQk8cGF0aCBpZD0icGF0aDY3Nzc2IiBpbmtzY2FwZTpjb25uZWN0b3ItY3VydmF0dXJlPSIwIiBzdHlsZT0iZmlsbDpub25lO3N0cm9rZTojNkQ2RTcxO3N0cm9rZS13aWR0aDozO3N0cm9rZS1taXRlcmxpbWl0OjM7IiBkPSIgICAgICBNNy4wMiw4Ni44MWMxLjQ1LTEuOTQsMS4wNi00LjY5LTAuODgtNi4xNFMxLjQ1LDc5LjYxLDAsODEuNTVjLTEuMTcsMS41Ni0xLjE3LDMuNzEsMCw1LjI2Ii8+JiN4YTsJCQk8L2c+JiN4YTsJCQk8ZyBpZD0ic2hhcGU1NzI2LTM0IiB0cmFuc2Zvcm09InRyYW5zbGF0ZSgyLjIzNSwtMzMuMjYyNSkiPiYjeGE7CQkJCTx0aXRsZSBpZD0idGl0bGU2Nzc3OSI+cGF0aDcwNjc8L3RpdGxlPiYjeGE7CQkJCTxwYXRoIGlkPSJwYXRoNjc3ODEiIGlua3NjYXBlOmNvbm5lY3Rvci1jdXJ2YXR1cmU9IjAiIHN0eWxlPSJmaWxsOiMwMDc4RDc7IiBkPSJNMCw4Ni44MWgzLjM2YzAuNS0zLjI5LDIuODMtNS41LDUuODYtNS41aDQuMTkgICAgICB2LTMuMjRIOS4yMkM0LjUsNzguMDcsMC42Myw4MS45OSwwLDg2LjgxeiIvPiYjeGE7CQkJPC9nPiYjeGE7CQkJPGcgaWQ9InNoYXBlNTcyNy0zNiIgdHJhbnNmb3JtPSJ0cmFuc2xhdGUoMTEuMjM1LC0xNS43NSkiPiYjeGE7CQkJCTx0aXRsZSBpZD0idGl0bGU2Nzc4NCI+cGF0aDcwNjk8L3RpdGxlPiYjeGE7CQkJCTxwYXRoIGlkPSJwYXRoNjc3ODYiIGlua3NjYXBlOmNvbm5lY3Rvci1jdXJ2YXR1cmU9IjAiIHN0eWxlPSJmaWxsOiM3MzczNzM7IiBkPSJNMCw1OS44MVY4MS45YzAuMDgsMi43OCwyLjM4LDQuOTcsNS4xNiw0LjkxICAgICAgaDI0LjkzYzIuNzgsMC4wNiw1LjA4LTIuMTMsNS4xNi00LjkxVjU5LjgxSDB6Ii8+JiN4YTsJCQk8L2c+JiN4YTsJCTwvZz4mI3hhOwkJPGcgaWQ9InNoYXBlNTcyOC0zOCIgdHJhbnNmb3JtPSJ0cmFuc2xhdGUoMTUuODQ3NSwtNjQuOTY1KSI+JiN4YTsJCQk8dGl0bGUgaWQ9InRpdGxlNjc3OTAiPnBhdGg3MDk3PC90aXRsZT4mI3hhOwkJCTxwYXRoIGlkPSJwYXRoNjc3OTIiIGlua3NjYXBlOmNvbm5lY3Rvci1jdXJ2YXR1cmU9IjAiIHN0eWxlPSJmaWxsOm5vbmU7IiBkPSJNNC45MSw4Ni44MWMtNS40MS00LjA1LTYuNTItMTEuNzItMi40Ny0xNy4xMyAgICAgYzAuNy0wLjk0LDEuNTMtMS43NywyLjQ3LTIuNDdWODYuODF6Ii8+JiN4YTsJCQkmI3hhOwkJCQk8cGF0aCBpZD0icGF0aDY3Nzk0IiBpbmtzY2FwZTpjb25uZWN0b3ItY3VydmF0dXJlPSIwIiBzdHlsZT0iZmlsbDpub25lO3N0cm9rZTojMDA3OEQ3O3N0cm9rZS13aWR0aDoxLjU7c3Ryb2tlLW1pdGVybGltaXQ6MzsiIGQ9IiAgICAgTTQuOTEsODYuODFjLTUuNDEtNC4wNS02LjUyLTExLjcyLTIuNDctMTcuMTNjMC43LTAuOTQsMS41My0xLjc3LDIuNDctMi40NyIvPiYjeGE7CQk8L2c+JiN4YTsJCTxnIGlkPSJzaGFwZTU3MjktNDEiIHRyYW5zZm9ybT0idHJhbnNsYXRlKDM1LjQ1MjUsLTY0Ljk1NzUpIj4mI3hhOwkJCTx0aXRsZSBpZD0idGl0bGU2Nzc5NyI+cGF0aDcwOTk8L3RpdGxlPiYjeGE7CQkJPHBhdGggaWQ9InBhdGg2Nzc5OSIgaW5rc2NhcGU6Y29ubmVjdG9yLWN1cnZhdHVyZT0iMCIgc3R5bGU9ImZpbGw6bm9uZTsiIGQ9Ik0wLDY3LjIxYzUuNDEsNC4wNSw2LjUyLDExLjcyLDIuNDcsMTcuMTMgICAgIGMtMC43LDAuOTQtMS41MywxLjc3LTIuNDcsMi40N1Y2Ny4yMXoiLz4mI3hhOwkJCSYjeGE7CQkJCTxwYXRoIGlkPSJwYXRoNjc4MDEiIGlua3NjYXBlOmNvbm5lY3Rvci1jdXJ2YXR1cmU9IjAiIHN0eWxlPSJmaWxsOm5vbmU7c3Ryb2tlOiMwMDc4RDc7c3Ryb2tlLXdpZHRoOjEuNTtzdHJva2UtbWl0ZXJsaW1pdDozOyIgZD0iICAgICBNMCw2Ny4yMWM1LjQxLDQuMDUsNi41MiwxMS43MiwyLjQ3LDE3LjEzYy0wLjcsMC45NC0xLjUzLDEuNzctMi40NywyLjQ3Ii8+JiN4YTsJCTwvZz4mI3hhOwkJPGcgaWQ9InNoYXBlNTczMC00NCIgdHJhbnNmb3JtPSJ0cmFuc2xhdGUoMzIuMTksLTY4LjE3NSkiPiYjeGE7CQkJPHRpdGxlIGlkPSJ0aXRsZTY3ODA0Ij5wYXRoNzEwMTwvdGl0bGU+JiN4YTsJCQk8cGF0aCBpZD0icGF0aDY3ODA2IiBpbmtzY2FwZTpjb25uZWN0b3ItY3VydmF0dXJlPSIwIiBzdHlsZT0iZmlsbDpub25lOyIgZD0iTTAsODYuODFjMy42NC0xLjgsNS4xMi02LjIxLDMuMzItOS44NSAgICAgQzIuNjEsNzUuNTIsMS40NCw3NC4zNSwwLDczLjY0Vjg2LjgxeiIvPiYjeGE7CQkJJiN4YTsJCQkJPHBhdGggaWQ9InBhdGg2NzgwOCIgaW5rc2NhcGU6Y29ubmVjdG9yLWN1cnZhdHVyZT0iMCIgc3R5bGU9ImZpbGw6bm9uZTtzdHJva2U6IzAwNzhENztzdHJva2Utd2lkdGg6MS41O3N0cm9rZS1taXRlcmxpbWl0OjM7IiBkPSIgICAgIE0wLDg2LjgxYzMuNjQtMS44LDUuMTItNi4yMSwzLjMyLTkuODVDMi42MSw3NS41MiwxLjQ0LDc0LjM1LDAsNzMuNjQiLz4mI3hhOwkJPC9nPiYjeGE7CQk8ZyBpZD0ic2hhcGU1NzMxLTQ3IiB0cmFuc2Zvcm09InRyYW5zbGF0ZSgxOS45Mzc1LC02OC4xNzUpIj4mI3hhOwkJCTx0aXRsZSBpZD0idGl0bGU2NzgxMSI+cGF0aDcxMDM8L3RpdGxlPiYjeGE7CQkJPHBhdGggaWQ9InBhdGg2NzgxMyIgaW5rc2NhcGU6Y29ubmVjdG9yLWN1cnZhdHVyZT0iMCIgc3R5bGU9ImZpbGw6bm9uZTsiIGQ9Ik00LjA4LDczLjY0Yy0zLjY0LDEuOC01LjEyLDYuMjEtMy4zMiw5Ljg1ICAgICBjMC43MSwxLjQ0LDEuODgsMi42MSwzLjMyLDMuMzJWNzMuNjR6Ii8+JiN4YTsJCQkmI3hhOwkJCQk8cGF0aCBpZD0icGF0aDY3ODE1IiBpbmtzY2FwZTpjb25uZWN0b3ItY3VydmF0dXJlPSIwIiBzdHlsZT0iZmlsbDpub25lO3N0cm9rZTojMDA3OEQ3O3N0cm9rZS13aWR0aDoxLjU7c3Ryb2tlLW1pdGVybGltaXQ6MzsiIGQ9IiAgICAgTTQuMDgsNzMuNjRjLTMuNjQsMS44LTUuMTIsNi4yMS0zLjMyLDkuODVjMC43MSwxLjQ0LDEuODgsMi42MSwzLjMyLDMuMzIiLz4mI3hhOwkJPC9nPiYjeGE7CQk8ZyBpZD0iZ3JvdXA1NzMyLTUwIiB0cmFuc2Zvcm09InRyYW5zbGF0ZSgyMy4yMzUsLTI3LjM5KSI+JiN4YTsJCQk8dGl0bGUgaWQ9InRpdGxlNjc4MTgiPmc3MTA5PC90aXRsZT4mI3hhOwkJCTxnIGlkPSJzaGFwZTU3MzMtNTEiIHRyYW5zZm9ybT0idHJhbnNsYXRlKDAsLTAuMDY4ODg1NikiPiYjeGE7CQkJCTx0aXRsZSBpZD0idGl0bGU2NzgyMCI+cGF0aDcxMDU8L3RpdGxlPiYjeGE7CQkJCSYjeGE7CQkJCQk8cGF0aCBpZD0icGF0aDY3ODIyIiBpbmtzY2FwZTpjb25uZWN0b3ItY3VydmF0dXJlPSIwIiBzdHlsZT0iZmlsbDojRTZFNkU2O3N0cm9rZTojNzM3MzczO3N0cm9rZS13aWR0aDoxLjU7c3Ryb2tlLW1pdGVybGltaXQ6MzsiIGQ9IiAgICAgIE0wLDgyLjc3YzAsMy4xNiwyLjU1LDUuNzIsNS43MSw1LjcyYzMuMTYsMCw1LjcyLTIuNTUsNS43Mi01LjcxYzAtMy4xNi0yLjU1LTUuNzItNS43MS01LjcyYzAsMC0wLjAxLDAtMC4wMSwwICAgICAgQzIuNTYsNzcuMDcsMC4wMSw3OS42MiwwLDgyLjc3eiIvPiYjeGE7CQkJPC9nPiYjeGE7CQkJPGcgaWQ9InNoYXBlNTczNC01MyIgdHJhbnNmb3JtPSJ0cmFuc2xhdGUoMS42MDUpIj4mI3hhOwkJCQk8dGl0bGUgaWQ9InRpdGxlNjc4MjUiPmNpcmNsZTcxMDc8L3RpdGxlPiYjeGE7CQkJCTxjaXJjbGUgaWQ9ImVsbGlwc2U2NzgyNyIgc3R5bGU9ImZpbGw6I0ZGRkZGRjsiIGN4PSI0LjA4IiBjeT0iODIuNzMiIHI9IjQuMDgiLz4mI3hhOwkJCTwvZz4mI3hhOwkJPC9nPiYjeGE7CTwvZz4mI3hhOzwvZz4mI3hhOzwvc3ZnPg==;fontSize=18;" vertex="1" parent="1">
          <mxGeometry x="909.9950000000001" y="225" width="47.41" height="65" as="geometry" />
        </mxCell>
        <mxCell id="keo_O-B1GyqZ8fwBsUim-46" value="English tickets" style="text;html=1;strokeColor=none;fillColor=none;align=center;verticalAlign=middle;whiteSpace=wrap;rounded=0;" vertex="1" parent="1">
          <mxGeometry x="785" y="300" width="90" height="20" as="geometry" />
        </mxCell>
        <mxCell id="keo_O-B1GyqZ8fwBsUim-47" value="+" style="text;html=1;strokeColor=none;fillColor=none;align=center;verticalAlign=middle;whiteSpace=wrap;rounded=0;" vertex="1" parent="1">
          <mxGeometry x="870" y="167.5" width="20" height="20" as="geometry" />
        </mxCell>
        <mxCell id="keo_O-B1GyqZ8fwBsUim-51" value="Dutch&amp;nbsp; language model" style="text;html=1;strokeColor=none;fillColor=none;align=center;verticalAlign=middle;whiteSpace=wrap;rounded=0;" vertex="1" parent="1">
          <mxGeometry x="888.7" y="100" width="90" height="20" as="geometry" />
        </mxCell>
        <mxCell id="keo_O-B1GyqZ8fwBsUim-53" value="Transfer learning" style="text;html=1;strokeColor=none;fillColor=none;align=center;verticalAlign=middle;whiteSpace=wrap;rounded=0;" vertex="1" parent="1">
          <mxGeometry x="1016.7" y="100" width="90" height="20" as="geometry" />
        </mxCell>
        <mxCell id="keo_O-B1GyqZ8fwBsUim-54" value="" style="shape=image;verticalLabelPosition=bottom;labelBackgroundColor=#ffffff;verticalAlign=top;aspect=fixed;imageAspect=0;image=data:image/svg+xml,PHN2ZyB4bWxuczpjYz0iaHR0cDovL2NyZWF0aXZlY29tbW9ucy5vcmcvbnMjIiB4bWxuczpkYz0iaHR0cDovL3B1cmwub3JnL2RjL2VsZW1lbnRzLzEuMS8iIHhtbG5zOmlua3NjYXBlPSJodHRwOi8vd3d3Lmlua3NjYXBlLm9yZy9uYW1lc3BhY2VzL2lua3NjYXBlIiB4bWxuczpyZGY9Imh0dHA6Ly93d3cudzMub3JnLzE5OTkvMDIvMjItcmRmLXN5bnRheC1ucyMiIHhtbG5zOnNvZGlwb2RpPSJodHRwOi8vc29kaXBvZGkuc291cmNlZm9yZ2UubmV0L0RURC9zb2RpcG9kaS0wLmR0ZCIgeG1sbnM6c3ZnPSJodHRwOi8vd3d3LnczLm9yZy8yMDAwL3N2ZyIgeG1sbnM9Imh0dHA6Ly93d3cudzMub3JnLzIwMDAvc3ZnIiB4bWxuczp4bGluaz0iaHR0cDovL3d3dy53My5vcmcvMTk5OS94bGluayIgdmVyc2lvbj0iMS4xIiBpZD0ic3ZnOTgyOTIiIGlua3NjYXBlOnZlcnNpb249IjAuOTIuMyAoMjQwNTU0NiwgMjAxOC0wMy0xMSkiIHNvZGlwb2RpOmRvY25hbWU9InN0b3JhZ2VfcmVzb3VyY2VfZ3JvdXAuc3ZnIiB4PSIwcHgiIHk9IjBweCIgdmlld0JveD0iMCAwIDU4Ljc3IDUwLjI0IiBzdHlsZT0iZW5hYmxlLWJhY2tncm91bmQ6bmV3IDAgMCA1OC43NyA1MC4yNDsiIHhtbDpzcGFjZT0icHJlc2VydmUiPiYjeGE7PHNvZGlwb2RpOm5hbWVkdmlldyBib3JkZXJjb2xvcj0iIzY2NjY2NiIgYm9yZGVyb3BhY2l0eT0iMSIgZml0LW1hcmdpbi1ib3R0b209IjAiIGZpdC1tYXJnaW4tbGVmdD0iMCIgZml0LW1hcmdpbi1yaWdodD0iMCIgZml0LW1hcmdpbi10b3A9IjAiIGdyaWR0b2xlcmFuY2U9IjEwIiBndWlkZXRvbGVyYW5jZT0iMTAiIGlkPSJuYW1lZHZpZXc5ODI5NCIgaW5rc2NhcGU6Y3VycmVudC1sYXllcj0ic3ZnOTgyOTIiIGlua3NjYXBlOmN4PSI0My44NTM2MjciIGlua3NjYXBlOmN5PSIyNS40NDM1OCIgaW5rc2NhcGU6cGFnZW9wYWNpdHk9IjAiIGlua3NjYXBlOnBhZ2VzaGFkb3c9IjIiIGlua3NjYXBlOndpbmRvdy1oZWlnaHQ9IjEwMTciIGlua3NjYXBlOndpbmRvdy1tYXhpbWl6ZWQ9IjEiIGlua3NjYXBlOndpbmRvdy13aWR0aD0iMTkyMCIgaW5rc2NhcGU6d2luZG93LXg9Ii04IiBpbmtzY2FwZTp3aW5kb3cteT0iLTgiIGlua3NjYXBlOnpvb209IjkuMTUxNzgxMSIgb2JqZWN0dG9sZXJhbmNlPSIxMCIgcGFnZWNvbG9yPSIjZmZmZmZmIiBzaG93Z3JpZD0iZmFsc2UiPiYjeGE7CTwvc29kaXBvZGk6bmFtZWR2aWV3PiYjeGE7PGcgaWQ9Imc5ODI5MCIgdHJhbnNmb3JtPSJ0cmFuc2xhdGUoMCwwLjAwMzM0NTMxKSI+JiN4YTsJPHRpdGxlIGlkPSJ0aXRsZTk4MTM1Ij5QYWdlLTE8L3RpdGxlPiYjeGE7CTxnIGlkPSJncm91cDUxNjUtMSI+JiN4YTsJCTx0aXRsZSBpZD0idGl0bGU5ODEzNyI+U3RvcmFnZSBSZXNvdXJjZSBHcm91cDwvdGl0bGU+JiN4YTsJCTxnIGlkPSJzaGFwZTUxNjYtMiI+JiN4YTsJCQk8dGl0bGUgaWQ9InRpdGxlOTgxMzkiPlNoZWV0LjUxNjY8L3RpdGxlPiYjeGE7CQkJPHBhdGggaWQ9InBhdGg5ODE0MSIgaW5rc2NhcGU6Y29ubmVjdG9yLWN1cnZhdHVyZT0iMCIgc3R5bGU9ImZpbGw6I0UwRTBFMDsiIGQ9Ik0wLDQ3Ljk4YzAsMS4zNCwwLjk2LDIuMjYsMi4xNCwyLjI2ICAgICBjNTQuNDEsMCw1NC40MSwwLDU0LjQxLDBjMS4zLDAsMi4yMi0wLjkyLDIuMjItMi4yNmMwLTM5LjQsMC0zOS40LDAtMzkuNEMwLDguNTgsMCw4LjU4LDAsOC41OEMwLDQ3Ljk4LDAsNDcuOTgsMCw0Ny45OHoiLz4mI3hhOwkJPC9nPiYjeGE7CQk8ZyBpZD0ic2hhcGU1MTY3LTQiIHRyYW5zZm9ybT0idHJhbnNsYXRlKDAsLTQxLjY2MzQpIj4mI3hhOwkJCTx0aXRsZSBpZD0idGl0bGU5ODE0NCI+U2hlZXQuNTE2NzwvdGl0bGU+JiN4YTsJCQk8cGF0aCBpZD0icGF0aDk4MTQ2IiBpbmtzY2FwZTpjb25uZWN0b3ItY3VydmF0dXJlPSIwIiBzdHlsZT0iZmlsbDojOERDNjNGOyIgZD0iTTU2LjY2LDQxLjY2Yy01NC41MiwwLTU0LjUyLDAtNTQuNTIsMCAgICAgQzAuOTYsNDEuNjYsMCw0Mi43LDAsNDMuODFjMCw2LjQzLDAsNi40MywwLDYuNDNjNTguNzcsMCw1OC43NywwLDU4Ljc3LDBjMC02LjQzLDAtNi40MywwLTYuNDMgICAgIEM1OC43Nyw0Mi43LDU3Ljg1LDQxLjY2LDU2LjY2LDQxLjY2eiIvPiYjeGE7CQk8L2c+JiN4YTsJCTxnIGlkPSJzaGFwZTUxNjgtNiIgdHJhbnNmb3JtPSJ0cmFuc2xhdGUoMTcuMTQwNywtMjIuMDU3MSkiPiYjeGE7CQkJPHRpdGxlIGlkPSJ0aXRsZTk4MTQ5Ij5TaGVldC41MTY4PC90aXRsZT4mI3hhOwkJCTxwYXRoIGlkPSJwYXRoOTgxNTEiIGlua3NjYXBlOmNvbm5lY3Rvci1jdXJ2YXR1cmU9IjAiIHN0eWxlPSJmaWxsOiNGRkZGRkY7IiBkPSJNMCw0My41djYuNzRoMTEuMDJWNDMuNUgweiIvPiYjeGE7CQk8L2c+JiN4YTsJCTxnIGlkPSJzaGFwZTUxNjktOCIgdHJhbnNmb3JtPSJ0cmFuc2xhdGUoMTcuMTQwNywtMzAuNjM0OCkiPiYjeGE7CQkJPHRpdGxlIGlkPSJ0aXRsZTk4MTU0Ij5TaGVldC41MTY5PC90aXRsZT4mI3hhOwkJCTxwYXRoIGlkPSJwYXRoOTgxNTYiIGlua3NjYXBlOmNvbm5lY3Rvci1jdXJ2YXR1cmU9IjAiIHN0eWxlPSJmaWxsOiNGRkZGRkY7IiBkPSJNMCw0My41djYuNzRoMTEuMDJWNDMuNUgweiIvPiYjeGE7CQk8L2c+JiN4YTsJCTxnIGlkPSJzaGFwZTUxNzAtMTAiIHRyYW5zZm9ybT0idHJhbnNsYXRlKDE3LjE0MDcsLTEzLjQ3OTMpIj4mI3hhOwkJCTx0aXRsZSBpZD0idGl0bGU5ODE1OSI+U2hlZXQuNTE3MDwvdGl0bGU+JiN4YTsJCQk8cGF0aCBpZD0icGF0aDk4MTYxIiBpbmtzY2FwZTpjb25uZWN0b3ItY3VydmF0dXJlPSIwIiBzdHlsZT0iZmlsbDojOERDNjNGOyIgZD0iTTAsNDQuMTF2Ni4xM2gxMS4wMnYtNi4xM0gweiIvPiYjeGE7CQk8L2c+JiN4YTsJCTxnIGlkPSJzaGFwZTUxNzEtMTIiIHRyYW5zZm9ybT0idHJhbnNsYXRlKDMwLjYwODQsLTEzLjQ3OTMpIj4mI3hhOwkJCTx0aXRsZSBpZD0idGl0bGU5ODE2NCI+U2hlZXQuNTE3MTwvdGl0bGU+JiN4YTsJCQk8cGF0aCBpZD0icGF0aDk4MTY2IiBpbmtzY2FwZTpjb25uZWN0b3ItY3VydmF0dXJlPSIwIiBzdHlsZT0iZmlsbDojOERDNjNGOyIgZD0iTTAsNDQuMTF2Ni4xM2gxMS4wMnYtNi4xM0gweiIvPiYjeGE7CQk8L2c+JiN4YTsJCTxnIGlkPSJzaGFwZTUxNzItMTQiIHRyYW5zZm9ybT0idHJhbnNsYXRlKDMwLjYwODQsLTIyLjA1NzEpIj4mI3hhOwkJCTx0aXRsZSBpZD0idGl0bGU5ODE2OSI+U2hlZXQuNTE3MjwvdGl0bGU+JiN4YTsJCQk8cGF0aCBpZD0icGF0aDk4MTcxIiBpbmtzY2FwZTpjb25uZWN0b3ItY3VydmF0dXJlPSIwIiBzdHlsZT0iZmlsbDojRkZGRkZGOyIgZD0iTTAsNDMuNXY2Ljc0aDExLjAyVjQzLjVIMHoiLz4mI3hhOwkJPC9nPiYjeGE7CQk8ZyBpZD0ic2hhcGU1MTczLTE2IiB0cmFuc2Zvcm09InRyYW5zbGF0ZSgzMC42MDg0LC0zMC42MzQ4KSI+JiN4YTsJCQk8dGl0bGUgaWQ9InRpdGxlOTgxNzQiPlNoZWV0LjUxNzM8L3RpdGxlPiYjeGE7CQkJPHBhdGggaWQ9InBhdGg5ODE3NiIgaW5rc2NhcGU6Y29ubmVjdG9yLWN1cnZhdHVyZT0iMCIgc3R5bGU9ImZpbGw6I0ZGRkZGRjsiIGQ9Ik0wLDQzLjV2Ni43NGgxMS4wMlY0My41SDB6Ii8+JiN4YTsJCTwvZz4mI3hhOwkJPGcgaWQ9InNoYXBlNTE3NC0xOCIgdHJhbnNmb3JtPSJ0cmFuc2xhdGUoNC4yODUxNywtMzAuNjM0OCkiPiYjeGE7CQkJPHRpdGxlIGlkPSJ0aXRsZTk4MTc5Ij5TaGVldC41MTc0PC90aXRsZT4mI3hhOwkJCTxwYXRoIGlkPSJwYXRoOTgxODEiIGlua3NjYXBlOmNvbm5lY3Rvci1jdXJ2YXR1cmU9IjAiIHN0eWxlPSJmaWxsOiNGRkZGRkY7IiBkPSJNMCw0My41djYuNzRoMTEuMDJWNDMuNUgweiIvPiYjeGE7CQk8L2c+JiN4YTsJCTxnIGlkPSJzaGFwZTUxNzUtMjAiIHRyYW5zZm9ybT0idHJhbnNsYXRlKDQuMjg1MTcsLTIyLjA1NzEpIj4mI3hhOwkJCTx0aXRsZSBpZD0idGl0bGU5ODE4NCI+U2hlZXQuNTE3NTwvdGl0bGU+JiN4YTsJCQk8cGF0aCBpZD0icGF0aDk4MTg2IiBpbmtzY2FwZTpjb25uZWN0b3ItY3VydmF0dXJlPSIwIiBzdHlsZT0iZmlsbDojRkZGRkZGOyIgZD0iTTAsNDMuNXY2Ljc0aDExLjAyVjQzLjVIMHoiLz4mI3hhOwkJPC9nPiYjeGE7CQk8ZyBpZD0ic2hhcGU1MTc2LTIyIiB0cmFuc2Zvcm09InRyYW5zbGF0ZSg0LjI4NTE3LC0xMy40NzkzKSI+JiN4YTsJCQk8dGl0bGUgaWQ9InRpdGxlOTgxODkiPlNoZWV0LjUxNzY8L3RpdGxlPiYjeGE7CQkJPHBhdGggaWQ9InBhdGg5ODE5MSIgaW5rc2NhcGU6Y29ubmVjdG9yLWN1cnZhdHVyZT0iMCIgc3R5bGU9ImZpbGw6IzhEQzYzRjsiIGQ9Ik0wLDQ0LjExdjYuMTNoMTEuMDJ2LTYuMTNIMHoiLz4mI3hhOwkJPC9nPiYjeGE7CQk8ZyBpZD0ic2hhcGU1MTc3LTI0IiB0cmFuc2Zvcm09InRyYW5zbGF0ZSg0LjI4NTE3LC00LjI4ODg4KSI+JiN4YTsJCQk8dGl0bGUgaWQ9InRpdGxlOTgxOTQiPlNoZWV0LjUxNzc8L3RpdGxlPiYjeGE7CQkJPHBhdGggaWQ9InBhdGg5ODE5NiIgaW5rc2NhcGU6Y29ubmVjdG9yLWN1cnZhdHVyZT0iMCIgc3R5bGU9ImZpbGw6IzhEQzYzRjsiIGQ9Ik0wLDQzLjV2Ni43NGgxMS4wMlY0My41SDB6Ii8+JiN4YTsJCTwvZz4mI3hhOwkJPGcgaWQ9InNoYXBlNTE3OC0yNiIgdHJhbnNmb3JtPSJ0cmFuc2xhdGUoMTcuMTQwNywtNC4yODg4OCkiPiYjeGE7CQkJPHRpdGxlIGlkPSJ0aXRsZTk4MTk5Ij5TaGVldC41MTc4PC90aXRsZT4mI3hhOwkJCTxwYXRoIGlkPSJwYXRoOTgyMDEiIGlua3NjYXBlOmNvbm5lY3Rvci1jdXJ2YXR1cmU9IjAiIHN0eWxlPSJmaWxsOiM4REM2M0Y7IiBkPSJNMCw0My41djYuNzRoMTEuMDJWNDMuNUgweiIvPiYjeGE7CQk8L2c+JiN4YTsJCTxnIGlkPSJzaGFwZTUxNzktMjgiIHRyYW5zZm9ybT0idHJhbnNsYXRlKDMwLjYwODQsLTQuMjg4ODgpIj4mI3hhOwkJCTx0aXRsZSBpZD0idGl0bGU5ODIwNCI+U2hlZXQuNTE3OTwvdGl0bGU+JiN4YTsJCQk8cGF0aCBpZD0icGF0aDk4MjA2IiBpbmtzY2FwZTpjb25uZWN0b3ItY3VydmF0dXJlPSIwIiBzdHlsZT0iZmlsbDojOERDNjNGOyIgZD0iTTAsNDMuNXY2Ljc0aDExLjAyVjQzLjVIMHoiLz4mI3hhOwkJPC9nPiYjeGE7CQk8ZyBpZD0ic2hhcGU1MTgwLTMwIiB0cmFuc2Zvcm09InRyYW5zbGF0ZSg0My40NjM5LC0xMy40NzkzKSI+JiN4YTsJCQk8dGl0bGUgaWQ9InRpdGxlOTgyMDkiPlNoZWV0LjUxODA8L3RpdGxlPiYjeGE7CQkJPHBhdGggaWQ9InBhdGg5ODIxMSIgaW5rc2NhcGU6Y29ubmVjdG9yLWN1cnZhdHVyZT0iMCIgc3R5bGU9ImZpbGw6IzhEQzYzRjsiIGQ9Ik0wLDQ0LjExdjYuMTNoMTEuMDJ2LTYuMTNIMHoiLz4mI3hhOwkJPC9nPiYjeGE7CQk8ZyBpZD0ic2hhcGU1MTgxLTMyIiB0cmFuc2Zvcm09InRyYW5zbGF0ZSg0My40NjM5LC0yMi4wNTcxKSI+JiN4YTsJCQk8dGl0bGUgaWQ9InRpdGxlOTgyMTQiPlNoZWV0LjUxODE8L3RpdGxlPiYjeGE7CQkJPHBhdGggaWQ9InBhdGg5ODIxNiIgaW5rc2NhcGU6Y29ubmVjdG9yLWN1cnZhdHVyZT0iMCIgc3R5bGU9ImZpbGw6I0ZGRkZGRjsiIGQ9Ik0wLDQzLjV2Ni43NGgxMS4wMlY0My41SDB6Ii8+JiN4YTsJCTwvZz4mI3hhOwkJPGcgaWQ9InNoYXBlNTE4Mi0zNCIgdHJhbnNmb3JtPSJ0cmFuc2xhdGUoNDMuNDYzOSwtMzAuNjM0OCkiPiYjeGE7CQkJPHRpdGxlIGlkPSJ0aXRsZTk4MjE5Ij5TaGVldC41MTgyPC90aXRsZT4mI3hhOwkJCTxwYXRoIGlkPSJwYXRoOTgyMjEiIGlua3NjYXBlOmNvbm5lY3Rvci1jdXJ2YXR1cmU9IjAiIHN0eWxlPSJmaWxsOiNGRkZGRkY7IiBkPSJNMCw0My41djYuNzRoMTEuMDJWNDMuNUgweiIvPiYjeGE7CQk8L2c+JiN4YTsJCTxnIGlkPSJzaGFwZTUxODMtMzYiIHRyYW5zZm9ybT0idHJhbnNsYXRlKDQzLjQ2MzksLTQuMjg4ODgpIj4mI3hhOwkJCTx0aXRsZSBpZD0idGl0bGU5ODIyNCI+U2hlZXQuNTE4MzwvdGl0bGU+JiN4YTsJCQk8cGF0aCBpZD0icGF0aDk4MjI2IiBpbmtzY2FwZTpjb25uZWN0b3ItY3VydmF0dXJlPSIwIiBzdHlsZT0iZmlsbDojOERDNjNGOyIgZD0iTTAsNDMuNXY2Ljc0aDExLjAyVjQzLjVIMHoiLz4mI3hhOwkJPC9nPiYjeGE7CQk8ZyBpZD0ic2hhcGU1MTg0LTM4IiB0cmFuc2Zvcm09InRyYW5zbGF0ZSgxLjgzNjUpIj4mI3hhOwkJCTx0aXRsZSBpZD0idGl0bGU5ODIyOSI+U2hlZXQuNTE4NDwvdGl0bGU+JiN4YTsJCQk8cGF0aCBpZD0icGF0aDk4MjMxIiBpbmtzY2FwZTpjb25uZWN0b3ItY3VydmF0dXJlPSIwIiBzdHlsZT0iZmlsbDojMUM0MjdGOyIgZD0iTTAuMTUsNTAuMjRjMC4xMiwwLDAuMjMsMCwwLjQ2LDAgICAgIGMyLjQ5LDAsMi40OSwwLDIuNDksMGMwLjExLDAsMC4xMSwwLDAuMTEsMGMtMi44MywwLTIuODMsMC0yLjgzLDBDMC4yNyw1MC4yNCwwLjI3LDUwLjI0LDAuMTUsNTAuMjR6IE00OS41OSwwICAgICBDMC42MSwwLDAuNjEsMCwwLjYxLDBDMC4zOCwwLDAuMjcsMCwwLDAuMTVDMC4xNSwwLjE1LDAuMjcsMCwwLjM4LDBDNDkuNTksMCw0OS41OSwwLDQ5LjU5LDBMNDkuNTksMHoiLz4mI3hhOwkJPC9nPiYjeGE7CQk8ZyBpZD0ic2hhcGU1MTg1LTQwIj4mI3hhOwkJCTx0aXRsZSBpZD0idGl0bGU5ODIzNCI+U2hlZXQuNTE4NTwvdGl0bGU+JiN4YTsJCQk8cGF0aCBpZD0icGF0aDk4MjM2IiBpbmtzY2FwZTpjb25uZWN0b3ItY3VydmF0dXJlPSIwIiBzdHlsZT0iZmlsbDojRTNFM0UzOyIgZD0iTTQuMzYsMzcuMDNjMC02LjY2LDAtNi42NiwwLTYuNjYgICAgIGMxMC43OSwwLDEwLjc5LDAsMTAuNzksMGMwLDYuNjYsMCw2LjY2LDAsNi42NkM0LjM2LDM3LjAzLDQuMzYsMzcuMDMsNC4zNiwzNy4wM3ogTTQuMzYsMjguMjJjMC02LjY2LDAtNi42NiwwLTYuNjYgICAgIGMxMC43OSwwLDEwLjc5LDAsMTAuNzksMGMwLDYuNjYsMCw2LjY2LDAsNi42NkM0LjM2LDI4LjIyLDQuMzYsMjguMjIsNC4zNiwyOC4yMnogTTQuMzYsMTkuNDFjMC02LjY2LDAtNi42NiwwLTYuNjYgICAgIGMxMC43OSwwLDEwLjc5LDAsMTAuNzksMGMwLDYuNjYsMCw2LjY2LDAsNi42NkM0LjM2LDE5LjQxLDQuMzYsMTkuNDEsNC4zNiwxOS40MXogTTE3LjQxLDE5LjQxYzAtNi42NiwwLTYuNjYsMC02LjY2ICAgICBjMTAuNzksMCwxMC43OSwwLDEwLjc5LDBjMCw2LjY2LDAsNi42NiwwLDYuNjZDMTcuNDEsMTkuNDEsMTcuNDEsMTkuNDEsMTcuNDEsMTkuNDF6IE00Mi44NSw4LjU4QzAsOC41OCwwLDguNTgsMCw4LjU4ICAgICBjMCwyLjAzLDAsMi4wMywwLDIuMDNjMCwzLjk0LDAsMy45NCwwLDMuOTRjMCwzMy4zMiwwLDMzLjMyLDAsMzMuMzJjMCwxLjE4LDAuODQsMi4xNCwxLjkxLDIuMzdjMC4xMiwwLDAuMTIsMCwwLjIzLDAgICAgIGMyLjgsMCwyLjgsMCwyLjgsMGM0LjAxLTQuNCw0LjAxLTQuNCw0LjAxLTQuNGMtNC41OSwwLTQuNTksMC00LjU5LDBjMC02LjY3LDAtNi42NywwLTYuNjdjMTAuNTYsMCwxMC41NiwwLDEwLjU2LDAgICAgIGMyLjQ5LTIuNiwyLjQ5LTIuNiwyLjQ5LTIuNmMwLTYuMiwwLTYuMiwwLTYuMmM1LjYyLDAsNS42MiwwLDUuNjIsMGMxLjk5LTIuMTUsMS45OS0yLjE1LDEuOTktMi4xNWMtNy42MSwwLTcuNjEsMC03LjYxLDAgICAgIGMwLTYuNjYsMC02LjY2LDAtNi42NmMxMC43OSwwLDEwLjc5LDAsMTAuNzksMGMwLDMuMSwwLDMuMSwwLDMuMWMyLjIyLTIuMzcsMi4yMi0yLjM3LDIuMjItMi4zN2MwLTAuNzMsMC0wLjczLDAtMC43MyAgICAgYzAuNjEsMCwwLjYxLDAsMC42MSwwYzEuOTktMi4xNSwxLjk5LTIuMTUsMS45OS0yLjE1Yy0yLjYsMC0yLjYsMC0yLjYsMGMwLTYuNjYsMC02LjY2LDAtNi42NmM4LjU3LDAsOC41NywwLDguNTcsMCAgICAgQzQyLjg1LDguNTgsNDIuODUsOC41OCw0Mi44NSw4LjU4eiIvPiYjeGE7CQk8L2c+JiN4YTsJCTxnIGlkPSJzaGFwZTUxODYtNDIiIHRyYW5zZm9ybT0idHJhbnNsYXRlKDAsLTQxLjY2MzQpIj4mI3hhOwkJCTx0aXRsZSBpZD0idGl0bGU5ODIzOSI+U2hlZXQuNTE4NjwvdGl0bGU+JiN4YTsJCQk8cGF0aCBpZD0icGF0aDk4MjQxIiBpbmtzY2FwZTpjb25uZWN0b3ItY3VydmF0dXJlPSIwIiBzdHlsZT0iZmlsbDojOTlDQzUzOyIgZD0iTTUxLjQyLDQxLjY2Yy00OS4yOCwwLTQ5LjI4LDAtNDkuMjgsMCAgICAgYy0wLjExLDAtMC4yMywwLjEyLTAuMzQsMC4xMkMwLjczLDQyLjAxLDAsNDIuOTMsMCw0My45MmMwLDYuMzIsMCw2LjMyLDAsNi4zMmM0My4xNiwwLDQzLjE2LDAsNDMuMTYsMCAgICAgQzUxLjQyLDQxLjY2LDUxLjQyLDQxLjY2LDUxLjQyLDQxLjY2eiIvPiYjeGE7CQk8L2c+JiN4YTsJCTxnIGlkPSJzaGFwZTUxODctNDQiIHRyYW5zZm9ybT0idHJhbnNsYXRlKDE3LjE0MDcsLTIyLjA1NzEpIj4mI3hhOwkJCTx0aXRsZSBpZD0idGl0bGU5ODI0NCI+U2hlZXQuNTE4NzwvdGl0bGU+JiN4YTsJCQk8cGF0aCBpZD0icGF0aDk4MjQ2IiBpbmtzY2FwZTpjb25uZWN0b3ItY3VydmF0dXJlPSIwIiBzdHlsZT0iZmlsbDojRkZGRkZGOyIgZD0iTTExLjAyLDQzLjVIMHY2Ljc0aDcuODFsMy4yMS0zLjZWNDMuNXoiLz4mI3hhOwkJPC9nPiYjeGE7CQk8ZyBpZD0ic2hhcGU1MTg4LTQ2IiB0cmFuc2Zvcm09InRyYW5zbGF0ZSgxNy4xNDA3LC0zMC42MzQ4KSI+JiN4YTsJCQk8dGl0bGUgaWQ9InRpdGxlOTgyNDkiPlNoZWV0LjUxODg8L3RpdGxlPiYjeGE7CQkJPHBhdGggaWQ9InBhdGg5ODI1MSIgaW5rc2NhcGU6Y29ubmVjdG9yLWN1cnZhdHVyZT0iMCIgc3R5bGU9ImZpbGw6I0ZGRkZGRjsiIGQ9Ik0wLDQzLjV2Ni43NGgxMS4wMlY0My41SDB6Ii8+JiN4YTsJCTwvZz4mI3hhOwkJPGcgaWQ9InNoYXBlNTE4OS00OCIgdHJhbnNmb3JtPSJ0cmFuc2xhdGUoMTcuMTQwNywtMTMuNDc5MykiPiYjeGE7CQkJPHRpdGxlIGlkPSJ0aXRsZTk4MjU0Ij5TaGVldC41MTg5PC90aXRsZT4mI3hhOwkJCTxwYXRoIGlkPSJwYXRoOTgyNTYiIGlua3NjYXBlOmNvbm5lY3Rvci1jdXJ2YXR1cmU9IjAiIHN0eWxlPSJmaWxsOiM5OUNDNTM7IiBkPSJNNi4xMiw0NC4xMUgwdjYuMTNMNi4xMiw0NC4xMXoiLz4mI3hhOwkJPC9nPiYjeGE7CQk8ZyBpZD0ic2hhcGU1MTkwLTUwIiB0cmFuc2Zvcm09InRyYW5zbGF0ZSgzMC42MDg0LC0yNy41NzE0KSI+JiN4YTsJCQk8dGl0bGUgaWQ9InRpdGxlOTgyNTkiPlNoZWV0LjUxOTA8L3RpdGxlPiYjeGE7CQkJPHBhdGggaWQ9InBhdGg5ODI2MSIgaW5rc2NhcGU6Y29ubmVjdG9yLWN1cnZhdHVyZT0iMCIgc3R5bGU9ImZpbGw6I0ZGRkZGRjsiIGQ9Ik0wLjYxLDQ5LjAySDB2MS4yMkwwLjYxLDQ5LjAyeiIvPiYjeGE7CQk8L2c+JiN4YTsJCTxnIGlkPSJzaGFwZTUxOTEtNTIiIHRyYW5zZm9ybT0idHJhbnNsYXRlKDMwLjYwODQsLTMwLjYzNDgpIj4mI3hhOwkJCTx0aXRsZSBpZD0idGl0bGU5ODI2NCI+U2hlZXQuNTE5MTwvdGl0bGU+JiN4YTsJCQk8cGF0aCBpZD0icGF0aDk4MjY2IiBpbmtzY2FwZTpjb25uZWN0b3ItY3VydmF0dXJlPSIwIiBzdHlsZT0iZmlsbDojRkZGRkZGOyIgZD0iTTguNTcsNDMuNUgwdjYuNzRoMi42NEw4LjU3LDQzLjV6Ii8+JiN4YTsJCTwvZz4mI3hhOwkJPGcgaWQ9InNoYXBlNTE5Mi01NCIgdHJhbnNmb3JtPSJ0cmFuc2xhdGUoNC4yODUxNywtMzAuNjM0OCkiPiYjeGE7CQkJPHRpdGxlIGlkPSJ0aXRsZTk4MjY5Ij5TaGVldC41MTkyPC90aXRsZT4mI3hhOwkJCTxwYXRoIGlkPSJwYXRoOTgyNzEiIGlua3NjYXBlOmNvbm5lY3Rvci1jdXJ2YXR1cmU9IjAiIHN0eWxlPSJmaWxsOiNGRkZGRkY7IiBkPSJNMCw0My41djYuNzRoMTEuMDJWNDMuNUgweiIvPiYjeGE7CQk8L2c+JiN4YTsJCTxnIGlkPSJzaGFwZTUxOTMtNTYiIHRyYW5zZm9ybT0idHJhbnNsYXRlKDQuMjg1MTcsLTIyLjA1NzEpIj4mI3hhOwkJCTx0aXRsZSBpZD0idGl0bGU5ODI3NCI+U2hlZXQuNTE5MzwvdGl0bGU+JiN4YTsJCQk8cGF0aCBpZD0icGF0aDk4Mjc2IiBpbmtzY2FwZTpjb25uZWN0b3ItY3VydmF0dXJlPSIwIiBzdHlsZT0iZmlsbDojRkZGRkZGOyIgZD0iTTAsNDMuNXY2Ljc0aDExLjAyVjQzLjVIMHoiLz4mI3hhOwkJPC9nPiYjeGE7CQk8ZyBpZD0ic2hhcGU1MTk0LTU4IiB0cmFuc2Zvcm09InRyYW5zbGF0ZSg0LjI4NTE3LC0xMy40NzkzKSI+JiN4YTsJCQk8dGl0bGUgaWQ9InRpdGxlOTgyNzkiPlNoZWV0LjUxOTQ8L3RpdGxlPiYjeGE7CQkJPHBhdGggaWQ9InBhdGg5ODI4MSIgaW5rc2NhcGU6Y29ubmVjdG9yLWN1cnZhdHVyZT0iMCIgc3R5bGU9ImZpbGw6Izk5Q0M1MzsiIGQ9Ik0wLDQ0LjExdjYuMTNoMTEuMDJ2LTYuMTNIMHoiLz4mI3hhOwkJPC9nPiYjeGE7CQk8ZyBpZD0ic2hhcGU1MTk1LTYwIiB0cmFuc2Zvcm09InRyYW5zbGF0ZSg0LjI4NTE3LC00LjI4ODg4KSI+JiN4YTsJCQk8dGl0bGUgaWQ9InRpdGxlOTgyODQiPlNoZWV0LjUxOTU8L3RpdGxlPiYjeGE7CQkJPHBhdGggaWQ9InBhdGg5ODI4NiIgaW5rc2NhcGU6Y29ubmVjdG9yLWN1cnZhdHVyZT0iMCIgc3R5bGU9ImZpbGw6Izk5Q0M1MzsiIGQ9Ik0xMC40MSw0My41SDB2Ni43NGg0LjUxTDEwLjQxLDQzLjV6Ii8+JiN4YTsJCTwvZz4mI3hhOwk8L2c+JiN4YTs8L2c+JiN4YTs8L3N2Zz4=;strokeWidth=1;fontSize=18;align=center;" vertex="1" parent="1">
          <mxGeometry x="1140" y="152.5" width="59" height="50" as="geometry" />
        </mxCell>
        <mxCell id="keo_O-B1GyqZ8fwBsUim-55" value="&lt;p&gt;&lt;span style=&quot;color: rgb(51 , 51 , 51) ; background-color: rgb(255 , 255 , 255)&quot;&gt;&lt;font style=&quot;font-size: 12px&quot;&gt;Train set&lt;/font&gt;&lt;/span&gt;&lt;/p&gt;" style="text;html=1;strokeColor=none;fillColor=none;align=center;verticalAlign=middle;whiteSpace=wrap;rounded=0;" vertex="1" parent="1">
          <mxGeometry x="1119.5" y="100" width="100" height="49" as="geometry" />
        </mxCell>
        <mxCell id="keo_O-B1GyqZ8fwBsUim-57" value="" style="shape=image;verticalLabelPosition=bottom;labelBackgroundColor=#ffffff;verticalAlign=top;aspect=fixed;imageAspect=0;image=data:image/svg+xml,PHN2ZyB4bWxuczpjYz0iaHR0cDovL2NyZWF0aXZlY29tbW9ucy5vcmcvbnMjIiB4bWxuczpkYz0iaHR0cDovL3B1cmwub3JnL2RjL2VsZW1lbnRzLzEuMS8iIHhtbG5zOmlua3NjYXBlPSJodHRwOi8vd3d3Lmlua3NjYXBlLm9yZy9uYW1lc3BhY2VzL2lua3NjYXBlIiB4bWxuczpyZGY9Imh0dHA6Ly93d3cudzMub3JnLzE5OTkvMDIvMjItcmRmLXN5bnRheC1ucyMiIHhtbG5zOnNvZGlwb2RpPSJodHRwOi8vc29kaXBvZGkuc291cmNlZm9yZ2UubmV0L0RURC9zb2RpcG9kaS0wLmR0ZCIgeG1sbnM6c3ZnPSJodHRwOi8vd3d3LnczLm9yZy8yMDAwL3N2ZyIgeG1sbnM9Imh0dHA6Ly93d3cudzMub3JnLzIwMDAvc3ZnIiB4bWxuczp4bGluaz0iaHR0cDovL3d3dy53My5vcmcvMTk5OS94bGluayIgdmVyc2lvbj0iMS4xIiBpZD0ic3ZnOTgyOTIiIGlua3NjYXBlOnZlcnNpb249IjAuOTIuMyAoMjQwNTU0NiwgMjAxOC0wMy0xMSkiIHNvZGlwb2RpOmRvY25hbWU9InN0b3JhZ2VfcmVzb3VyY2VfZ3JvdXAuc3ZnIiB4PSIwcHgiIHk9IjBweCIgdmlld0JveD0iMCAwIDU4Ljc3IDUwLjI0IiBzdHlsZT0iZW5hYmxlLWJhY2tncm91bmQ6bmV3IDAgMCA1OC43NyA1MC4yNDsiIHhtbDpzcGFjZT0icHJlc2VydmUiPiYjeGE7PHNvZGlwb2RpOm5hbWVkdmlldyBib3JkZXJjb2xvcj0iIzY2NjY2NiIgYm9yZGVyb3BhY2l0eT0iMSIgZml0LW1hcmdpbi1ib3R0b209IjAiIGZpdC1tYXJnaW4tbGVmdD0iMCIgZml0LW1hcmdpbi1yaWdodD0iMCIgZml0LW1hcmdpbi10b3A9IjAiIGdyaWR0b2xlcmFuY2U9IjEwIiBndWlkZXRvbGVyYW5jZT0iMTAiIGlkPSJuYW1lZHZpZXc5ODI5NCIgaW5rc2NhcGU6Y3VycmVudC1sYXllcj0ic3ZnOTgyOTIiIGlua3NjYXBlOmN4PSI0My44NTM2MjciIGlua3NjYXBlOmN5PSIyNS40NDM1OCIgaW5rc2NhcGU6cGFnZW9wYWNpdHk9IjAiIGlua3NjYXBlOnBhZ2VzaGFkb3c9IjIiIGlua3NjYXBlOndpbmRvdy1oZWlnaHQ9IjEwMTciIGlua3NjYXBlOndpbmRvdy1tYXhpbWl6ZWQ9IjEiIGlua3NjYXBlOndpbmRvdy13aWR0aD0iMTkyMCIgaW5rc2NhcGU6d2luZG93LXg9Ii04IiBpbmtzY2FwZTp3aW5kb3cteT0iLTgiIGlua3NjYXBlOnpvb209IjkuMTUxNzgxMSIgb2JqZWN0dG9sZXJhbmNlPSIxMCIgcGFnZWNvbG9yPSIjZmZmZmZmIiBzaG93Z3JpZD0iZmFsc2UiPiYjeGE7CTwvc29kaXBvZGk6bmFtZWR2aWV3PiYjeGE7PGcgaWQ9Imc5ODI5MCIgdHJhbnNmb3JtPSJ0cmFuc2xhdGUoMCwwLjAwMzM0NTMxKSI+JiN4YTsJPHRpdGxlIGlkPSJ0aXRsZTk4MTM1Ij5QYWdlLTE8L3RpdGxlPiYjeGE7CTxnIGlkPSJncm91cDUxNjUtMSI+JiN4YTsJCTx0aXRsZSBpZD0idGl0bGU5ODEzNyI+U3RvcmFnZSBSZXNvdXJjZSBHcm91cDwvdGl0bGU+JiN4YTsJCTxnIGlkPSJzaGFwZTUxNjYtMiI+JiN4YTsJCQk8dGl0bGUgaWQ9InRpdGxlOTgxMzkiPlNoZWV0LjUxNjY8L3RpdGxlPiYjeGE7CQkJPHBhdGggaWQ9InBhdGg5ODE0MSIgaW5rc2NhcGU6Y29ubmVjdG9yLWN1cnZhdHVyZT0iMCIgc3R5bGU9ImZpbGw6I0UwRTBFMDsiIGQ9Ik0wLDQ3Ljk4YzAsMS4zNCwwLjk2LDIuMjYsMi4xNCwyLjI2ICAgICBjNTQuNDEsMCw1NC40MSwwLDU0LjQxLDBjMS4zLDAsMi4yMi0wLjkyLDIuMjItMi4yNmMwLTM5LjQsMC0zOS40LDAtMzkuNEMwLDguNTgsMCw4LjU4LDAsOC41OEMwLDQ3Ljk4LDAsNDcuOTgsMCw0Ny45OHoiLz4mI3hhOwkJPC9nPiYjeGE7CQk8ZyBpZD0ic2hhcGU1MTY3LTQiIHRyYW5zZm9ybT0idHJhbnNsYXRlKDAsLTQxLjY2MzQpIj4mI3hhOwkJCTx0aXRsZSBpZD0idGl0bGU5ODE0NCI+U2hlZXQuNTE2NzwvdGl0bGU+JiN4YTsJCQk8cGF0aCBpZD0icGF0aDk4MTQ2IiBpbmtzY2FwZTpjb25uZWN0b3ItY3VydmF0dXJlPSIwIiBzdHlsZT0iZmlsbDojOERDNjNGOyIgZD0iTTU2LjY2LDQxLjY2Yy01NC41MiwwLTU0LjUyLDAtNTQuNTIsMCAgICAgQzAuOTYsNDEuNjYsMCw0Mi43LDAsNDMuODFjMCw2LjQzLDAsNi40MywwLDYuNDNjNTguNzcsMCw1OC43NywwLDU4Ljc3LDBjMC02LjQzLDAtNi40MywwLTYuNDMgICAgIEM1OC43Nyw0Mi43LDU3Ljg1LDQxLjY2LDU2LjY2LDQxLjY2eiIvPiYjeGE7CQk8L2c+JiN4YTsJCTxnIGlkPSJzaGFwZTUxNjgtNiIgdHJhbnNmb3JtPSJ0cmFuc2xhdGUoMTcuMTQwNywtMjIuMDU3MSkiPiYjeGE7CQkJPHRpdGxlIGlkPSJ0aXRsZTk4MTQ5Ij5TaGVldC41MTY4PC90aXRsZT4mI3hhOwkJCTxwYXRoIGlkPSJwYXRoOTgxNTEiIGlua3NjYXBlOmNvbm5lY3Rvci1jdXJ2YXR1cmU9IjAiIHN0eWxlPSJmaWxsOiNGRkZGRkY7IiBkPSJNMCw0My41djYuNzRoMTEuMDJWNDMuNUgweiIvPiYjeGE7CQk8L2c+JiN4YTsJCTxnIGlkPSJzaGFwZTUxNjktOCIgdHJhbnNmb3JtPSJ0cmFuc2xhdGUoMTcuMTQwNywtMzAuNjM0OCkiPiYjeGE7CQkJPHRpdGxlIGlkPSJ0aXRsZTk4MTU0Ij5TaGVldC41MTY5PC90aXRsZT4mI3hhOwkJCTxwYXRoIGlkPSJwYXRoOTgxNTYiIGlua3NjYXBlOmNvbm5lY3Rvci1jdXJ2YXR1cmU9IjAiIHN0eWxlPSJmaWxsOiNGRkZGRkY7IiBkPSJNMCw0My41djYuNzRoMTEuMDJWNDMuNUgweiIvPiYjeGE7CQk8L2c+JiN4YTsJCTxnIGlkPSJzaGFwZTUxNzAtMTAiIHRyYW5zZm9ybT0idHJhbnNsYXRlKDE3LjE0MDcsLTEzLjQ3OTMpIj4mI3hhOwkJCTx0aXRsZSBpZD0idGl0bGU5ODE1OSI+U2hlZXQuNTE3MDwvdGl0bGU+JiN4YTsJCQk8cGF0aCBpZD0icGF0aDk4MTYxIiBpbmtzY2FwZTpjb25uZWN0b3ItY3VydmF0dXJlPSIwIiBzdHlsZT0iZmlsbDojOERDNjNGOyIgZD0iTTAsNDQuMTF2Ni4xM2gxMS4wMnYtNi4xM0gweiIvPiYjeGE7CQk8L2c+JiN4YTsJCTxnIGlkPSJzaGFwZTUxNzEtMTIiIHRyYW5zZm9ybT0idHJhbnNsYXRlKDMwLjYwODQsLTEzLjQ3OTMpIj4mI3hhOwkJCTx0aXRsZSBpZD0idGl0bGU5ODE2NCI+U2hlZXQuNTE3MTwvdGl0bGU+JiN4YTsJCQk8cGF0aCBpZD0icGF0aDk4MTY2IiBpbmtzY2FwZTpjb25uZWN0b3ItY3VydmF0dXJlPSIwIiBzdHlsZT0iZmlsbDojOERDNjNGOyIgZD0iTTAsNDQuMTF2Ni4xM2gxMS4wMnYtNi4xM0gweiIvPiYjeGE7CQk8L2c+JiN4YTsJCTxnIGlkPSJzaGFwZTUxNzItMTQiIHRyYW5zZm9ybT0idHJhbnNsYXRlKDMwLjYwODQsLTIyLjA1NzEpIj4mI3hhOwkJCTx0aXRsZSBpZD0idGl0bGU5ODE2OSI+U2hlZXQuNTE3MjwvdGl0bGU+JiN4YTsJCQk8cGF0aCBpZD0icGF0aDk4MTcxIiBpbmtzY2FwZTpjb25uZWN0b3ItY3VydmF0dXJlPSIwIiBzdHlsZT0iZmlsbDojRkZGRkZGOyIgZD0iTTAsNDMuNXY2Ljc0aDExLjAyVjQzLjVIMHoiLz4mI3hhOwkJPC9nPiYjeGE7CQk8ZyBpZD0ic2hhcGU1MTczLTE2IiB0cmFuc2Zvcm09InRyYW5zbGF0ZSgzMC42MDg0LC0zMC42MzQ4KSI+JiN4YTsJCQk8dGl0bGUgaWQ9InRpdGxlOTgxNzQiPlNoZWV0LjUxNzM8L3RpdGxlPiYjeGE7CQkJPHBhdGggaWQ9InBhdGg5ODE3NiIgaW5rc2NhcGU6Y29ubmVjdG9yLWN1cnZhdHVyZT0iMCIgc3R5bGU9ImZpbGw6I0ZGRkZGRjsiIGQ9Ik0wLDQzLjV2Ni43NGgxMS4wMlY0My41SDB6Ii8+JiN4YTsJCTwvZz4mI3hhOwkJPGcgaWQ9InNoYXBlNTE3NC0xOCIgdHJhbnNmb3JtPSJ0cmFuc2xhdGUoNC4yODUxNywtMzAuNjM0OCkiPiYjeGE7CQkJPHRpdGxlIGlkPSJ0aXRsZTk4MTc5Ij5TaGVldC41MTc0PC90aXRsZT4mI3hhOwkJCTxwYXRoIGlkPSJwYXRoOTgxODEiIGlua3NjYXBlOmNvbm5lY3Rvci1jdXJ2YXR1cmU9IjAiIHN0eWxlPSJmaWxsOiNGRkZGRkY7IiBkPSJNMCw0My41djYuNzRoMTEuMDJWNDMuNUgweiIvPiYjeGE7CQk8L2c+JiN4YTsJCTxnIGlkPSJzaGFwZTUxNzUtMjAiIHRyYW5zZm9ybT0idHJhbnNsYXRlKDQuMjg1MTcsLTIyLjA1NzEpIj4mI3hhOwkJCTx0aXRsZSBpZD0idGl0bGU5ODE4NCI+U2hlZXQuNTE3NTwvdGl0bGU+JiN4YTsJCQk8cGF0aCBpZD0icGF0aDk4MTg2IiBpbmtzY2FwZTpjb25uZWN0b3ItY3VydmF0dXJlPSIwIiBzdHlsZT0iZmlsbDojRkZGRkZGOyIgZD0iTTAsNDMuNXY2Ljc0aDExLjAyVjQzLjVIMHoiLz4mI3hhOwkJPC9nPiYjeGE7CQk8ZyBpZD0ic2hhcGU1MTc2LTIyIiB0cmFuc2Zvcm09InRyYW5zbGF0ZSg0LjI4NTE3LC0xMy40NzkzKSI+JiN4YTsJCQk8dGl0bGUgaWQ9InRpdGxlOTgxODkiPlNoZWV0LjUxNzY8L3RpdGxlPiYjeGE7CQkJPHBhdGggaWQ9InBhdGg5ODE5MSIgaW5rc2NhcGU6Y29ubmVjdG9yLWN1cnZhdHVyZT0iMCIgc3R5bGU9ImZpbGw6IzhEQzYzRjsiIGQ9Ik0wLDQ0LjExdjYuMTNoMTEuMDJ2LTYuMTNIMHoiLz4mI3hhOwkJPC9nPiYjeGE7CQk8ZyBpZD0ic2hhcGU1MTc3LTI0IiB0cmFuc2Zvcm09InRyYW5zbGF0ZSg0LjI4NTE3LC00LjI4ODg4KSI+JiN4YTsJCQk8dGl0bGUgaWQ9InRpdGxlOTgxOTQiPlNoZWV0LjUxNzc8L3RpdGxlPiYjeGE7CQkJPHBhdGggaWQ9InBhdGg5ODE5NiIgaW5rc2NhcGU6Y29ubmVjdG9yLWN1cnZhdHVyZT0iMCIgc3R5bGU9ImZpbGw6IzhEQzYzRjsiIGQ9Ik0wLDQzLjV2Ni43NGgxMS4wMlY0My41SDB6Ii8+JiN4YTsJCTwvZz4mI3hhOwkJPGcgaWQ9InNoYXBlNTE3OC0yNiIgdHJhbnNmb3JtPSJ0cmFuc2xhdGUoMTcuMTQwNywtNC4yODg4OCkiPiYjeGE7CQkJPHRpdGxlIGlkPSJ0aXRsZTk4MTk5Ij5TaGVldC41MTc4PC90aXRsZT4mI3hhOwkJCTxwYXRoIGlkPSJwYXRoOTgyMDEiIGlua3NjYXBlOmNvbm5lY3Rvci1jdXJ2YXR1cmU9IjAiIHN0eWxlPSJmaWxsOiM4REM2M0Y7IiBkPSJNMCw0My41djYuNzRoMTEuMDJWNDMuNUgweiIvPiYjeGE7CQk8L2c+JiN4YTsJCTxnIGlkPSJzaGFwZTUxNzktMjgiIHRyYW5zZm9ybT0idHJhbnNsYXRlKDMwLjYwODQsLTQuMjg4ODgpIj4mI3hhOwkJCTx0aXRsZSBpZD0idGl0bGU5ODIwNCI+U2hlZXQuNTE3OTwvdGl0bGU+JiN4YTsJCQk8cGF0aCBpZD0icGF0aDk4MjA2IiBpbmtzY2FwZTpjb25uZWN0b3ItY3VydmF0dXJlPSIwIiBzdHlsZT0iZmlsbDojOERDNjNGOyIgZD0iTTAsNDMuNXY2Ljc0aDExLjAyVjQzLjVIMHoiLz4mI3hhOwkJPC9nPiYjeGE7CQk8ZyBpZD0ic2hhcGU1MTgwLTMwIiB0cmFuc2Zvcm09InRyYW5zbGF0ZSg0My40NjM5LC0xMy40NzkzKSI+JiN4YTsJCQk8dGl0bGUgaWQ9InRpdGxlOTgyMDkiPlNoZWV0LjUxODA8L3RpdGxlPiYjeGE7CQkJPHBhdGggaWQ9InBhdGg5ODIxMSIgaW5rc2NhcGU6Y29ubmVjdG9yLWN1cnZhdHVyZT0iMCIgc3R5bGU9ImZpbGw6IzhEQzYzRjsiIGQ9Ik0wLDQ0LjExdjYuMTNoMTEuMDJ2LTYuMTNIMHoiLz4mI3hhOwkJPC9nPiYjeGE7CQk8ZyBpZD0ic2hhcGU1MTgxLTMyIiB0cmFuc2Zvcm09InRyYW5zbGF0ZSg0My40NjM5LC0yMi4wNTcxKSI+JiN4YTsJCQk8dGl0bGUgaWQ9InRpdGxlOTgyMTQiPlNoZWV0LjUxODE8L3RpdGxlPiYjeGE7CQkJPHBhdGggaWQ9InBhdGg5ODIxNiIgaW5rc2NhcGU6Y29ubmVjdG9yLWN1cnZhdHVyZT0iMCIgc3R5bGU9ImZpbGw6I0ZGRkZGRjsiIGQ9Ik0wLDQzLjV2Ni43NGgxMS4wMlY0My41SDB6Ii8+JiN4YTsJCTwvZz4mI3hhOwkJPGcgaWQ9InNoYXBlNTE4Mi0zNCIgdHJhbnNmb3JtPSJ0cmFuc2xhdGUoNDMuNDYzOSwtMzAuNjM0OCkiPiYjeGE7CQkJPHRpdGxlIGlkPSJ0aXRsZTk4MjE5Ij5TaGVldC41MTgyPC90aXRsZT4mI3hhOwkJCTxwYXRoIGlkPSJwYXRoOTgyMjEiIGlua3NjYXBlOmNvbm5lY3Rvci1jdXJ2YXR1cmU9IjAiIHN0eWxlPSJmaWxsOiNGRkZGRkY7IiBkPSJNMCw0My41djYuNzRoMTEuMDJWNDMuNUgweiIvPiYjeGE7CQk8L2c+JiN4YTsJCTxnIGlkPSJzaGFwZTUxODMtMzYiIHRyYW5zZm9ybT0idHJhbnNsYXRlKDQzLjQ2MzksLTQuMjg4ODgpIj4mI3hhOwkJCTx0aXRsZSBpZD0idGl0bGU5ODIyNCI+U2hlZXQuNTE4MzwvdGl0bGU+JiN4YTsJCQk8cGF0aCBpZD0icGF0aDk4MjI2IiBpbmtzY2FwZTpjb25uZWN0b3ItY3VydmF0dXJlPSIwIiBzdHlsZT0iZmlsbDojOERDNjNGOyIgZD0iTTAsNDMuNXY2Ljc0aDExLjAyVjQzLjVIMHoiLz4mI3hhOwkJPC9nPiYjeGE7CQk8ZyBpZD0ic2hhcGU1MTg0LTM4IiB0cmFuc2Zvcm09InRyYW5zbGF0ZSgxLjgzNjUpIj4mI3hhOwkJCTx0aXRsZSBpZD0idGl0bGU5ODIyOSI+U2hlZXQuNTE4NDwvdGl0bGU+JiN4YTsJCQk8cGF0aCBpZD0icGF0aDk4MjMxIiBpbmtzY2FwZTpjb25uZWN0b3ItY3VydmF0dXJlPSIwIiBzdHlsZT0iZmlsbDojMUM0MjdGOyIgZD0iTTAuMTUsNTAuMjRjMC4xMiwwLDAuMjMsMCwwLjQ2LDAgICAgIGMyLjQ5LDAsMi40OSwwLDIuNDksMGMwLjExLDAsMC4xMSwwLDAuMTEsMGMtMi44MywwLTIuODMsMC0yLjgzLDBDMC4yNyw1MC4yNCwwLjI3LDUwLjI0LDAuMTUsNTAuMjR6IE00OS41OSwwICAgICBDMC42MSwwLDAuNjEsMCwwLjYxLDBDMC4zOCwwLDAuMjcsMCwwLDAuMTVDMC4xNSwwLjE1LDAuMjcsMCwwLjM4LDBDNDkuNTksMCw0OS41OSwwLDQ5LjU5LDBMNDkuNTksMHoiLz4mI3hhOwkJPC9nPiYjeGE7CQk8ZyBpZD0ic2hhcGU1MTg1LTQwIj4mI3hhOwkJCTx0aXRsZSBpZD0idGl0bGU5ODIzNCI+U2hlZXQuNTE4NTwvdGl0bGU+JiN4YTsJCQk8cGF0aCBpZD0icGF0aDk4MjM2IiBpbmtzY2FwZTpjb25uZWN0b3ItY3VydmF0dXJlPSIwIiBzdHlsZT0iZmlsbDojRTNFM0UzOyIgZD0iTTQuMzYsMzcuMDNjMC02LjY2LDAtNi42NiwwLTYuNjYgICAgIGMxMC43OSwwLDEwLjc5LDAsMTAuNzksMGMwLDYuNjYsMCw2LjY2LDAsNi42NkM0LjM2LDM3LjAzLDQuMzYsMzcuMDMsNC4zNiwzNy4wM3ogTTQuMzYsMjguMjJjMC02LjY2LDAtNi42NiwwLTYuNjYgICAgIGMxMC43OSwwLDEwLjc5LDAsMTAuNzksMGMwLDYuNjYsMCw2LjY2LDAsNi42NkM0LjM2LDI4LjIyLDQuMzYsMjguMjIsNC4zNiwyOC4yMnogTTQuMzYsMTkuNDFjMC02LjY2LDAtNi42NiwwLTYuNjYgICAgIGMxMC43OSwwLDEwLjc5LDAsMTAuNzksMGMwLDYuNjYsMCw2LjY2LDAsNi42NkM0LjM2LDE5LjQxLDQuMzYsMTkuNDEsNC4zNiwxOS40MXogTTE3LjQxLDE5LjQxYzAtNi42NiwwLTYuNjYsMC02LjY2ICAgICBjMTAuNzksMCwxMC43OSwwLDEwLjc5LDBjMCw2LjY2LDAsNi42NiwwLDYuNjZDMTcuNDEsMTkuNDEsMTcuNDEsMTkuNDEsMTcuNDEsMTkuNDF6IE00Mi44NSw4LjU4QzAsOC41OCwwLDguNTgsMCw4LjU4ICAgICBjMCwyLjAzLDAsMi4wMywwLDIuMDNjMCwzLjk0LDAsMy45NCwwLDMuOTRjMCwzMy4zMiwwLDMzLjMyLDAsMzMuMzJjMCwxLjE4LDAuODQsMi4xNCwxLjkxLDIuMzdjMC4xMiwwLDAuMTIsMCwwLjIzLDAgICAgIGMyLjgsMCwyLjgsMCwyLjgsMGM0LjAxLTQuNCw0LjAxLTQuNCw0LjAxLTQuNGMtNC41OSwwLTQuNTksMC00LjU5LDBjMC02LjY3LDAtNi42NywwLTYuNjdjMTAuNTYsMCwxMC41NiwwLDEwLjU2LDAgICAgIGMyLjQ5LTIuNiwyLjQ5LTIuNiwyLjQ5LTIuNmMwLTYuMiwwLTYuMiwwLTYuMmM1LjYyLDAsNS42MiwwLDUuNjIsMGMxLjk5LTIuMTUsMS45OS0yLjE1LDEuOTktMi4xNWMtNy42MSwwLTcuNjEsMC03LjYxLDAgICAgIGMwLTYuNjYsMC02LjY2LDAtNi42NmMxMC43OSwwLDEwLjc5LDAsMTAuNzksMGMwLDMuMSwwLDMuMSwwLDMuMWMyLjIyLTIuMzcsMi4yMi0yLjM3LDIuMjItMi4zN2MwLTAuNzMsMC0wLjczLDAtMC43MyAgICAgYzAuNjEsMCwwLjYxLDAsMC42MSwwYzEuOTktMi4xNSwxLjk5LTIuMTUsMS45OS0yLjE1Yy0yLjYsMC0yLjYsMC0yLjYsMGMwLTYuNjYsMC02LjY2LDAtNi42NmM4LjU3LDAsOC41NywwLDguNTcsMCAgICAgQzQyLjg1LDguNTgsNDIuODUsOC41OCw0Mi44NSw4LjU4eiIvPiYjeGE7CQk8L2c+JiN4YTsJCTxnIGlkPSJzaGFwZTUxODYtNDIiIHRyYW5zZm9ybT0idHJhbnNsYXRlKDAsLTQxLjY2MzQpIj4mI3hhOwkJCTx0aXRsZSBpZD0idGl0bGU5ODIzOSI+U2hlZXQuNTE4NjwvdGl0bGU+JiN4YTsJCQk8cGF0aCBpZD0icGF0aDk4MjQxIiBpbmtzY2FwZTpjb25uZWN0b3ItY3VydmF0dXJlPSIwIiBzdHlsZT0iZmlsbDojOTlDQzUzOyIgZD0iTTUxLjQyLDQxLjY2Yy00OS4yOCwwLTQ5LjI4LDAtNDkuMjgsMCAgICAgYy0wLjExLDAtMC4yMywwLjEyLTAuMzQsMC4xMkMwLjczLDQyLjAxLDAsNDIuOTMsMCw0My45MmMwLDYuMzIsMCw2LjMyLDAsNi4zMmM0My4xNiwwLDQzLjE2LDAsNDMuMTYsMCAgICAgQzUxLjQyLDQxLjY2LDUxLjQyLDQxLjY2LDUxLjQyLDQxLjY2eiIvPiYjeGE7CQk8L2c+JiN4YTsJCTxnIGlkPSJzaGFwZTUxODctNDQiIHRyYW5zZm9ybT0idHJhbnNsYXRlKDE3LjE0MDcsLTIyLjA1NzEpIj4mI3hhOwkJCTx0aXRsZSBpZD0idGl0bGU5ODI0NCI+U2hlZXQuNTE4NzwvdGl0bGU+JiN4YTsJCQk8cGF0aCBpZD0icGF0aDk4MjQ2IiBpbmtzY2FwZTpjb25uZWN0b3ItY3VydmF0dXJlPSIwIiBzdHlsZT0iZmlsbDojRkZGRkZGOyIgZD0iTTExLjAyLDQzLjVIMHY2Ljc0aDcuODFsMy4yMS0zLjZWNDMuNXoiLz4mI3hhOwkJPC9nPiYjeGE7CQk8ZyBpZD0ic2hhcGU1MTg4LTQ2IiB0cmFuc2Zvcm09InRyYW5zbGF0ZSgxNy4xNDA3LC0zMC42MzQ4KSI+JiN4YTsJCQk8dGl0bGUgaWQ9InRpdGxlOTgyNDkiPlNoZWV0LjUxODg8L3RpdGxlPiYjeGE7CQkJPHBhdGggaWQ9InBhdGg5ODI1MSIgaW5rc2NhcGU6Y29ubmVjdG9yLWN1cnZhdHVyZT0iMCIgc3R5bGU9ImZpbGw6I0ZGRkZGRjsiIGQ9Ik0wLDQzLjV2Ni43NGgxMS4wMlY0My41SDB6Ii8+JiN4YTsJCTwvZz4mI3hhOwkJPGcgaWQ9InNoYXBlNTE4OS00OCIgdHJhbnNmb3JtPSJ0cmFuc2xhdGUoMTcuMTQwNywtMTMuNDc5MykiPiYjeGE7CQkJPHRpdGxlIGlkPSJ0aXRsZTk4MjU0Ij5TaGVldC41MTg5PC90aXRsZT4mI3hhOwkJCTxwYXRoIGlkPSJwYXRoOTgyNTYiIGlua3NjYXBlOmNvbm5lY3Rvci1jdXJ2YXR1cmU9IjAiIHN0eWxlPSJmaWxsOiM5OUNDNTM7IiBkPSJNNi4xMiw0NC4xMUgwdjYuMTNMNi4xMiw0NC4xMXoiLz4mI3hhOwkJPC9nPiYjeGE7CQk8ZyBpZD0ic2hhcGU1MTkwLTUwIiB0cmFuc2Zvcm09InRyYW5zbGF0ZSgzMC42MDg0LC0yNy41NzE0KSI+JiN4YTsJCQk8dGl0bGUgaWQ9InRpdGxlOTgyNTkiPlNoZWV0LjUxOTA8L3RpdGxlPiYjeGE7CQkJPHBhdGggaWQ9InBhdGg5ODI2MSIgaW5rc2NhcGU6Y29ubmVjdG9yLWN1cnZhdHVyZT0iMCIgc3R5bGU9ImZpbGw6I0ZGRkZGRjsiIGQ9Ik0wLjYxLDQ5LjAySDB2MS4yMkwwLjYxLDQ5LjAyeiIvPiYjeGE7CQk8L2c+JiN4YTsJCTxnIGlkPSJzaGFwZTUxOTEtNTIiIHRyYW5zZm9ybT0idHJhbnNsYXRlKDMwLjYwODQsLTMwLjYzNDgpIj4mI3hhOwkJCTx0aXRsZSBpZD0idGl0bGU5ODI2NCI+U2hlZXQuNTE5MTwvdGl0bGU+JiN4YTsJCQk8cGF0aCBpZD0icGF0aDk4MjY2IiBpbmtzY2FwZTpjb25uZWN0b3ItY3VydmF0dXJlPSIwIiBzdHlsZT0iZmlsbDojRkZGRkZGOyIgZD0iTTguNTcsNDMuNUgwdjYuNzRoMi42NEw4LjU3LDQzLjV6Ii8+JiN4YTsJCTwvZz4mI3hhOwkJPGcgaWQ9InNoYXBlNTE5Mi01NCIgdHJhbnNmb3JtPSJ0cmFuc2xhdGUoNC4yODUxNywtMzAuNjM0OCkiPiYjeGE7CQkJPHRpdGxlIGlkPSJ0aXRsZTk4MjY5Ij5TaGVldC41MTkyPC90aXRsZT4mI3hhOwkJCTxwYXRoIGlkPSJwYXRoOTgyNzEiIGlua3NjYXBlOmNvbm5lY3Rvci1jdXJ2YXR1cmU9IjAiIHN0eWxlPSJmaWxsOiNGRkZGRkY7IiBkPSJNMCw0My41djYuNzRoMTEuMDJWNDMuNUgweiIvPiYjeGE7CQk8L2c+JiN4YTsJCTxnIGlkPSJzaGFwZTUxOTMtNTYiIHRyYW5zZm9ybT0idHJhbnNsYXRlKDQuMjg1MTcsLTIyLjA1NzEpIj4mI3hhOwkJCTx0aXRsZSBpZD0idGl0bGU5ODI3NCI+U2hlZXQuNTE5MzwvdGl0bGU+JiN4YTsJCQk8cGF0aCBpZD0icGF0aDk4Mjc2IiBpbmtzY2FwZTpjb25uZWN0b3ItY3VydmF0dXJlPSIwIiBzdHlsZT0iZmlsbDojRkZGRkZGOyIgZD0iTTAsNDMuNXY2Ljc0aDExLjAyVjQzLjVIMHoiLz4mI3hhOwkJPC9nPiYjeGE7CQk8ZyBpZD0ic2hhcGU1MTk0LTU4IiB0cmFuc2Zvcm09InRyYW5zbGF0ZSg0LjI4NTE3LC0xMy40NzkzKSI+JiN4YTsJCQk8dGl0bGUgaWQ9InRpdGxlOTgyNzkiPlNoZWV0LjUxOTQ8L3RpdGxlPiYjeGE7CQkJPHBhdGggaWQ9InBhdGg5ODI4MSIgaW5rc2NhcGU6Y29ubmVjdG9yLWN1cnZhdHVyZT0iMCIgc3R5bGU9ImZpbGw6Izk5Q0M1MzsiIGQ9Ik0wLDQ0LjExdjYuMTNoMTEuMDJ2LTYuMTNIMHoiLz4mI3hhOwkJPC9nPiYjeGE7CQk8ZyBpZD0ic2hhcGU1MTk1LTYwIiB0cmFuc2Zvcm09InRyYW5zbGF0ZSg0LjI4NTE3LC00LjI4ODg4KSI+JiN4YTsJCQk8dGl0bGUgaWQ9InRpdGxlOTgyODQiPlNoZWV0LjUxOTU8L3RpdGxlPiYjeGE7CQkJPHBhdGggaWQ9InBhdGg5ODI4NiIgaW5rc2NhcGU6Y29ubmVjdG9yLWN1cnZhdHVyZT0iMCIgc3R5bGU9ImZpbGw6Izk5Q0M1MzsiIGQ9Ik0xMC40MSw0My41SDB2Ni43NGg0LjUxTDEwLjQxLDQzLjV6Ii8+JiN4YTsJCTwvZz4mI3hhOwk8L2c+JiN4YTs8L2c+JiN4YTs8L3N2Zz4=;strokeWidth=1;fontSize=18;align=center;" vertex="1" parent="1">
          <mxGeometry x="1140" y="232.5" width="59" height="50" as="geometry" />
        </mxCell>
        <mxCell id="keo_O-B1GyqZ8fwBsUim-58" value="+" style="text;html=1;strokeColor=none;fillColor=none;align=center;verticalAlign=middle;whiteSpace=wrap;rounded=0;" vertex="1" parent="1">
          <mxGeometry x="1099.5" y="170" width="20" height="20" as="geometry" />
        </mxCell>
        <mxCell id="keo_O-B1GyqZ8fwBsUim-59" value="+" style="text;html=1;strokeColor=none;fillColor=none;align=center;verticalAlign=middle;whiteSpace=wrap;rounded=0;" vertex="1" parent="1">
          <mxGeometry x="1099.5" y="248.5" width="20" height="20" as="geometry" />
        </mxCell>
      </root>
    </mxGraphModel>
  </diagram>
</mxfile>
